<svg xmlns="http://www.w3.org/2000/svg" xmlns:xlink="http://www.w3.org/1999/xlink" width="373.802" height="269.549" viewBox="0 0 373.802 269.549">
  <defs>
    <linearGradient id="linear-gradient" x1="-1.02" y1="1" x2="-1.02" gradientUnits="objectBoundingBox">
      <stop offset="0" stop-color="gray" stop-opacity="0.251"/>
      <stop offset="0.54" stop-color="gray" stop-opacity="0.122"/>
      <stop offset="1" stop-color="gray" stop-opacity="0.102"/>
    </linearGradient>
    <linearGradient id="linear-gradient-2" x1="0" y1="0.5" x2="1.001" y2="0.5" xlink:href="#linear-gradient"/>
  </defs>
  <g id="undraw_email_campaign_qa8y" transform="translate(-0.001 -0.006)">
    <path id="Path_2074" data-name="Path 2074" d="M252.189,85.688c-23.964-.83-46.789-8.568-68.583-17.033s-43.385-17.84-66.773-22.326c-15.045-2.885-32.25-3.292-44.371,4.774C60.8,58.85,57.026,72.264,55,84.7c-1.525,9.352-2.422,19.187,1.753,27.953,2.9,6.08,8.052,11.191,11.615,17.013,12.389,20.262,3.639,45.251-9.8,65.033-6.285,9.282-13.606,18.135-18.466,28.013S33,243.91,37.247,253.986c4.218,9.99,14.261,17.493,25.141,22.769,22.1,10.718,48.146,13.788,73.542,15.525,56.217,3.844,112.736,2.18,169.1.513,20.861-.619,41.811-1.244,62.334-4.469,11.393-1.79,23.156-4.631,31.427-11.5,10.5-8.713,13.107-23.467,6.067-34.4-11.8-18.323-44.444-22.875-52.694-42.542-4.542-10.824.122-22.885,6.722-32.922,14.159-21.539,37.891-40.435,39.141-65.05.86-16.908-10.549-33.842-28.188-41.84-18.492-8.386-44.13-7.331-57.772,6.55C298.032,80.924,273.347,86.422,252.189,85.688Z" transform="translate(-35 -43.82)" fill="#c2f1c1" opacity="0.1"/>
    <g id="Group_1" data-name="Group 1" transform="translate(130.504 28.437)" opacity="0.9">
      <rect id="Rectangle_715" data-name="Rectangle 715" width="3.278" height="27.037" rx="1.639" transform="translate(109.09 50.6)" fill="#3a3768"/>
      <rect id="Rectangle_716" data-name="Rectangle 716" width="1.839" height="8.902" rx="0.92" transform="translate(0.066 29.419)" fill="#3a3768"/>
      <rect id="Rectangle_717" data-name="Rectangle 717" width="2.074" height="15.495" rx="1.037" transform="translate(0 45.714)" fill="#3a3768"/>
      <rect id="Rectangle_718" data-name="Rectangle 718" width="1.975" height="15.627" rx="0.987" transform="translate(0.033 66.628)" fill="#3a3768"/>
      <rect id="Rectangle_719" data-name="Rectangle 719" width="109.752" height="223.053" rx="15" transform="translate(1.108)" fill="#3a3768"/>
      <rect id="Rectangle_720" data-name="Rectangle 720" width="15.326" height="3.113" rx="1.556" transform="translate(45.397 6.662)" fill="#e6e8ec"/>
      <circle id="Ellipse_98" data-name="Ellipse 98" cx="1.767" cy="1.767" r="1.767" transform="translate(63.039 6.451)" fill="#e6e8ec"/>
    </g>
    <path id="Path_2075" data-name="Path 2075" d="M540.819,146.1H528.248v1.515a7.175,7.175,0,0,1-7.178,7.175H481.015a7.179,7.179,0,0,1-7.179-7.175V146.1h-11.78a8.717,8.717,0,0,0-8.717,8.717v194a8.717,8.717,0,0,0,8.717,8.717h78.762a8.717,8.717,0,0,0,8.717-8.717v-194a8.717,8.717,0,0,0-8.717-8.717Z" transform="translate(-314.95 -111.851)" fill="#c2f1c1" opacity="0.5"/>
    <rect id="Rectangle_721" data-name="Rectangle 721" width="96.271" height="8.885" transform="translate(138.47 49.119)" fill="#e6e8ec"/>
    <rect id="Rectangle_722" data-name="Rectangle 722" width="8.148" height="0.741" transform="translate(141.434 50.968)" fill="#3a3768"/>
    <rect id="Rectangle_723" data-name="Rectangle 723" width="8.148" height="0.741" transform="translate(141.434 53.191)" fill="#3a3768"/>
    <rect id="Rectangle_724" data-name="Rectangle 724" width="8.148" height="0.741" transform="translate(141.434 55.414)" fill="#3a3768"/>
    <path id="Path_2076" data-name="Path 2076" d="M715.391,198.658h-.3l-.116-.093a2.534,2.534,0,0,0,.589-1.621,2.461,2.461,0,1,0-2.448,2.478,2.54,2.54,0,0,0,1.614-.592l.112.1v.3l1.9,1.905.569-.572Zm-2.276,0a1.7,1.7,0,1,1,1.21-.5A1.714,1.714,0,0,1,713.115,198.658Z" transform="translate(-487.133 -144.24)" fill="#3a3768"/>
    <circle id="Ellipse_99" data-name="Ellipse 99" cx="4.072" cy="4.072" r="4.072" transform="translate(141.434 70.225)" fill="#e6e8ec"/>
    <rect id="Rectangle_725" data-name="Rectangle 725" width="56.654" height="2.223" transform="translate(158.282 78.369)" fill="#e6e8ec"/>
    <rect id="Rectangle_726" data-name="Rectangle 726" width="56.654" height="2.223" transform="translate(158.467 83.182)" fill="#e6e8ec"/>
    <rect id="Rectangle_727" data-name="Rectangle 727" width="56.654" height="2.223" transform="translate(158.652 87.999)" fill="#e6e8ec"/>
    <circle id="Ellipse_100" data-name="Ellipse 100" cx="4.072" cy="4.072" r="4.072" transform="translate(141.434 97.996)" fill="#e6e8ec"/>
    <rect id="Rectangle_728" data-name="Rectangle 728" width="56.654" height="2.223" transform="translate(158.282 106.14)" fill="#e6e8ec"/>
    <rect id="Rectangle_729" data-name="Rectangle 729" width="56.654" height="2.223" transform="translate(158.467 110.954)" fill="#e6e8ec"/>
    <rect id="Rectangle_730" data-name="Rectangle 730" width="56.654" height="2.223" transform="translate(158.652 115.767)" fill="#e6e8ec"/>
    <circle id="Ellipse_101" data-name="Ellipse 101" cx="4.072" cy="4.072" r="4.072" transform="translate(141.434 125.767)" fill="#e6e8ec"/>
    <rect id="Rectangle_731" data-name="Rectangle 731" width="56.654" height="2.223" transform="translate(158.282 133.912)" fill="#e6e8ec"/>
    <rect id="Rectangle_732" data-name="Rectangle 732" width="56.654" height="2.223" transform="translate(158.467 138.725)" fill="#e6e8ec"/>
    <rect id="Rectangle_733" data-name="Rectangle 733" width="56.654" height="2.223" transform="translate(158.652 143.538)" fill="#e6e8ec"/>
    <circle id="Ellipse_102" data-name="Ellipse 102" cx="4.072" cy="4.072" r="4.072" transform="translate(141.434 153.538)" fill="#e6e8ec"/>
    <rect id="Rectangle_734" data-name="Rectangle 734" width="56.654" height="2.223" transform="translate(158.282 161.683)" fill="#e6e8ec"/>
    <rect id="Rectangle_735" data-name="Rectangle 735" width="56.654" height="2.223" transform="translate(158.467 166.496)" fill="#e6e8ec"/>
    <rect id="Rectangle_736" data-name="Rectangle 736" width="56.654" height="2.223" transform="translate(158.652 171.309)" fill="#e6e8ec"/>
    <circle id="Ellipse_103" data-name="Ellipse 103" cx="4.072" cy="4.072" r="4.072" transform="translate(141.434 181.31)" fill="#e6e8ec"/>
    <rect id="Rectangle_737" data-name="Rectangle 737" width="56.654" height="2.223" transform="translate(158.282 189.454)" fill="#e6e8ec"/>
    <rect id="Rectangle_738" data-name="Rectangle 738" width="56.654" height="2.223" transform="translate(158.467 194.267)" fill="#e6e8ec"/>
    <rect id="Rectangle_739" data-name="Rectangle 739" width="56.654" height="2.223" transform="translate(158.652 199.081)" fill="#e6e8ec"/>
    <circle id="Ellipse_104" data-name="Ellipse 104" cx="4.072" cy="4.072" r="4.072" transform="translate(141.434 209.081)" fill="#e6e8ec"/>
    <rect id="Rectangle_740" data-name="Rectangle 740" width="56.654" height="2.223" transform="translate(158.282 217.225)" fill="#e6e8ec"/>
    <rect id="Rectangle_741" data-name="Rectangle 741" width="56.654" height="2.223" transform="translate(158.467 222.039)" fill="#e6e8ec"/>
    <rect id="Rectangle_742" data-name="Rectangle 742" width="56.654" height="2.223" transform="translate(158.652 226.852)" fill="#e6e8ec"/>
    <circle id="Ellipse_105" data-name="Ellipse 105" cx="10.367" cy="10.367" r="10.367" transform="translate(204.75 218.707)" opacity="0.1"/>
    <circle id="Ellipse_106" data-name="Ellipse 106" cx="9.256" cy="9.256" r="9.256" transform="translate(205.862 219.819)" fill="#c2f1c1"/>
    <path id="Path_2077" data-name="Path 2077" d="M312.094,158.344l-18.105,9.782a.377.377,0,0,0,.026.662l3.09,1.161a.751.751,0,0,1,.407.38l2.4,4.942c.046.218.45.275.453.053L300,171.242a1.469,1.469,0,0,1,.331-.827l9.388-9.2a.232.232,0,0,1,.205-.06.215.215,0,0,1,.116.331l-8.092,9.944a1.8,1.8,0,0,0-.331.814l-.466,3.526c.04.308.281.423.473.149l1.743-2.048a.364.364,0,0,1,.513-.086l4.492,3.275a.364.364,0,0,0,.572-.222l3.685-18.092a.367.367,0,0,0-.529-.407Z" transform="translate(-208.19 -120.016)" fill="#c2f1c1"/>
    <path id="Path_2078" data-name="Path 2078" d="M890.007,169.911l-18.105,9.8a.377.377,0,0,0,.03.662l3.086,1.164a.718.718,0,0,1,.407.38l2.4,4.939c.046.218.447.278.453.056l-.367-4.085a1.449,1.449,0,0,1,.331-.824l9.385-9.2a.225.225,0,0,1,.205-.06.215.215,0,0,1,.119.331l-8.095,9.9a1.81,1.81,0,0,0-.331.817l-.486,3.526c.04.308.281.427.476.149l1.743-2.044a.364.364,0,0,1,.513-.086l4.492,3.272a.361.361,0,0,0,.569-.222l3.685-18.092a.367.367,0,0,0-.529-.407Z" transform="translate(-594.927 -127.738)" fill="#c2f1c1"/>
    <path id="Path_2079" data-name="Path 2079" d="M563.977,61.634,551.614,68.32a.258.258,0,0,0,.017.463l2.111.794a.506.506,0,0,1,.278.258l1.654,3.374c.033.149.308.189.311.04l-.251-2.792a1.012,1.012,0,0,1,.225-.562l6.411-6.285a.152.152,0,0,1,.139-.04.146.146,0,0,1,.079.235l-5.524,6.758a1.238,1.238,0,0,0-.215.556l-.331,2.408c.026.212.189.291.331.1l1.191-1.4a.248.248,0,0,1,.331-.06l3.067,2.236a.248.248,0,0,0,.39-.152l2.517-12.352a.248.248,0,0,0-.361-.278Z" transform="translate(-380.623 -55.301)" fill="#c2f1c1"/>
    <path id="Path_2080" data-name="Path 2080" d="M776.653,42.617l-12.362,6.689a.258.258,0,0,0,.016.46l2.111.794a.5.5,0,0,1,.278.261l1.638,3.371c.033.149.308.189.311.04l-.238-2.789a1.017,1.017,0,0,1,.225-.566l6.411-6.285a.152.152,0,0,1,.139-.04.145.145,0,0,1,.079.235l-5.531,6.765a1.237,1.237,0,0,0-.215.556l-.331,2.412c.026.208.192.288.331.1l1.191-1.4a.248.248,0,0,1,.347-.06l3.07,2.236a.245.245,0,0,0,.387-.152l2.5-12.352a.248.248,0,0,0-.361-.278Z" transform="translate(-522.947 -42.58)" fill="#c2f1c1"/>
    <path id="Path_2081" data-name="Path 2081" d="M868.745,296.3l-36.495-3.014a.662.662,0,0,0-.615,1.032l3.47,4.737a1.293,1.293,0,0,1,.238.963l-1.231,9.693c-.142.367.4.847.622.523l3.427-6.457a2.583,2.583,0,0,1,1.293-.906l22.925-4.572a.407.407,0,0,1,.361.109.384.384,0,0,1-.159.629L840.9,305.923a3.236,3.236,0,0,0-1.267.906l-4.152,4.784c-.238.5,0,.906.562.685l4.588-1.353a.662.662,0,0,1,.847.371l3.507,9.243a.662.662,0,0,0,1.069.225l23.08-23.365a.662.662,0,0,0-.394-1.121Z" transform="translate(-568.025 -210.342)" fill="#c2f1c1"/>
    <path id="Path_2082" data-name="Path 2082" d="M645.912,373.388a5.894,5.894,0,0,0,1.244,1.257c.308.255.625.516.956.748.093.066.188.129.284.192,0,.017-.02.033-.026.053a.751.751,0,0,0-.086.46.992.992,0,0,0,.354.476,4.9,4.9,0,0,1,1.492,2.7c.112.6-.291,1.241-.265,1.849a5.387,5.387,0,0,0,.47,1.727,9.323,9.323,0,0,0,2.051,3.553,11.485,11.485,0,0,0,2.3,5.667,18.427,18.427,0,0,0,3.88,3.4,7.536,7.536,0,0,0,1.432.9,8.094,8.094,0,0,0,1.419.38,73.172,73.172,0,0,0,12.468,1.409q.175,3.738.152,7.473a3.083,3.083,0,0,1-.172,1.207,5.368,5.368,0,0,1-.721,1.012,7.052,7.052,0,0,0-.926,4.588,42.266,42.266,0,0,0,.662,5.551c.433,2.349.036,4.942.87,7.179.331.883.662,1.763.992,2.646a2.335,2.335,0,0,1,.2.784,3.457,3.457,0,0,1-.662,1.575,4.561,4.561,0,0,0-.579,2.4.5.5,0,0,0,.069.268c.109.146.331.132.509.106a21.441,21.441,0,0,1,2.21-.205,4.043,4.043,0,0,0-.357.526,7.742,7.742,0,0,0-.47.966,9.138,9.138,0,0,0-.629,1.727,2.114,2.114,0,0,0-.063.265c-.04.179-.076.361-.106.539a17.86,17.86,0,0,0-.2,3.176,33.645,33.645,0,0,1-.394,4.651,7.666,7.666,0,0,0,.4,3.533,8.364,8.364,0,0,0,.48,2.646,15.945,15.945,0,0,0,.331,2.792q1.717,9.673,3.639,19.3c.116.559.225,1.115.374,1.654a13.537,13.537,0,0,0,2.478,4.9,22.272,22.272,0,0,1,2.587,4.142c-.076.351-.155.7-.238,1.049a74.932,74.932,0,0,0-2.025,9.243,12.811,12.811,0,0,1-.662,3.7,5.664,5.664,0,0,0-.662,1.79,1.985,1.985,0,0,0,.275,1.161c-.086.063-.169.129-.248.2l-.136.112a8.672,8.672,0,0,1-3.358,1.2,3.631,3.631,0,0,0-2.762,2.064,1.8,1.8,0,0,0-.056.222,2.926,2.926,0,0,0,1.323,2.805,7.433,7.433,0,0,0,3.308,1.016,10.769,10.769,0,0,1,3.4.781,21.581,21.581,0,0,0,2.646,1.512l.169.05c-.215.129-.433.255-.662.37a9.961,9.961,0,0,1-3.172.992c-1.118.155-2.455.228-3.03,1.2h0a2.146,2.146,0,0,0,.549,2.531,5.254,5.254,0,0,0,2.527,1.118,45.981,45.981,0,0,0,6.285.781l2.054.155c1.985.152,4.009.308,6.021.331a41.477,41.477,0,0,0,7.4-.645.807.807,0,0,0,.589-.284.842.842,0,0,0,.089-.47,36.187,36.187,0,0,0-.94-7.463c-.169-.734-1.171.268-1.733.9-.073-.367-.159-.731-.255-1.085l.44-.208a1.584,1.584,0,0,0,.807-.662,1.617,1.617,0,0,0,.086-.777,10.91,10.91,0,0,0-.946-4.707,9.976,9.976,0,0,0-1.872-2.279,86.962,86.962,0,0,0-1.833-15.1,20.633,20.633,0,0,0-2.736-7.228c-.182-.268-.38-.536-.579-.8a65.019,65.019,0,0,0-.883-7.255,1.872,1.872,0,0,1,0-.966,2.977,2.977,0,0,1,.533-.734c.88-1.135.519-2.749.417-4.185a19.987,19.987,0,0,1,.824-6.12q.9-3.718,1.79-7.44a12.053,12.053,0,0,1,.629-2.061,20.352,20.352,0,0,1,1.614-2.6,14.665,14.665,0,0,0,2.243-8.836c.331.119.662.242,1.012.374.248-2.077-.628-4.436,0-6.388a8.211,8.211,0,0,0,2.534-3.017c.49-1.1.629-2.336,1.141-3.424a10.558,10.558,0,0,0,.867-1.836,12.826,12.826,0,0,0-.05-3.04c.033-2.213,1.654-4.267,1.29-6.454-.165-1.039-.767-1.985-.734-3.053a5.11,5.11,0,0,1,.427-1.654c1.217-3.225,2.418-6.659,1.793-10.053a11.378,11.378,0,0,1-.394-2.613c.053-1.009.533-1.985.39-2.994a2.272,2.272,0,0,0-.45-1.049,12.572,12.572,0,0,0,1.108-2.124,3.039,3.039,0,0,0,.294-1.356,2.4,2.4,0,0,0-.956-1.614,9.676,9.676,0,0,0-1.654-.963,1.349,1.349,0,0,1-.486-.347,3.561,3.561,0,0,1-.275-.523c-.331-.566-1.035-.744-1.594-1.085-2.018-1.231-1.823-4.4-3.546-6.027a3.447,3.447,0,0,0-4.3-.228,1.055,1.055,0,0,1-.609.3,1.168,1.168,0,0,1-.589-.331,2.372,2.372,0,0,0-1.456-.4,13.961,13.961,0,0,1-.437-3.861h.155a2.04,2.04,0,0,0,.6-.069,3.173,3.173,0,0,0,1.753-2.025,15.37,15.37,0,0,0,.777-2.223c.02-.073.036-.146.053-.215,1.7,1.191,3.669,2.438,4.138,2.177.87-.48-3.887-3.864-3.887-3.864h0a3.787,3.787,0,0,0,.992-2.183,11.874,11.874,0,0,0,.04-4.78,5.644,5.644,0,0,0-2.729-3.775,6.544,6.544,0,0,1-1.849-1.049h0a1.193,1.193,0,0,1-.179-.245h0a.619.619,0,0,1-.073-.129,1.8,1.8,0,0,0-.2-.39c-.261-.3-.734-.208-1.128-.162h-.341c-1.409.03-2.775-.758-4.2-.758-1.565,0-2.895.906-4.271,1.528-.278.126-.543.241-.791.357a3.569,3.569,0,0,0-1.985,1.8,2.8,2.8,0,0,0-.572,1.108,2.611,2.611,0,0,0-.073.569,9.464,9.464,0,0,0,4.254,15.879c.033.093.066.185.1.278a7.966,7.966,0,0,1,.414,2.646v.189a7.181,7.181,0,0,0-2.041.83,3.947,3.947,0,0,0-1.72,2.114,2.058,2.058,0,0,0-.053.2,5.446,5.446,0,0,0-1.555-.268,1.669,1.669,0,0,0-1.323.4,1.221,1.221,0,0,0-.251.513c-.182.169-.218.46-.331.681-.4.7-1.432.47-2.21.662-.844.208-1.508.992-2.378.992a4.062,4.062,0,0,0-.992-.036c-.331.079-.582.526-.331.751a1.055,1.055,0,0,0-.992.48c-.238.311-.4.681-.662.973a1.012,1.012,0,0,0-1.032-.4,3.829,3.829,0,0,0-1.088.43,1.566,1.566,0,0,1-.48.169,2.067,2.067,0,0,1-.586-.053,4.678,4.678,0,0,0-2.739.384c-.754.357-1.479-.3-2.316-.351a1.293,1.293,0,0,1-.847-.261,1.655,1.655,0,0,1-.331-.662,3.308,3.308,0,0,0-2.422-2.144,2.818,2.818,0,0,0-1.654-3.477,3.007,3.007,0,0,0-1.032-2.62,4.852,4.852,0,0,1-.523-.41,2.508,2.508,0,0,1-.48-.887l-.734-1.945c-.331-.066-.579-.2-.887-.255v-.2a6.375,6.375,0,0,0-.331-1.952,10.933,10.933,0,0,0-1.568-2.855,8.226,8.226,0,0,0-2.521-2.534,9.04,9.04,0,0,0-1.075-.5l-1.892-.781a.92.92,0,0,0-.331-.093c-.51,0-.6.787-.331,1.207.576.85,1.872,1.088,2.24,2.051a1.459,1.459,0,0,0-1.353,1.052.738.738,0,0,1-.182.427c-.165.136-.427.056-.619.159-.331.182-.189.685-.225,1.065a5.115,5.115,0,0,1-.331.959A2.054,2.054,0,0,0,645.912,373.388Zm45.36,132.654c0-.2-.026-.39-.043-.582.04.1.076.208.116.311.331.873.7,1.733,1.095,2.584l-.066-.036a3.266,3.266,0,0,0-.9-.258.924.924,0,0,1-.251-.023,7.053,7.053,0,0,0,.053-1.988Z" transform="translate(-443.57 -250.628)" fill="url(#linear-gradient)"/>
    <path id="Path_2083" data-name="Path 2083" d="M763.455,411.578c-.036,1.383-.5,2.719-.576,4.1,4.066.2,8.078-1.77,12.108-1.168a5.6,5.6,0,0,1-2.084-3.335,13.918,13.918,0,0,1-.4-5.121,2.1,2.1,0,0,1,.053-.284,7.236,7.236,0,0,0,.43-2.163c-.136-.7-.8-.562-1.4-.523a52.6,52.6,0,0,0-5.429.7c-.466.079-5.028,1.217-5.094,1.1a21.432,21.432,0,0,1,1.985,4.066A7.9,7.9,0,0,1,763.455,411.578Z" transform="translate(-520.88 -283.797)" fill="#ee8e9e"/>
    <path id="Path_2084" data-name="Path 2084" d="M645.925,398.635a5.956,5.956,0,0,0,1.244,1.25c.308.255.625.513.956.744a4.086,4.086,0,0,0,2.034.827,5.416,5.416,0,0,0,3.639-1.323,2.389,2.389,0,0,0,.347-1.389,6.308,6.308,0,0,0-.331-1.942,10.834,10.834,0,0,0-1.568-2.838,8.365,8.365,0,0,0-2.521-2.521,9.6,9.6,0,0,0-1.075-.5l-1.892-.774a.919.919,0,0,0-.331-.093c-.509,0-.6.781-.331,1.2.576.847,1.872,1.082,2.24,2.041a1.452,1.452,0,0,0-1.353,1.045.728.728,0,0,1-.182.423c-.165.136-.427.06-.619.159-.331.182-.189.681-.225,1.062a5.142,5.142,0,0,1-.331.953,2.031,2.031,0,0,0,.3,1.671Z" transform="translate(-443.583 -275.12)" fill="#ee8e9e"/>
    <path id="Path_2085" data-name="Path 2085" d="M799.152,821.606c-.311-.331-.824-.261-1.26-.192a46.781,46.781,0,0,1-7.1.576c-.3-1.452.566-2.865.844-4.324a3.821,3.821,0,0,1,.281-1.092,2.494,2.494,0,0,1,1.8-1.085c1.28-.268,3.278-.744,3.993.546A19.389,19.389,0,0,1,799.152,821.606Z" transform="translate(-540.731 -559.593)" fill="#65617d"/>
    <path id="Path_2086" data-name="Path 2086" d="M734.82,803.97a7.428,7.428,0,0,0,3.308,1.012,10.764,10.764,0,0,1,3.4.777,21.519,21.519,0,0,0,2.646,1.5,5.482,5.482,0,0,0,2.729.043,4.047,4.047,0,0,0,2.808-1.525,4.689,4.689,0,0,0,.39-2.852c-.083-1.1-.162-2.2-.245-3.308a1.565,1.565,0,0,0-.205-.8c-.777-1.138-2.673.473-3.688.473a7.11,7.11,0,0,1-4.489-1.939,1.44,1.44,0,0,0-.351-.265c-.457-.205-.916.175-1.323.506l-.136.112a8.721,8.721,0,0,1-3.358,1.2,3.631,3.631,0,0,0-2.762,2.051,1.77,1.77,0,0,0-.056.218A2.866,2.866,0,0,0,734.82,803.97Z" transform="translate(-502.398 -547.452)" fill="#3f3d56"/>
    <path id="Path_2087" data-name="Path 2087" d="M734.82,803.97a7.428,7.428,0,0,0,3.308,1.012,10.764,10.764,0,0,1,3.4.777,21.519,21.519,0,0,0,2.646,1.5,5.482,5.482,0,0,0,2.729.043,4.047,4.047,0,0,0,2.808-1.525,4.689,4.689,0,0,0,.39-2.852c-.083-1.1-.162-2.2-.245-3.308a1.565,1.565,0,0,0-.205-.8c-.777-1.138-2.673.473-3.688.473a7.11,7.11,0,0,1-4.489-1.939,1.44,1.44,0,0,0-.351-.265c-.457-.205-.916.175-1.323.506l-.136.112a8.721,8.721,0,0,1-3.358,1.2,3.631,3.631,0,0,0-2.762,2.051,1.77,1.77,0,0,0-.056.218A2.866,2.866,0,0,0,734.82,803.97Z" transform="translate(-502.398 -547.452)" opacity="0.05"/>
    <path id="Path_2088" data-name="Path 2088" d="M734.59,804.361a7.427,7.427,0,0,0,3.308,1.012,10.76,10.76,0,0,1,3.4.777,21.527,21.527,0,0,0,2.646,1.5,5.483,5.483,0,0,0,2.729.043,4.509,4.509,0,0,0,2.809-1.9,4.691,4.691,0,0,0,.39-2.852c-.083-1.1-.162-2.2-.245-3.308a1.564,1.564,0,0,0-.205-.8c-.777-1.138-2.673.473-3.688.473a7.109,7.109,0,0,1-4.489-1.938,1.439,1.439,0,0,0-.351-.265c-.456-.205-.916.175-1.323.506a9.458,9.458,0,0,0,1.128,2.316,4.866,4.866,0,0,0,3.54,2.216,11.616,11.616,0,0,1,2.15.1c.695.185,1.323.893,1.095,1.571s-1.088.8-1.79.837a7.927,7.927,0,0,1-2.921-.2c-.569-.192-1.088-.506-1.654-.734-2.355-.992-5.329-.43-7.278-2.081a4.385,4.385,0,0,0-.6-.457C732.741,802.267,733.687,803.742,734.59,804.361Z" transform="translate(-502.168 -547.465)" fill="#e8eaf2"/>
    <path id="Path_2089" data-name="Path 2089" d="M734.59,804.361a7.427,7.427,0,0,0,3.308,1.012,10.76,10.76,0,0,1,3.4.777,21.527,21.527,0,0,0,2.646,1.5,5.483,5.483,0,0,0,2.729.043,4.509,4.509,0,0,0,2.809-1.9,4.691,4.691,0,0,0,.39-2.852c-.083-1.1-.162-2.2-.245-3.308a1.564,1.564,0,0,0-.205-.8c-.777-1.138-2.673.473-3.688.473a7.109,7.109,0,0,1-4.489-1.938,1.439,1.439,0,0,0-.351-.265c-.456-.205-.916.175-1.323.506a9.458,9.458,0,0,0,1.128,2.316,4.866,4.866,0,0,0,3.54,2.216,11.616,11.616,0,0,1,2.15.1c.695.185,1.323.893,1.095,1.571s-1.088.8-1.79.837a7.927,7.927,0,0,1-2.921-.2c-.569-.192-1.088-.506-1.654-.734-2.355-.992-5.329-.43-7.278-2.081a4.385,4.385,0,0,0-.6-.457C732.741,802.267,733.687,803.742,734.59,804.361Z" transform="translate(-502.168 -547.465)" opacity="0.05"/>
    <path id="Path_2090" data-name="Path 2090" d="M760.388,592.685A14.479,14.479,0,0,1,758.4,603.37a19.987,19.987,0,0,0-1.614,2.587,11.948,11.948,0,0,0-.629,2.051l-1.79,7.417a20.025,20.025,0,0,0-.824,6.087c.1,1.429.463,3.034-.417,4.165a2.978,2.978,0,0,0-.533.728,1.863,1.863,0,0,0,0,.963c.906,5.372,1.575,10.993-.06,16.19-1.479,4.711-1.565,9.924-2.825,14.708a3.256,3.256,0,0,1-.781,1.631,2.583,2.583,0,0,1-1.174.559,8.649,8.649,0,0,1-5.544-.88c-1.217-.562-2.527-1.551-2.422-2.888a6.137,6.137,0,0,1,.662-1.78,12.252,12.252,0,0,0,.662-3.675,73.567,73.567,0,0,1,2.025-9.193,21.963,21.963,0,0,0,.609-9.329,81.65,81.65,0,0,0-6-18.462,2.159,2.159,0,0,0-.549-.824,5.861,5.861,0,0,1-.777-.533,2.338,2.338,0,0,1-.354-.969,10.5,10.5,0,0,0-1.614-2.547c-1.363-2.164-.93-4.936-.88-7.49.05-2.484-.308-4.989.1-7.44s1.81-4.962,4.171-5.723a8.97,8.97,0,0,1,3.662-.172A71.34,71.34,0,0,1,760.388,592.685Z" transform="translate(-502.407 -407.865)" fill="#303d5c"/>
    <path id="Path_2091" data-name="Path 2091" d="M760.388,592.685A14.479,14.479,0,0,1,758.4,603.37a19.987,19.987,0,0,0-1.614,2.587,11.948,11.948,0,0,0-.629,2.051l-1.79,7.417a20.025,20.025,0,0,0-.824,6.087c.1,1.429.463,3.034-.417,4.165a2.978,2.978,0,0,0-.533.728,1.863,1.863,0,0,0,0,.963c.906,5.372,1.575,10.993-.06,16.19-1.479,4.711-1.565,9.924-2.825,14.708a3.256,3.256,0,0,1-.781,1.631,2.583,2.583,0,0,1-1.174.559,8.649,8.649,0,0,1-5.544-.88c-1.217-.562-2.527-1.551-2.422-2.888a6.137,6.137,0,0,1,.662-1.78,12.252,12.252,0,0,0,.662-3.675,73.567,73.567,0,0,1,2.025-9.193,21.963,21.963,0,0,0,.609-9.329,81.65,81.65,0,0,0-6-18.462,2.159,2.159,0,0,0-.549-.824,5.861,5.861,0,0,1-.777-.533,2.338,2.338,0,0,1-.354-.969,10.5,10.5,0,0,0-1.614-2.547c-1.363-2.164-.93-4.936-.88-7.49.05-2.484-.308-4.989.1-7.44s1.81-4.962,4.171-5.723a8.97,8.97,0,0,1,3.662-.172A71.34,71.34,0,0,1,760.388,592.685Z" transform="translate(-502.407 -407.865)" opacity="0.05"/>
    <path id="Path_2092" data-name="Path 2092" d="M732.992,610.665a15.547,15.547,0,0,0,.331,2.871q1.717,9.623,3.639,19.187c.116.556.225,1.108.374,1.654a13.447,13.447,0,0,0,2.478,4.873c5.392,6.719,5.859,16.478,8.783,24.579.2.549.394,1.1.6,1.654A41,41,0,0,0,751,669.508a1.135,1.135,0,0,0,.37.48,1.108,1.108,0,0,0,.589.116,17.152,17.152,0,0,0,7.609-1.73,1.575,1.575,0,0,0,.807-.662,1.61,1.61,0,0,0,.086-.774,10.792,10.792,0,0,0-.946-4.681,9.924,9.924,0,0,0-1.872-2.269,86.075,86.075,0,0,0-1.833-15.019,20.477,20.477,0,0,0-2.736-7.192c-1.078-1.571-2.623-3.12-2.435-5.015.086-.834.433-1.869-.245-2.359-.294-.215-.734-.241-.933-.549a1.012,1.012,0,0,1-.132-.47,11.652,11.652,0,0,1,.241-3.89,20.945,20.945,0,0,0,.579-2.534,3.181,3.181,0,0,0-.638-2.448c-.036-1.73,0-3.526-.023-5.257a9.792,9.792,0,0,1,.245-2.934c.129-.453.331-.887.43-1.35.364-1.654-.539-3.639.536-4.962a7.3,7.3,0,0,1,1.724-1.217,6.307,6.307,0,0,0,2.369-3.4,18.811,18.811,0,0,0,.662-4.168,4.344,4.344,0,0,0,0-.9,1.683,1.683,0,0,0-.122-.45,2.741,2.741,0,0,0-2.031-1.234,65.693,65.693,0,0,0-15.515-1.813c-1.932-1.323-3.02-.847-3.837.549a14.145,14.145,0,0,0-1.095,2.67c-.374,1.128-.4,7.46-.761,8.6C731.632,606.1,732.992,609.116,732.992,610.665Z" transform="translate(-501.427 -410.271)" fill="#303d5c"/>
    <path id="Path_2093" data-name="Path 2093" d="M814.549,470.059a15.059,15.059,0,0,1-.39,2.977,11.267,11.267,0,0,0,.394,2.6c.625,3.374-.576,6.792-1.793,10a5.054,5.054,0,0,0-.427,1.654c-.033,1.045.569,2,.734,3.04.347,2.173-1.257,4.218-1.29,6.418a12.041,12.041,0,0,1,.05,3.024,10.389,10.389,0,0,1-.867,1.829c-.513,1.082-.662,2.316-1.141,3.4-.887,1.985-2.792,3.265-4.6,4.449a4.649,4.649,0,0,1-2.713-1.677,4.151,4.151,0,0,1-.473-1.475,37.989,37.989,0,0,1-.364-6.831,42.586,42.586,0,0,1,.311-5.885c.367-2.481,1.171-4.873,1.75-7.314.728-3.08,1.1-6.262,2.236-9.216a31.079,31.079,0,0,1,4.188-7.155c.622-.853,1.115-2.068,2.316-1.872A2.544,2.544,0,0,1,814.549,470.059Z" transform="translate(-548.044 -327.268)" fill="#3f3d56"/>
    <path id="Path_2094" data-name="Path 2094" d="M814.549,470.059a15.059,15.059,0,0,1-.39,2.977,11.267,11.267,0,0,0,.394,2.6c.625,3.374-.576,6.792-1.793,10a5.054,5.054,0,0,0-.427,1.654c-.033,1.045.569,2,.734,3.04.347,2.173-1.257,4.218-1.29,6.418a12.041,12.041,0,0,1,.05,3.024,10.389,10.389,0,0,1-.867,1.829c-.513,1.082-.662,2.316-1.141,3.4-.887,1.985-2.792,3.265-4.6,4.449a4.649,4.649,0,0,1-2.713-1.677,4.151,4.151,0,0,1-.473-1.475,37.989,37.989,0,0,1-.364-6.831,42.586,42.586,0,0,1,.311-5.885c.367-2.481,1.171-4.873,1.75-7.314.728-3.08,1.1-6.262,2.236-9.216a31.079,31.079,0,0,1,4.188-7.155c.622-.853,1.115-2.068,2.316-1.872A2.544,2.544,0,0,1,814.549,470.059Z" transform="translate(-548.044 -327.268)" opacity="0.05"/>
    <path id="Path_2095" data-name="Path 2095" d="M761.07,404.883a21.432,21.432,0,0,1,1.985,4.066,9.317,9.317,0,0,0,2.243.271c2.931,0,5.008-1.654,6.732-3.774.149-.662,1.078-1.307.973-1.839-.136-.7-.8-.562-1.4-.523a52.6,52.6,0,0,0-5.429.7C765.7,403.864,761.136,405.015,761.07,404.883Z" transform="translate(-520.88 -283.797)" opacity="0.1"/>
    <circle id="Ellipse_107" data-name="Ellipse 107" cx="9.395" cy="9.395" r="9.395" transform="translate(235.009 106.379)" fill="#ee8e9e"/>
    <path id="Path_2096" data-name="Path 2096" d="M737.93,593.325c1.624-.1,3.262-.033,4.893.033a17.01,17.01,0,0,1,3.04.311c1.234.281,2.388.844,3.606,1.194a33.01,33.01,0,0,0,6.024.794,34.628,34.628,0,0,1,3.943.615,1.685,1.685,0,0,0-.122-.45,2.741,2.741,0,0,0-2.031-1.234,65.694,65.694,0,0,0-15.515-1.813C739.835,591.466,738.747,591.936,737.93,593.325Z" transform="translate(-505.395 -410.246)" opacity="0.1"/>
    <path id="Path_2097" data-name="Path 2097" d="M736.362,433.519c.41.473.959.992,1.568.84a2.161,2.161,0,0,0,.609-.331,9.181,9.181,0,0,1,3.685-1.055,54.165,54.165,0,0,0,7.609-1.707,7.756,7.756,0,0,1,2.246-.457,5.425,5.425,0,0,1,4,2.316c1,1.247,1.694,2.709,2.686,3.963.7.893,1.528,1.68,2.18,2.61a11.443,11.443,0,0,1,1.571,8.237,33.442,33.442,0,0,1-2.676,8.138,28.044,28.044,0,0,1-2.187,4.41,10.513,10.513,0,0,1-.844,6.543,6.569,6.569,0,0,0-.854,1.945,4.917,4.917,0,0,0,.06,1.426l.48,3.4c.146,1.035.291,2.074.48,3.1.331,1.882.814,3.923-.06,5.624-1.045,2.038.053,4.654-.222,6.947a34.877,34.877,0,0,0-9.177-2.187,32.719,32.719,0,0,1-6.021-.787c-1.217-.354-2.372-.916-3.606-1.2a16.709,16.709,0,0,0-3.04-.311,36.15,36.15,0,0,0-6.745.152c-.182.026-.4.04-.509-.106a.486.486,0,0,1-.07-.265,4.506,4.506,0,0,1,.579-2.392,3.413,3.413,0,0,0,.662-1.568,2.315,2.315,0,0,0-.2-.781l-.992-2.646c-.834-2.223-.437-4.8-.87-7.139a41.818,41.818,0,0,1-.662-5.521,6.912,6.912,0,0,1,.926-4.568,5.2,5.2,0,0,0,.721-.992,3.059,3.059,0,0,0,.172-1.2q.03-4.754-.261-9.5c.834-1.5,1.7-3.03,2.537-4.525a19.424,19.424,0,0,0,2.345-5.475c.258-1.3.248-2.63.433-3.937a1.714,1.714,0,0,1,.331-.916,1.665,1.665,0,0,1,1.323-.4A5.842,5.842,0,0,1,736.362,433.519Z" transform="translate(-497.426 -302.377)" fill="#3f3d56"/>
    <path id="Path_2098" data-name="Path 2098" d="M653.31,417.9a4.086,4.086,0,0,0,2.035.827,5.416,5.416,0,0,0,3.639-1.323,2.388,2.388,0,0,0,.347-1.389,1.714,1.714,0,0,0-.4-.076,10.583,10.583,0,0,0-3.153.126,3.55,3.55,0,0,0-2.448,1.836Z" transform="translate(-448.768 -292.384)" opacity="0.1"/>
    <path id="Path_2099" data-name="Path 2099" d="M684.859,438.68a6.557,6.557,0,0,1-1.985,1.869,6.392,6.392,0,0,1-3.083.473,74.005,74.005,0,0,1-12.9-1.416,8.1,8.1,0,0,1-1.419-.38,7.524,7.524,0,0,1-1.432-.9,18.059,18.059,0,0,1-3.88-3.381,11.409,11.409,0,0,1-2.3-5.64,9.222,9.222,0,0,1-2.051-3.533,5.336,5.336,0,0,1-.47-1.714c-.026-.609.377-1.247.265-1.846a4.86,4.86,0,0,0-1.492-2.68.992.992,0,0,1-.354-.473.74.74,0,0,1,.086-.457,3.532,3.532,0,0,1,2.445-1.839,10.609,10.609,0,0,1,3.156-.126,7.327,7.327,0,0,1,1.032.275l.734,1.935a2.493,2.493,0,0,0,.48.883,4.8,4.8,0,0,0,.523.407,2.977,2.977,0,0,1,1.032,2.607,2.8,2.8,0,0,1,1.654,3.46,3.308,3.308,0,0,1,2.422,2.13,1.614,1.614,0,0,0,.331.662,1.293,1.293,0,0,0,.847.261c.83.05,1.555.7,2.316.351a4.678,4.678,0,0,1,2.739-.384,2.065,2.065,0,0,0,.586.05,1.473,1.473,0,0,0,.48-.165,3.93,3.93,0,0,1,1.088-.43,1.019,1.019,0,0,1,1.032.4c.265-.288.423-.662.662-.966a1.062,1.062,0,0,1,.992-.48c-.251-.222,0-.662.331-.748a4.419,4.419,0,0,1,.992.036c.87,0,1.535-.794,2.378-.992.777-.192,1.81.036,2.21-.662.139-.245.169-.576.407-.728a.794.794,0,0,1,.526-.06,5.137,5.137,0,0,1,1.585.48c.814,3.182.387,6.487-.235,9.713A8.517,8.517,0,0,1,684.859,438.68Z" transform="translate(-449.063 -292.852)" fill="#3f3d56"/>
    <path id="Path_2100" data-name="Path 2100" d="M746,515.685l4.046,8.158c-.437-.754-1.36-1.049-2.087-1.532a5.551,5.551,0,0,1-1.985-2.68,16.537,16.537,0,0,1-.764-3.308,2.991,2.991,0,0,1,0-1.714C745.662,514.709,745.811,515.3,746,515.685Z" transform="translate(-510.18 -358.455)" opacity="0.1"/>
    <path id="Path_2101" data-name="Path 2101" d="M779.671,535.541a35.843,35.843,0,0,0,3.034,2.369,28.008,28.008,0,0,1,5.654,6.947,11.221,11.221,0,0,1,1.154,2.1c-.192.165-.48,0-.662-.172L785.675,544a7.048,7.048,0,0,1-1.059-1.072c-.552-.744-.8-1.654-1.3-2.448a9.634,9.634,0,0,0-1.932-1.985c-.728-.625-4.082-3.46-3.265-4.562C778.7,534.244,779.188,535.061,779.671,535.541Z" transform="translate(-532.207 -371.384)" opacity="0.1"/>
    <path id="Path_2102" data-name="Path 2102" d="M758.342,428.1a9.427,9.427,0,0,1,3.364-1.108,7.051,7.051,0,0,1,2.137-.152c.662.083,1.3.331,1.962.374a8.843,8.843,0,0,0,2.732-.572,3.283,3.283,0,0,1,2.706.2,1.145,1.145,0,0,0,.589.314,1.049,1.049,0,0,0,.609-.3,3.46,3.46,0,0,1,4.3.228c1.724,1.614,1.528,4.77,3.546,5.994.559.331,1.27.516,1.594,1.082a3.907,3.907,0,0,0,.275.519,1.383,1.383,0,0,0,.486.331,9.645,9.645,0,0,1,1.654.956,2.389,2.389,0,0,1,.956,1.608,3.014,3.014,0,0,1-.294,1.35,12.667,12.667,0,0,1-12.309,7.87,1.945,1.945,0,0,1-1.29-.4,2.444,2.444,0,0,1-.453-.744c-.949-1.985-2.729-3.46-3.864-5.352-.662-1.128-1.1-2.388-1.81-3.5a16.809,16.809,0,0,0-4.267-4.135,4.907,4.907,0,0,0-3.01-1.346c-.992.043-1.727.1-1.36-1.131a3.924,3.924,0,0,1,1.747-2.091Z" transform="translate(-517.822 -299.306)" fill="#3f3d56"/>
    <path id="Path_2103" data-name="Path 2103" d="M758.342,428.1a9.427,9.427,0,0,1,3.364-1.108,7.051,7.051,0,0,1,2.137-.152c.662.083,1.3.331,1.962.374a8.843,8.843,0,0,0,2.732-.572,3.283,3.283,0,0,1,2.706.2,1.145,1.145,0,0,0,.589.314,1.049,1.049,0,0,0,.609-.3,3.46,3.46,0,0,1,4.3.228c1.724,1.614,1.528,4.77,3.546,5.994.559.331,1.27.516,1.594,1.082a3.907,3.907,0,0,0,.275.519,1.383,1.383,0,0,0,.486.331,9.645,9.645,0,0,1,1.654.956,2.389,2.389,0,0,1,.956,1.608,3.014,3.014,0,0,1-.294,1.35,12.667,12.667,0,0,1-12.309,7.87,1.945,1.945,0,0,1-1.29-.4,2.444,2.444,0,0,1-.453-.744c-.949-1.985-2.729-3.46-3.864-5.352-.662-1.128-1.1-2.388-1.81-3.5a16.809,16.809,0,0,0-4.267-4.135,4.907,4.907,0,0,0-3.01-1.346c-.992.043-1.727.1-1.36-1.131a3.924,3.924,0,0,1,1.747-2.091Z" transform="translate(-517.822 -299.306)" opacity="0.05"/>
    <path id="Path_2104" data-name="Path 2104" d="M745.741,828.344a5.261,5.261,0,0,0,2.527,1.112,45.982,45.982,0,0,0,6.285.774l2.054.159c1.985.152,4.009.3,6.021.314a41.47,41.47,0,0,0,7.4-.642.807.807,0,0,0,.589-.284.823.823,0,0,0,.089-.466,35.839,35.839,0,0,0-.916-7.423c-.232-.992-2.028,1.244-2.111,1.323a2.046,2.046,0,0,1-1.631.867c-2.068.112-4.38-1.145-6.024-2.263a7.613,7.613,0,0,0-1.115-.691,3.39,3.39,0,0,0-.9-.258,5.461,5.461,0,0,0-3.073.625c-1.237.612-2.316,1.492-3.54,2.12a9.954,9.954,0,0,1-3.172.992c-1.118.152-2.455.228-3.03,1.2h0A2.153,2.153,0,0,0,745.741,828.344Z" transform="translate(-510.11 -563.383)" fill="#3f3d56"/>
    <path id="Path_2105" data-name="Path 2105" d="M745.47,828.74A5.226,5.226,0,0,0,748,829.848a45.459,45.459,0,0,0,6.285.777l2.054.159c1.985.152,4.009.3,6.021.314a41.483,41.483,0,0,0,7.4-.642.807.807,0,0,0,.589-.285,3.307,3.307,0,0,0,.46-.837,36.4,36.4,0,0,0-1.283-7.433c-.232-.992-2.028,1.244-2.111,1.323a2.047,2.047,0,0,1-1.631.867c-2.068.113-4.38-1.145-6.024-2.263a7.6,7.6,0,0,0-1.115-.691,3.383,3.383,0,0,0-.9-.258c.265,1.489,2.4,3.285,3.5,3.831,2.226,1.1,4.873.556,7.357.685a.993.993,0,0,1,.519.126,1.052,1.052,0,0,1,.308.976c-.02.592-.1,1.29-.612,1.591a1.781,1.781,0,0,1-.824.172,116.385,116.385,0,0,1-18.343-.662,9.984,9.984,0,0,1-2.977-.662,7.863,7.863,0,0,1-1.734-1.115C744.14,826.467,744.792,828.108,745.47,828.74Z" transform="translate(-509.839 -563.409)" fill="#e8eaf2"/>
    <path id="Path_2106" data-name="Path 2106" d="M756.884,372.163c.036.969-.629,2.855,1.188,2.316,1.085-.314,1.389-1.594,2.762-1.323s1.69,1.985,2.157,3.086a5.915,5.915,0,0,0,4.281,3.46,2.573,2.573,0,0,0,1.178,0,3.172,3.172,0,0,0,1.753-2.015,15.354,15.354,0,0,0,.777-2.21,9.385,9.385,0,0,0,.281-1.624h0a7.476,7.476,0,0,0,0-1.121,9.1,9.1,0,0,0-3.034-5.746,27.154,27.154,0,0,0-5.495-3.708,7.98,7.98,0,0,0-2.025-.9,6.729,6.729,0,0,0-2.14-.089,7.5,7.5,0,0,0-2.723.638,3.811,3.811,0,0,0-.959.662,2.881,2.881,0,0,0-.83,1.386c-.347,1.426.562,2.713,1.3,3.841A7.1,7.1,0,0,1,756.884,372.163Z" transform="translate(-516.135 -256.489)" fill="#3f3d56"/>
    <path id="Path_2107" data-name="Path 2107" d="M670.35,445.9c.387-.992,2.018-3.685,1.548-4.631a12.38,12.38,0,0,0-1.244,2.22C670.347,444.26,670.6,445.276,670.35,445.9Z" transform="translate(-460.171 -309.376)" opacity="0.1"/>
    <path id="Path_2108" data-name="Path 2108" d="M755.207,371.252c-.741-1.128-1.654-2.415-1.3-3.841a2.977,2.977,0,0,1,1.059-1.581,2.522,2.522,0,0,0-.268.662c-.351,1.429.562,2.713,1.3,3.841a6.824,6.824,0,0,1,1.522,3.308c.036.973-.629,2.858,1.191,2.316,1.082-.314,1.386-1.6,2.762-1.323s1.687,1.985,2.154,3.086a5.911,5.911,0,0,0,4.281,3.457,2.574,2.574,0,0,0,1.178,0,1.74,1.74,0,0,0,.556-.271,2.4,2.4,0,0,1-1.343,1.188,2.574,2.574,0,0,1-1.178,0,5.922,5.922,0,0,1-4.284-3.46c-.463-1.108-.768-2.8-2.154-3.086s-1.681.992-2.762,1.323c-1.819.526-1.154-1.36-1.191-2.316A6.7,6.7,0,0,0,755.207,371.252Z" transform="translate(-516.033 -258.892)" opacity="0.1"/>
    <path id="Path_2109" data-name="Path 2109" d="M755.636,366.95a8.387,8.387,0,0,0,.559.8,9.559,9.559,0,0,0,1.284,1.323c.278.241.566.466.867.681A13.85,13.85,0,0,0,760.1,370.8a31.948,31.948,0,0,0,5.624,2.011l3.751,1.092c.46.331,1.3.976,2.233,1.628a9.368,9.368,0,0,0,.281-1.624h0a7.444,7.444,0,0,0,0-1.121,9.1,9.1,0,0,0-3.033-5.746,27.153,27.153,0,0,0-5.495-3.708,7.981,7.981,0,0,0-2.025-.9,6.729,6.729,0,0,0-2.14-.089,7.5,7.5,0,0,0-2.723.638,3.808,3.808,0,0,0-.959.662,3.672,3.672,0,0,0-.48,1.016A2.882,2.882,0,0,0,755.636,366.95Z" transform="translate(-516.852 -256.522)" opacity="0.1"/>
    <path id="Path_2110" data-name="Path 2110" d="M755.639,362.6a8.349,8.349,0,0,0,.559.794,9.205,9.205,0,0,0,1.283,1.323,10.073,10.073,0,0,0,.864.688,14.277,14.277,0,0,0,1.753,1.049,32.493,32.493,0,0,0,5.624,2.011l3.751,1.088c1.323.992,5.69,4.238,6.424,3.831.87-.476-3.887-3.844-3.887-3.844l-.218.165a3.484,3.484,0,0,0,1.217-2.316,11.76,11.76,0,0,0,.04-4.757,5.622,5.622,0,0,0-2.729-3.755,6.53,6.53,0,0,1-1.849-1.042,1.269,1.269,0,0,1-.179-.242.849.849,0,0,1-.073-.129,1.7,1.7,0,0,0-.2-.387c-.261-.3-.734-.212-1.128-.162h-.126a1.571,1.571,0,0,1-.215,0c-1.409.033-2.775-.751-4.2-.751-1.565,0-2.895.9-4.271,1.518-.278.126-.543.241-.791.357a3.413,3.413,0,0,0-2.15,2.273A2.854,2.854,0,0,0,755.639,362.6Z" transform="translate(-516.855 -252.428)" fill="#c2f1c1"/>
    <path id="Path_2111" data-name="Path 2111" d="M789.616,358.44a.686.686,0,0,0-.086.331.662.662,0,0,0,.235.506,1.161,1.161,0,0,0,.592.208,4.283,4.283,0,0,0,.463.036,1.24,1.24,0,0,0,.609-.1.732.732,0,0,0,.106-.07,1.265,1.265,0,0,1-.179-.242c-.036.026-.073.02-.212,0a3.486,3.486,0,0,1-.761-.129.876.876,0,0,1-.285-.139.833.833,0,0,1-.268-.41Z" transform="translate(-539.926 -253.94)" opacity="0.1"/>
    <path id="Path_2112" data-name="Path 2112" d="M801.155,396.47a1.786,1.786,0,0,1-.662.241,2.606,2.606,0,0,1-.5.079,2.785,2.785,0,0,1-1.231-.331" transform="translate(-546.102 -279.39)" opacity="0.1"/>
    <rect id="Rectangle_743" data-name="Rectangle 743" width="17.113" height="8.396" transform="translate(66.585 112.806)" fill="#3f3d56" opacity="0.1"/>
    <rect id="Rectangle_744" data-name="Rectangle 744" width="17.113" height="8.396" transform="translate(66.585 136.376)" fill="#3f3d56" opacity="0.1"/>
    <rect id="Rectangle_745" data-name="Rectangle 745" width="17.113" height="8.396" transform="translate(66.585 159.946)" fill="#3f3d56" opacity="0.1"/>
    <rect id="Rectangle_746" data-name="Rectangle 746" width="17.113" height="8.396" transform="translate(66.585 183.516)" fill="#3f3d56" opacity="0.1"/>
    <path id="Path_2113" data-name="Path 2113" d="M249.871,393.843c.476-.3.288-1.118-.205-1.4a2.4,2.4,0,0,0-1.654-.079.662.662,0,0,0-.354-.711v-.122a.881.881,0,0,0-.192-1.254,2.527,2.527,0,0,0-1.542-.271,2.044,2.044,0,0,0-.662-1.743.546.546,0,0,0-.357-.172c-.308,0-.41.414-.433.721a14.245,14.245,0,0,1-.4,2.385l-10.027,16.8c-1.118,1.614,2.355-3.215,1.237-1.6a14.464,14.464,0,0,1-1.985,2.455,9.753,9.753,0,0,1-2.233,1.492,2.627,2.627,0,0,1-1.525-.43,6.17,6.17,0,0,1-1.465-1.452,28.655,28.655,0,0,1-2.365-3.516,4.413,4.413,0,0,1-.543-1.257,11.549,11.549,0,0,0-.278-2.1,3.264,3.264,0,0,0-.43-.685l-.691-.923a.163.163,0,0,1,0-.04c-.079-1.366-1.184-2.415-2.216-3.308a6.017,6.017,0,0,0-2.977-1.717c-.622-.079-1.257.04-1.879-.04-.506-.063-.992-.255-1.489-.331a6.543,6.543,0,0,0-1.462-.03l-.208-.189a5.809,5.809,0,0,0,2.613-2.2c.48-.774.738-1.654,1.181-2.458.539-.969,1.323-1.77,1.948-2.7a9.98,9.98,0,0,0,1.125-7.609,18.292,18.292,0,0,0-3.566-6.987c-3.1-4.009-8.3-5.5-13.2-4.711-.331.05-.662.112-.976.182a12.367,12.367,0,0,0-2.4.767,6.084,6.084,0,0,0-2.617,2.041,4.428,4.428,0,0,0-.456.847,4.843,4.843,0,0,0-.222.695,7.185,7.185,0,0,0-.119,2.183c.02.248.046.5.076.748a2.885,2.885,0,0,0,.046.374c.033.248.069.5.1.748.053.374.1.748.139,1.115a6.969,6.969,0,0,1,.04.787v.2a3.1,3.1,0,0,1-.086.579,2.976,2.976,0,0,1-.1.3,3.838,3.838,0,0,1-.457.84,11.246,11.246,0,0,1-.817.992l-.281.331-.278.331a11.543,11.543,0,0,0-1.009,1.366,6.493,6.493,0,0,0-.4.748,5.476,5.476,0,0,0-.225.6,4.334,4.334,0,0,0-.175.837c0,.073-.017.142-.02.215a3.609,3.609,0,0,0,0,.423,2.922,2.922,0,0,0,.046.417,3.2,3.2,0,0,0,.245.8c0,.036.036.073.053.106s.036.069.053.106.069.142.1.212a1.539,1.539,0,0,1,.106.331c0,.036,0,.076,0,.116a.757.757,0,0,1,0,.122,1.323,1.323,0,0,1-.476.824c-.063.06-.132.116-.2.172l-.1.083-.208.165-.2.162a3.973,3.973,0,0,0-.486.486,17.926,17.926,0,0,0-5.405.529A7.379,7.379,0,0,1,185,390.9a.966.966,0,0,1-.84-.354,1.27,1.27,0,0,1-.086-.771,6.653,6.653,0,0,0-.516-3.166,1.78,1.78,0,0,0-.519-.754.734.734,0,0,0-.857-.046,8.071,8.071,0,0,1-.222,5.386,17.766,17.766,0,0,1-1.244,2.336c-.738,1.254-1.151,2.689-1.806,3.99.734,2.484.572,5.137.956,7.7a35.577,35.577,0,0,0,2.028,6.947,11.171,11.171,0,0,0,2.686,4.694,2.465,2.465,0,0,0,1.654.721,2.92,2.92,0,0,0,1.3-.49,5.065,5.065,0,0,0,1.095-.807,2.5,2.5,0,0,0,.331-.43,1.621,1.621,0,0,0,.242.609c.787-1.7,1.654-3.358,2.58-4.982a4.272,4.272,0,0,0,.774-.529c.017.056.03.116.043.175-.04.155-.079.314-.122.47s-.089.3-.136.443-.066.218-.1.331-.086.258-.132.387l-.159.42c-.04.1-.076.2-.119.3-.1.242-.2.483-.314.721a2.175,2.175,0,0,0,.275.113l.063.02a2.373,2.373,0,0,0,.255.063h.093l.192.02h.3a3.039,3.039,0,0,0,.681-.119c.043.172.083.347.126.519a18.5,18.5,0,0,1,.622,3.543,27.8,27.8,0,0,0,.083,4.069c.136.691.4,1.356.5,2.058a8.552,8.552,0,0,1-.036,1.985l-.45,4.757a4.066,4.066,0,0,1-.407,1.677c-.225.387-.586.83-.361,1.214a7.888,7.888,0,0,1,1.135-.218c-.139.506-.265,1.012-.384,1.522a2.676,2.676,0,0,0-.089,1.174,7.452,7.452,0,0,1,.331,1.075,3.469,3.469,0,0,1-.569,1.631c-.569,1.376.036,2.928.638,4.3l1.78,4.039q.728,1.654,1.462,3.308c.433.992.87,1.985,1.287,2.977a96.431,96.431,0,0,1,4.658,13.963,1.635,1.635,0,0,0,.238.605c.248.331.695.427,1.059.629a1.974,1.974,0,0,1,.218,3.153c.208,2.428-1.611,4.774-2.547,7.023-2.157,5.171-1.766,11-2.508,16.54l.837-.49a1.1,1.1,0,0,1,.271.179c-.02.1-.04.205-.066.311a4.927,4.927,0,0,1-.539,1.343,7.2,7.2,0,0,0-1.343,2.547,15.562,15.562,0,0,0,.106,1.747v.162c-.073-.073-.185-.066-.357.066a2.124,2.124,0,0,0-.526.992c-.146.414-.261.837-.377,1.26l-.407,1.5a17.344,17.344,0,0,1-.873,2.627,11.044,11.044,0,0,0-.774,1.786,5.522,5.522,0,0,0-.136,1.532,4.658,4.658,0,0,0,.212,1.449,3.61,3.61,0,0,0,2.114,2.008,9.928,9.928,0,0,0,2.938.552,2.508,2.508,0,0,0,.771-.02,2.116,2.116,0,0,0,.751-.39,6.225,6.225,0,0,0,2.187-4.532,6.557,6.557,0,0,0-.185-1.029c.083-1.836-.185-3.682-.043-5.511.026.208.06.413.089.622q.165,1.025.331,2.054a.433.433,0,0,0-.112-.192,4.734,4.734,0,0,0-.119,2.355,13.786,13.786,0,0,0,.662,2.283l.44,1.227A2.2,2.2,0,0,0,208.061,514a16.644,16.644,0,0,0,3.705.632.849.849,0,0,0,.49-.089,2.805,2.805,0,0,0,.218-.185,2.018,2.018,0,0,1,.357-.208,2.335,2.335,0,0,0,1.135-1.343,2.127,2.127,0,0,0-.208-1.74,3.994,3.994,0,0,0-.5-.609l-2.206-2.339a12.671,12.671,0,0,0-1.082-1.145.4.4,0,0,0-.354-.119,11.367,11.367,0,0,1-.417-4.889c.03-.49.3-1.509.407-2.342a3.728,3.728,0,0,0,1.171-.632,1.793,1.793,0,0,0,.662-.992,170.419,170.419,0,0,1,4.6-16.749c.165-.546.331-1.095.493-1.654l.205-.7c.053-.192.112-.384.165-.576.093-.331.182-.645.268-.969.026-.086.05-.175.073-.261a.311.311,0,0,0,0-.053c.109-.4.212-.794.314-1.191l.119-.457c.129-.506.251-1.016.374-1.522.017-.069.033-.142.046-.215a.933.933,0,0,0-.036-.539h0a.887.887,0,0,0-.129-.185c-.033-.04-.073-.083-.112-.122l-.122-.136a1.221,1.221,0,0,1-.225-.423v-.463c0-.152-.02-.331-.03-.493a5.023,5.023,0,0,1,.146-.642c.036-.126.079-.251.119-.377s.1-.331.149-.47a1.174,1.174,0,0,0,.294-.8c.2-.5.417-.992.662-1.469a4.469,4.469,0,0,0,.592-1.588,6.347,6.347,0,0,0-.192-1.508c-.331-2.1.642-4.145,1.363-6.14a27.26,27.26,0,0,0,1.2-4.506,9.547,9.547,0,0,1,.992-3.437,5.154,5.154,0,0,0,.529-.913,3.669,3.669,0,0,0,.142-1.042,11.426,11.426,0,0,1,1.016-4.125,2.428,2.428,0,0,0,.265-.8.329.329,0,0,0,0-.056v-.079l.165-.023a21.94,21.94,0,0,0,.37-5.554,8.492,8.492,0,0,0-2.838-5.362h.033a1.743,1.743,0,0,0,.81-1.575,3.063,3.063,0,0,0-1.141-2.4,1.167,1.167,0,0,1-.387-.4,1.207,1.207,0,0,1-.046-.523,2.666,2.666,0,0,0-1.654-2.468.609.609,0,0,1-.268-.155.662.662,0,0,1-.066-.47,2.888,2.888,0,0,0-1.393-2.646,4.535,4.535,0,0,0,.06-2.094,1.563,1.563,0,0,0-1.532-1.191c.569-1.551-.238-3.278-.023-4.916.093-.7.374-1.376.41-2.084a4.291,4.291,0,0,1,.185-1.9c.314-.576,1.055-.992.863-1.6-.083-.265-.331-.443-.437-.7s.331-.662.572-.5c.109-.083.218-.172.331-.261a5.411,5.411,0,0,0,.2.969c.155.529.4,1.029.562,1.555a12.882,12.882,0,0,0,.734,2.412c.662,1.178,2.008,1.76,2.934,2.739.543.572.93,1.277,1.489,1.836a8.242,8.242,0,0,0,1.389,1.042L229.011,419a3.374,3.374,0,0,0,1.019.506,1.74,1.74,0,0,0,2.051-1.475,1.951,1.951,0,0,1-.734-.453.272.272,0,0,0,.126-.02,4.711,4.711,0,0,0,1.919-1.019,25.993,25.993,0,0,0,5.141-6.269c1.561-2.379,9.084-8.674,9.084-8.674V399.04a9.213,9.213,0,0,0,2.5-2.13,2.762,2.762,0,0,0,.629-1.631,1.436,1.436,0,0,0-.877-1.436Zm-62.542,6.117q-.218,1.389-.533,2.766a26.885,26.885,0,0,1-.89,3.123c-.04.106-.079.215-.116.331-.109-.2-.215-.4-.311-.6-.245-.506-.44-1.035-.635-1.561l-1.244-3.358a1.549,1.549,0,0,1-.083-1.34,1.5,1.5,0,0,1,.711-.533,14.192,14.192,0,0,1,2.729-.926,8,8,0,0,0,.88-.232,13.127,13.127,0,0,0-.509,2.329Zm1.376-4.188a.506.506,0,0,1,0-.486,1.074,1.074,0,0,1,.331-.225.662.662,0,0,0,.093-.066Zm2.58-3.639a6.427,6.427,0,0,0-.992,1.019,10.445,10.445,0,0,0-.853,1.323.959.959,0,0,0-.354-.976,2.014,2.014,0,0,1-.331-.218.678.678,0,0,1,.136-.949,1.985,1.985,0,0,1,.992-.331l1.485-.218c-.02.1-.05.218-.083.334Zm13.94,108.038a5.428,5.428,0,0,0-.086-1.323c.185,0,.367,0,.549-.017Z" transform="translate(-131.303 -259.981)" fill="url(#linear-gradient-2)"/>
    <path id="Path_2114" data-name="Path 2114" d="M221.411,370.519c-2.584.414-5.458,1.409-6.447,3.831-.744,1.829-.169,3.89.023,5.859a4.479,4.479,0,0,1-.056,1.558,5.461,5.461,0,0,1-1.366,2.144,11.4,11.4,0,0,0-1.968,2.756,4.041,4.041,0,0,0-.132,3.308,2.432,2.432,0,0,1,.331.867c.03.662-.662,1.1-1.191,1.528-1.939,1.6-1.856,4.529-1.872,7.049A35.648,35.648,0,0,1,205.36,414.3a4.552,4.552,0,0,0,5.094-.662,17.014,17.014,0,0,1-1.158,3.335c1.654.794,3.619-.509,4.443-2.137s.92-3.52,1.505-5.247,1.624-3.229,2.068-4.962a4.573,4.573,0,0,1,.589-1.654,4.334,4.334,0,0,1,1.032-.88,10.07,10.07,0,0,0,3.639-4.962,20.157,20.157,0,0,0,6.107.7,6.779,6.779,0,0,0,5.22-2.865c.48-.774.738-1.654,1.181-2.455.539-.969,1.323-1.77,1.948-2.7a9.973,9.973,0,0,0,1.121-7.609,18.257,18.257,0,0,0-3.563-6.98C231.5,371.221,226.3,369.732,221.411,370.519Z" transform="translate(-149.003 -261.895)" fill="#303d5c"/>
    <path id="Path_2115" data-name="Path 2115" d="M201.141,459.956q-.218,1.389-.529,2.759a26.647,26.647,0,0,1-.89,3.12,2.977,2.977,0,0,0-.281,1.436,2.58,2.58,0,0,0,.347.853c1.178,2.094,2.769,4.119,2.9,6.52a3.441,3.441,0,0,0,.331,1.74q1.369-2.938,3.017-5.733c1.148-1.952,2.428-3.92,2.759-6.16a11.665,11.665,0,0,0-.043-3.166A6.857,6.857,0,0,0,207.622,458c-.781-1.022-2.921-2.56-4.3-2.243C201.684,456.138,201.346,458.642,201.141,459.956Z" transform="translate(-145.039 -319.041)" fill="#c2f1c1"/>
    <path id="Path_2116" data-name="Path 2116" d="M330.3,455.867a10.794,10.794,0,0,0,6.328-4.879l3.639-5.25a9.474,9.474,0,0,0,1.932-4.056,13.361,13.361,0,0,0,3.639-8.244c.026-.308.129-.711.437-.718a.549.549,0,0,1,.357.169,2.044,2.044,0,0,1,.662,1.743,2.412,2.412,0,0,1,1.538.268c.43.308.546,1.078.083,1.323a.662.662,0,0,1,.463.751,2.4,2.4,0,0,1,1.654.076c.49.278.681,1.092.205,1.4a1.439,1.439,0,0,1,.92,1.379,2.755,2.755,0,0,1-.628,1.628c-1.393,1.869-3.857,2.627-5.472,4.3a13,13,0,0,0-1.426,1.905l-4.684,7.126a25.656,25.656,0,0,1-5.141,6.262,4.717,4.717,0,0,1-1.915,1.019,2.124,2.124,0,0,1-2.011-.559,3.3,3.3,0,0,1-.586-2C330.168,458.315,330.376,457.074,330.3,455.867Z" transform="translate(-232.579 -303.655)" fill="#ee8e9e"/>
    <path id="Path_2117" data-name="Path 2117" d="M265.923,793.809a4.017,4.017,0,0,1,.5.609,2.12,2.12,0,0,1,.212,1.737A2.359,2.359,0,0,1,265.5,797.5a2,2,0,0,0-.357.205,2.819,2.819,0,0,1-.218.185.881.881,0,0,1-.49.093,17.031,17.031,0,0,1-3.705-.632,2.973,2.973,0,0,1-1.528-.718,2.938,2.938,0,0,1-.523-1.016l-.44-1.224a14.175,14.175,0,0,1-.662-2.279,4.717,4.717,0,0,1,.119-2.352.708.708,0,0,1,.162.48,5.328,5.328,0,0,0,.943,2.283,1.829,1.829,0,0,0,1.469.923,13.708,13.708,0,0,0,2.349.3.7.7,0,0,0,.331-.04.572.572,0,0,0,.268-.331,1.426,1.426,0,0,0,0-.966c-.208-.6-.794-.992-1.075-1.555-.205-.42.083-.88.506-.526a13.083,13.083,0,0,1,1.082,1.141Z" transform="translate(-183.882 -542.583)" fill="#303d5c"/>
    <path id="Path_2118" data-name="Path 2118" d="M261.5,767.325c-.126,1.985-.215,4.1.867,5.756.387.6.906,1.095,1.35,1.654a1.965,1.965,0,0,1,.483.992,1.529,1.529,0,0,1-1.323,1.475,4.457,4.457,0,0,1-2.134-.308,3.907,3.907,0,0,1-3.186-4.185l-.44-2.822a8.953,8.953,0,0,1-.159-2.054,9.093,9.093,0,0,1,.552-2.22l.724-2.12a.992.992,0,0,1,.331-.526.919.919,0,0,1,.549-.1c.695.036,2.438.288,2.775,1.022C262.167,764.53,261.548,766.564,261.5,767.325Z" transform="translate(-183.527 -524.581)" fill="#ee8e9e"/>
    <path id="Path_2119" data-name="Path 2119" d="M261.5,767.325c-.126,1.985-.215,4.1.867,5.756.387.6.906,1.095,1.35,1.654a1.965,1.965,0,0,1,.483.992,1.529,1.529,0,0,1-1.323,1.475,4.457,4.457,0,0,1-2.134-.308,3.907,3.907,0,0,1-3.186-4.185l-.44-2.822a8.953,8.953,0,0,1-.159-2.054,9.093,9.093,0,0,1,.552-2.22l.724-2.12a.992.992,0,0,1,.331-.526.919.919,0,0,1,.549-.1c.695.036,2.438.288,2.775,1.022C262.167,764.53,261.548,766.564,261.5,767.325Z" transform="translate(-183.527 -524.581)" opacity="0.05"/>
    <path id="Path_2120" data-name="Path 2120" d="M278.731,589.669a.333.333,0,0,1,0,.056,2.479,2.479,0,0,1-.265.8,11.459,11.459,0,0,0-1.016,4.119,3.638,3.638,0,0,1-.142,1.039,5.156,5.156,0,0,1-.529.913,9.82,9.82,0,0,0-.992,3.434,26.8,26.8,0,0,1-1.2,4.5c-.718,1.985-1.687,4.039-1.36,6.133a6.284,6.284,0,0,1,.192,1.505,4.469,4.469,0,0,1-.592,1.588c-.245.476-.463.966-.662,1.465s-.4,1.088-.562,1.654a2.2,2.2,0,0,0,.122,2.018,2.587,2.587,0,0,1,.364.447,1.177,1.177,0,0,1,0,.761q-.38,1.614-.82,3.215c-.225.84-.463,1.674-.711,2.507-1.813,6.094-3.867,12.124-5.088,18.366-.175.9-1.323,1.542-2.22,1.737a2.918,2.918,0,0,1-2.551-.681l-.175-.175a5.3,5.3,0,0,1-.992-3.95c.331-6.421,3.55-12.3,5.088-18.542a35.519,35.519,0,0,0,.992-6.884c.361-7.754.5-15.945-1.687-23.391-.457-1.548-.992-3.308-.179-4.687a4.7,4.7,0,0,1,2.425-1.773,15.6,15.6,0,0,1,12.1.308,4.357,4.357,0,0,1-.017.466,4.74,4.74,0,0,0,.241,2.137A2.667,2.667,0,0,1,278.731,589.669Z" transform="translate(-185.241 -405.405)" fill="#303d5c"/>
    <path id="Path_2121" data-name="Path 2121" d="M232.921,777.577l-.407,1.492a17.215,17.215,0,0,1-.873,2.627,11.178,11.178,0,0,0-.774,1.783,5.508,5.508,0,0,0-.132,1.528,4.562,4.562,0,0,0,.212,1.449,3.6,3.6,0,0,0,2.111,2,9.926,9.926,0,0,0,2.938.552,2.5,2.5,0,0,0,.771-.02,2.13,2.13,0,0,0,.748-.39,6.216,6.216,0,0,0,2.187-4.525,5.623,5.623,0,0,0-.232-1.154c-.106-.142-1.135.44-.695.923.662.721-1.257.347-2.226.288a8.974,8.974,0,0,1-1.257-.208l-1.571-.331c-.513-.112-1.1-.288-1.287-.781s.215-1.078.526-1.555a10.185,10.185,0,0,0,1.221-4.32c.036-.294.4-2.2-.354-1.608a2.123,2.123,0,0,0-.526.992C233.152,776.733,233.037,777.157,232.921,777.577Z" transform="translate(-165.978 -532.852)" fill="#303d5c"/>
    <path id="Path_2122" data-name="Path 2122" d="M271.723,678.073a2.23,2.23,0,0,1-.122-2.018c.073-.251.152-.5.235-.751l-6.163-2.084c-.023.552-.046,1.1-.073,1.654a35.585,35.585,0,0,1-.992,6.887c-1.538,6.239-4.774,12.117-5.088,18.525-.073,1.479.086,3.129,1.178,4.125a2.914,2.914,0,0,0,2.551.681c.893-.2,2.044-.84,2.22-1.74,1.221-6.239,3.272-12.27,5.088-18.366q.85-2.838,1.532-5.723a1.168,1.168,0,0,0,0-.758A2.313,2.313,0,0,0,271.723,678.073Z" transform="translate(-185.236 -464.596)" opacity="0.05"/>
    <path id="Path_2123" data-name="Path 2123" d="M237.389,756.7a7.157,7.157,0,0,0-1.343,2.544,15.449,15.449,0,0,0,.106,1.743,5.522,5.522,0,0,1-.255,1.422q-.9,3.252-2.074,6.414a1.747,1.747,0,0,0-.162.87,1.515,1.515,0,0,0,1.019,1.016,10.771,10.771,0,0,0,4.714.519,2.47,2.47,0,0,0,1.323-.308,2.312,2.312,0,0,0,.748-1.856c.109-1.985-.228-4.009,0-6,.079-.724.232-1.439.347-2.16a6.341,6.341,0,0,0-.093-3.01,7.034,7.034,0,0,0-1.128-1.9,5.916,5.916,0,0,0-1.568-1.561c-.185-.112-.721-.453-.91-.238-.1.109-.053.4-.069.536a4.99,4.99,0,0,1-.109.622A5.076,5.076,0,0,1,237.389,756.7Z" transform="translate(-167.939 -518.74)" fill="#ee8e9e"/>
    <path id="Path_2124" data-name="Path 2124" d="M266.494,592.1a1.691,1.691,0,0,0-.112,1.4c.205.854.546,1.654.824,2.5a34.568,34.568,0,0,1,1.059,4.545c.261,1.389.807,2.938.582,4.334a30.977,30.977,0,0,1,3.275,10.255c.126.92-1.919,2.111-1.879,3.04.076,1.843,1.548,1.985.46,3.467-.053.073.407,1.72.331,1.793-.443.533-.992.956-1.479,1.456A11.2,11.2,0,0,0,268,627.175c-2.812,5.071-6.871,10.827-5.624,16.491a.993.993,0,0,1-.536,1.019,2.685,2.685,0,0,1-1.188.275h-.2a5.3,5.3,0,0,1-.992-3.95c.331-6.421,3.55-12.3,5.088-18.542a35.52,35.52,0,0,0,.992-6.884c.361-7.754.5-15.945-1.687-23.391-.457-1.548-.992-3.308-.179-4.687a4.7,4.7,0,0,1,2.425-1.773,15.6,15.6,0,0,1,12.1.308,4.366,4.366,0,0,1-.017.466,4.74,4.74,0,0,0,.241,2.137,2.666,2.666,0,0,1,.241.93c0,.02.112-1.247.109-1.231-2.517.364-5.144,2.011-7.661,2.372a17.607,17.607,0,0,0-3.844.847A1.724,1.724,0,0,0,266.494,592.1Z" transform="translate(-185.194 -405.332)" opacity="0.05"/>
    <path id="Path_2125" data-name="Path 2125" d="M225.14,560.885q-.513,1.614-.893,3.262a2.709,2.709,0,0,0-.093,1.171,6.708,6.708,0,0,1,.331,1.075,3.464,3.464,0,0,1-.566,1.631c-.569,1.373.036,2.921.635,4.281l1.78,4.039,1.462,3.308c.433.992.87,1.968,1.287,2.961a96.175,96.175,0,0,1,4.654,13.944,1.684,1.684,0,0,0,.238.609c.248.331.695.423,1.059.625a1.972,1.972,0,0,1,.218,3.149c.208,2.425-1.611,4.767-2.547,7.013-2.154,5.164-1.763,10.983-2.5,16.54l.837-.486c.8.367.774,1.505,1.207,2.276.662,1.158,2.233,1.323,3.559,1.234a2.709,2.709,0,0,0,1.188-.275.992.992,0,0,0,.536-1.019c-1.25-5.663,2.809-11.416,5.624-16.494a11.007,11.007,0,0,1,1.558-2.283c.476-.5,1.035-.926,1.479-1.456,1.241-1.489,1.4-3.589,1.323-5.524a30.947,30.947,0,0,0-3.52-13.047c.222-1.4-.331-2.941-.582-4.33a34.285,34.285,0,0,0-1.055-4.532c-.278-.837-.619-1.654-.824-2.5a1.334,1.334,0,0,1,.906-1.915,17.7,17.7,0,0,1,3.851-.873l8.654-1.244a21.889,21.889,0,0,0,.37-5.548,8.535,8.535,0,0,0-6.1-7.139,1.3,1.3,0,0,0-1.131.073A45.049,45.049,0,0,0,225.14,560.885Z" transform="translate(-161.271 -387.869)" fill="#303d5c"/>
    <path id="Path_2126" data-name="Path 2126" d="M239.236,415.656a4.261,4.261,0,0,1-.38,2.478,3.9,3.9,0,0,1-.992,1.088,7.413,7.413,0,0,1-2.852,1.419,3.029,3.029,0,0,0-1.707.744c-.609.734-.2,1.843.331,2.646a6.913,6.913,0,0,0,3.741,3.093c1.277.347,2.646.132,3.943.361.946.162,1.836.552,2.769.777a8.181,8.181,0,0,0,7.513-2.1,10.722,10.722,0,0,1-3.543-3.791,5.379,5.379,0,0,1-.271-3.639c.331-1.184,1.082-2.335.85-3.54a3.683,3.683,0,0,0-2.6-2.445,16.744,16.744,0,0,0-3.258-.662c-.612-.083-4.486-.939-4.727-.516-.136.238.662,1.654.767,1.965A7.41,7.41,0,0,1,239.236,415.656Z" transform="translate(-167.5 -289.425)" fill="#ee8e9e"/>
    <circle id="Ellipse_108" data-name="Ellipse 108" cx="7.86" cy="7.86" r="7.86" transform="translate(68.749 113.335)" fill="#ee8e9e"/>
    <path id="Path_2127" data-name="Path 2127" d="M222.152,442.829l5.329.9a20.182,20.182,0,0,0,3.97.4,11.052,11.052,0,0,1,2.193,0c.5.083.992.275,1.492.331.622.079,1.254-.04,1.876.04a5.924,5.924,0,0,1,2.977,1.714c1.029.9,2.137,1.948,2.213,3.308a.926.926,0,0,1-.063.457,1.339,1.339,0,0,1-.394.413,12.4,12.4,0,0,0-2.226,3.063,11.887,11.887,0,0,1-2.646,2.855c-.232-.149-.662.245-.572.5s.354.437.437.7c.189.6-.556,1.045-.863,1.6a4.349,4.349,0,0,0-.185,1.9c-.036.7-.331,1.379-.41,2.081-.215,1.637.592,3.361.023,4.909a1.554,1.554,0,0,1,1.532,1.191,4.479,4.479,0,0,1-.063,2.091,2.878,2.878,0,0,1,1.393,2.63.632.632,0,0,0,.069.47.662.662,0,0,0,.268.155A2.646,2.646,0,0,1,240.155,477a1.187,1.187,0,0,0,.05.519,1.164,1.164,0,0,0,.384.4,3.063,3.063,0,0,1,1.145,2.4,1.732,1.732,0,0,1-.814,1.575,14.419,14.419,0,0,1-3.579,1.065,30.713,30.713,0,0,1-3.464.612,31.181,31.181,0,0,1-3.242.1l-7.132-.03c-1.985,0-4.009,0-6.007-.149a16.962,16.962,0,0,0-5.581.129c-.225-.38.136-.827.361-1.211a4.079,4.079,0,0,0,.407-1.677l.45-4.75a8.737,8.737,0,0,0,.033-1.985c-.1-.7-.361-1.36-.5-2.054a27.67,27.67,0,0,1-.083-4.062,19.034,19.034,0,0,0-.622-3.54l-1.389-5.8a20.756,20.756,0,0,0-.695-2.914q-1.634-4.188-3.417-8.307a.877.877,0,0,1,.063-.738l1.178-2.111a13.4,13.4,0,0,1,1.078-1.72,6.775,6.775,0,0,1,3.97-2.441,7.01,7.01,0,0,1,4.631.685c.549.294,1.059.662,1.618.936A6.528,6.528,0,0,0,222.152,442.829Z" transform="translate(-149.705 -308.643)" fill="#c2f1c1"/>
    <path id="Path_2128" data-name="Path 2128" d="M303.362,463.85l1.859,2.474a3.446,3.446,0,0,1,.43.685,11.377,11.377,0,0,1,.278,2.1,4.433,4.433,0,0,0,.543,1.254,28.472,28.472,0,0,0,2.362,3.513,6.107,6.107,0,0,0,1.469,1.449,2.408,2.408,0,0,0,1.985.351,1.227,1.227,0,0,0-.662.589,7.182,7.182,0,0,0-.46,4.6,4.807,4.807,0,0,0,.516,1.505,2.253,2.253,0,0,0,1.184,1.022,1.743,1.743,0,0,1-2.051,1.472,3.453,3.453,0,0,1-1.019-.506l-2.977-1.929a8.582,8.582,0,0,1-1.386-1.042c-.556-.556-.946-1.26-1.489-1.833-.923-.992-2.279-1.561-2.934-2.736a12.629,12.629,0,0,1-.731-2.412c-.165-.526-.407-1.022-.566-1.551a6.954,6.954,0,0,1,.612-4.962A20.288,20.288,0,0,1,303.362,463.85Z" transform="translate(-211.993 -324.487)" fill="#c2f1c1"/>
    <path id="Path_2129" data-name="Path 2129" d="M233.376,378.976a10.348,10.348,0,0,0-2.766-2.875,9.425,9.425,0,0,0-4.985-2.111,5.389,5.389,0,0,0-2.246.367c-.033-2.22-.586-3.7-1.968-3.473-2.584.414-5.458,1.409-6.447,3.831-.744,1.829-.169,3.89.023,5.859a4.479,4.479,0,0,1-.056,1.558,5.462,5.462,0,0,1-1.366,2.144,11.4,11.4,0,0,0-1.968,2.756,4.041,4.041,0,0,0-.132,3.308,2.432,2.432,0,0,1,.331.867c.03.662-.662,1.1-1.191,1.528-1.939,1.6-1.856,4.529-1.872,7.049a35.648,35.648,0,0,1-3.371,14.886,4.552,4.552,0,0,0,5.094-.662,17.011,17.011,0,0,1-1.158,3.335c1.654.794,3.619-.509,4.443-2.137s.92-3.52,1.505-5.247,1.624-3.229,2.068-4.962a4.574,4.574,0,0,1,.589-1.654,4.332,4.332,0,0,1,1.032-.88c1.694-1.214-.8-10.414-.136-12.392.992.218,2.792-4.529,3.821-9.355a4.889,4.889,0,0,0,2.236.222,2.853,2.853,0,0,1,.8-.056,2.13,2.13,0,0,1,.7.285,17.188,17.188,0,0,0,2.379,1.224,13.462,13.462,0,0,0,5.4.46A5.369,5.369,0,0,0,233.376,378.976Z" transform="translate(-149.003 -262.26)" fill="#303d5c"/>
    <g id="Group_2" data-name="Group 2" transform="translate(56.363 108.601)" opacity="0.1">
      <path id="Path_2130" data-name="Path 2130" d="M206.3,414.668a35.7,35.7,0,0,0,3.371-14.886c0-2.521-.069-5.445,1.872-7.049.516-.43,1.221-.857,1.188-1.528a2.362,2.362,0,0,0-.331-.867,4.057,4.057,0,0,1,.129-3.308,11.488,11.488,0,0,1,1.968-2.756,5.542,5.542,0,0,0,1.37-2.144,4.563,4.563,0,0,0,.056-1.558c-.192-1.985-.771-4.029-.023-5.859.956-2.345,3.679-3.351,6.2-3.788a1.323,1.323,0,0,0-.662-.043c-2.584.414-5.458,1.409-6.447,3.831-.744,1.829-.169,3.89.023,5.859a4.479,4.479,0,0,1-.056,1.558,5.461,5.461,0,0,1-1.366,2.144,11.4,11.4,0,0,0-1.968,2.756,4.041,4.041,0,0,0-.132,3.308,2.432,2.432,0,0,1,.331.867c.03.662-.662,1.1-1.191,1.528-1.939,1.6-1.856,4.529-1.872,7.049a35.648,35.648,0,0,1-3.371,14.886,4.406,4.406,0,0,0,2.5.466A4.277,4.277,0,0,1,206.3,414.668Z" transform="translate(-205.38 -370.859)"/>
      <path id="Path_2131" data-name="Path 2131" d="M218.176,504.6a17,17,0,0,0,1.155-3.335,4.191,4.191,0,0,1-1.118.741,16.836,16.836,0,0,1-.963,2.594,2.449,2.449,0,0,0,1.518.2,2.437,2.437,0,0,1-.592-.2Z" transform="translate(-213.323 -458.129)"/>
      <path id="Path_2132" data-name="Path 2132" d="M262.621,380.673a5.292,5.292,0,0,1,1.5-.351l-.175-.017a5.291,5.291,0,0,0-1.323.1C262.615,380.495,262.621,380.581,262.621,380.673Z" transform="translate(-243.683 -377.177)"/>
      <path id="Path_2133" data-name="Path 2133" d="M271.091,402.56a17.411,17.411,0,0,1-2.382-1.224,2.074,2.074,0,0,0-.7-.284,2.486,2.486,0,0,0-.731.046,2.71,2.71,0,0,1,.506.238,17.177,17.177,0,0,0,2.378,1.224,10.712,10.712,0,0,0,3.986.516A9.388,9.388,0,0,1,271.091,402.56Z" transform="translate(-246.803 -391.058)"/>
      <path id="Path_2134" data-name="Path 2134" d="M260.226,400.57c-.017.069-.033.139-.046.212a4.756,4.756,0,0,0,1.168.03,5.02,5.02,0,0,1-1.121-.241Z" transform="translate(-242.052 -390.741)"/>
    </g>
    <path id="Path_2135" data-name="Path 2135" d="M189.653,453.588a2.862,2.862,0,0,1-.771,2.3,5.022,5.022,0,0,1-1.1.8,2.882,2.882,0,0,1-1.3.49,2.448,2.448,0,0,1-1.654-.721,11.085,11.085,0,0,1-2.683-4.688,35.126,35.126,0,0,1-2.028-6.927c-.384-2.557-.222-5.207-.953-7.688.662-1.3,1.065-2.732,1.8-3.986a18.131,18.131,0,0,0,1.244-2.332,8.022,8.022,0,0,0,.205-5.376.728.728,0,0,1,.86.046,1.75,1.75,0,0,1,.519.751,6.666,6.666,0,0,1,.513,3.159,1.277,1.277,0,0,0,.093.774.992.992,0,0,0,.84.354,7.384,7.384,0,0,0,1.939-.354,18.094,18.094,0,0,1,5.978-.493,2.86,2.86,0,0,1,1.164.285,1.088,1.088,0,0,1,.6.976l-4.78.7a1.959,1.959,0,0,0-.992.331.662.662,0,0,0-.139.946,2.219,2.219,0,0,0,.331.222.992.992,0,0,1-.04,1.571.992.992,0,0,0-.331.225c-.2.261.066.609.146.926a1.165,1.165,0,0,1-.572,1.191,4.042,4.042,0,0,1-1.323.447,14.049,14.049,0,0,0-2.729.93,1.475,1.475,0,0,0-.711.529,1.6,1.6,0,0,0,.083,1.34l1.244,3.354c.2.526.39,1.052.635,1.555.331.662.708,1.277,1.032,1.929a20.227,20.227,0,0,1,.777,1.879C188.188,450.75,189.442,451.775,189.653,453.588Z" transform="translate(-131.477 -298.717)" fill="#ee8e9e"/>
    <path id="Path_2136" data-name="Path 2136" d="M376.8,440.735a1.485,1.485,0,0,0-.546.8.331.331,0,0,0,.126.357.364.364,0,0,0,.222,0,2.1,2.1,0,0,0,.959-.457.993.993,0,0,0-.288.232.331.331,0,0,0-.036.351.453.453,0,0,0,.314.165,3.066,3.066,0,0,0,1.386-.066,1.856,1.856,0,0,0-.579.331.767.767,0,0,0-.258.6.284.284,0,0,0,.1.225.417.417,0,0,0,.152.053,3.734,3.734,0,0,0,1.287,0,.662.662,0,0,0,.543-.331.81.81,0,0,0-.126-.622,3.451,3.451,0,0,1-.331-1.575.638.638,0,0,0-.046-.331.579.579,0,0,0-.288-.208,2.408,2.408,0,0,0-1.581-.314,3.264,3.264,0,0,0-1.012.8Z" transform="translate(-263.357 -308.451)" fill="#ee8e9e"/>
    <path id="Path_2137" data-name="Path 2137" d="M377.3,410.4l-15.786,8.541a.331.331,0,0,0,.023.589l2.693,1.016a.632.632,0,0,1,.354.331l2.094,4.3c.04.192.39.241.394.05l-.331-3.563a1.274,1.274,0,0,1,.288-.718l8.184-8.019a.192.192,0,0,1,.179-.053.189.189,0,0,1,.1.3l-7.043,8.651a1.575,1.575,0,0,0-.278.711l-.42,3.077c.033.268.245.37.414.129l1.522-1.783a.331.331,0,0,1,.443-.076l3.92,2.855a.331.331,0,0,0,.5-.2l3.222-15.786a.331.331,0,0,0-.463-.357Z" transform="translate(-253.39 -288.698)" fill="#c2f1c1"/>
    <ellipse id="Ellipse_109" data-name="Ellipse 109" cx="19.673" cy="3.784" rx="19.673" ry="3.784" transform="translate(283.704 261.987)" fill="#c2f1c1"/>
    <ellipse id="Ellipse_110" data-name="Ellipse 110" cx="2.289" cy="2.997" rx="2.289" ry="2.997" transform="translate(300.76 261.166)" fill="#3f3d56"/>
    <ellipse id="Ellipse_111" data-name="Ellipse 111" cx="2.289" cy="2.997" rx="2.289" ry="2.997" transform="translate(300.76 257.504)" fill="#3f3d56"/>
    <ellipse id="Ellipse_112" data-name="Ellipse 112" cx="2.289" cy="2.997" rx="2.289" ry="2.997" transform="translate(300.76 253.839)" fill="#3f3d56"/>
    <ellipse id="Ellipse_113" data-name="Ellipse 113" cx="2.289" cy="2.997" rx="2.289" ry="2.997" transform="translate(300.76 250.174)" fill="#3f3d56"/>
    <ellipse id="Ellipse_114" data-name="Ellipse 114" cx="2.289" cy="2.997" rx="2.289" ry="2.997" transform="translate(300.76 246.508)" fill="#3f3d56"/>
    <ellipse id="Ellipse_115" data-name="Ellipse 115" cx="2.289" cy="2.997" rx="2.289" ry="2.997" transform="translate(300.76 242.846)" fill="#3f3d56"/>
    <ellipse id="Ellipse_116" data-name="Ellipse 116" cx="2.289" cy="2.997" rx="2.289" ry="2.997" transform="translate(300.76 239.181)" fill="#3f3d56"/>
    <path id="Path_2138" data-name="Path 2138" d="M937.34,662.891a11.608,11.608,0,0,0,.854-1.254l-6.021-.992,6.51.05a11.006,11.006,0,0,0,.208-8.694l-8.73,4.529,8.052-5.918a10.973,10.973,0,1,0-18.122,12.276,11.333,11.333,0,0,0-1.25,1.985l7.814,4.059-8.33-2.8a10.98,10.98,0,0,0,1.766,10.3,10.97,10.97,0,1,0,17.248,0,10.983,10.983,0,0,0,0-13.563Z" transform="translate(-625.72 -445.791)" fill="#c2f1c1"/>
    <path id="Path_2139" data-name="Path 2139" d="M917.78,719.023a10.917,10.917,0,0,0,2.345,6.782,10.97,10.97,0,1,0,17.248,0C938.842,723.939,917.78,717.793,917.78,719.023Z" transform="translate(-625.749 -495.139)" opacity="0.1"/>
    <ellipse id="Ellipse_117" data-name="Ellipse 117" cx="11.231" cy="2.16" rx="11.231" ry="2.16" transform="translate(107.215 253.482)" fill="#c2f1c1"/>
    <ellipse id="Ellipse_118" data-name="Ellipse 118" cx="1.307" cy="1.71" rx="1.307" ry="1.71" transform="translate(117.328 253.012)" fill="#3f3d56"/>
    <ellipse id="Ellipse_119" data-name="Ellipse 119" cx="1.307" cy="1.71" rx="1.307" ry="1.71" transform="translate(117.328 250.921)" fill="#3f3d56"/>
    <ellipse id="Ellipse_120" data-name="Ellipse 120" cx="1.307" cy="1.71" rx="1.307" ry="1.71" transform="translate(117.328 248.827)" fill="#3f3d56"/>
    <ellipse id="Ellipse_121" data-name="Ellipse 121" cx="1.307" cy="1.71" rx="1.307" ry="1.71" transform="translate(117.328 246.737)" fill="#3f3d56"/>
    <ellipse id="Ellipse_122" data-name="Ellipse 122" cx="1.307" cy="1.71" rx="1.307" ry="1.71" transform="translate(117.328 244.643)" fill="#3f3d56"/>
    <ellipse id="Ellipse_123" data-name="Ellipse 123" cx="1.307" cy="1.71" rx="1.307" ry="1.71" transform="translate(117.328 242.552)" fill="#3f3d56"/>
    <ellipse id="Ellipse_124" data-name="Ellipse 124" cx="1.307" cy="1.71" rx="1.307" ry="1.71" transform="translate(117.328 240.461)" fill="#3f3d56"/>
    <path id="Path_2140" data-name="Path 2140" d="M376.11,710.8a6.214,6.214,0,0,1-.486-.718l3.434-.562-3.715.026a6.285,6.285,0,0,1-.119-4.962l4.985,2.587-4.6-3.381a6.265,6.265,0,1,1,10.344,7.01,6.067,6.067,0,0,1,.715,1.141l-4.459,2.316,4.757-1.588a6.316,6.316,0,0,1,.331,2.011,6.226,6.226,0,0,1-1.343,3.87,6.262,6.262,0,1,1-9.845,0,6.266,6.266,0,0,1,0-7.744Z" transform="translate(-262.371 -482.944)" fill="#c2f1c1"/>
    <path id="Path_2141" data-name="Path 2141" d="M387.3,742.872a6.226,6.226,0,0,1-1.343,3.87,6.262,6.262,0,1,1-9.845,0C375.269,745.678,387.3,742.168,387.3,742.872Z" transform="translate(-262.371 -511.145)" opacity="0.1"/>
    <ellipse id="Ellipse_125" data-name="Ellipse 125" cx="7.552" cy="1.452" rx="7.552" ry="1.452" transform="translate(27.239 236.816)" fill="#c2f1c1"/>
    <ellipse id="Ellipse_126" data-name="Ellipse 126" cx="0.88" cy="1.151" rx="0.88" ry="1.151" transform="translate(34.041 236.501)" fill="#3f3d56"/>
    <ellipse id="Ellipse_127" data-name="Ellipse 127" cx="0.88" cy="1.151" rx="0.88" ry="1.151" transform="translate(34.041 235.096)" fill="#3f3d56"/>
    <ellipse id="Ellipse_128" data-name="Ellipse 128" cx="0.88" cy="1.151" rx="0.88" ry="1.151" transform="translate(34.041 233.686)" fill="#3f3d56"/>
    <ellipse id="Ellipse_129" data-name="Ellipse 129" cx="0.88" cy="1.151" rx="0.88" ry="1.151" transform="translate(34.041 232.28)" fill="#3f3d56"/>
    <ellipse id="Ellipse_130" data-name="Ellipse 130" cx="0.88" cy="1.151" rx="0.88" ry="1.151" transform="translate(34.041 230.874)" fill="#3f3d56"/>
    <ellipse id="Ellipse_131" data-name="Ellipse 131" cx="0.88" cy="1.151" rx="0.88" ry="1.151" transform="translate(34.041 229.469)" fill="#3f3d56"/>
    <ellipse id="Ellipse_132" data-name="Ellipse 132" cx="0.88" cy="1.151" rx="0.88" ry="1.151" transform="translate(34.041 228.063)" fill="#3f3d56"/>
    <path id="Path_2142" data-name="Path 2142" d="M128.776,692.523a3.636,3.636,0,0,1-.331-.483l2.316-.377h-2.5a4.208,4.208,0,0,1-.083-3.335l3.351,1.76-3.093-2.273a4.211,4.211,0,1,1,6.947,4.714,4.268,4.268,0,0,1,.48.768l-2.99,1.551,3.2-1.072a4.138,4.138,0,0,1,.222,1.35,16.707,16.707,0,0,0-1.346,8.309,8.537,8.537,0,0,1-6.17-10.912Z" transform="translate(-97.147 -472.935)" fill="#c2f1c1"/>
    <path id="Path_2143" data-name="Path 2143" d="M136.3,714.1a16.707,16.707,0,0,0-1.346,8.309,4.214,4.214,0,0,1-6.17-5.705C128.217,715.993,136.3,713.631,136.3,714.1Z" transform="translate(-97.154 -491.914)" opacity="0.1"/>
  </g>
</svg>
