<svg xmlns="http://www.w3.org/2000/svg" xmlns:xlink="http://www.w3.org/1999/xlink" width="365.425" height="276.995" viewBox="0 0 365.425 276.995">
  <defs>
    <linearGradient id="linear-gradient" x1="0.5" y1="1" x2="0.5" gradientUnits="objectBoundingBox">
      <stop offset="0" stop-color="gray" stop-opacity="0.251"/>
      <stop offset="0.54" stop-color="gray" stop-opacity="0.122"/>
      <stop offset="1" stop-color="gray" stop-opacity="0.102"/>
    </linearGradient>
    <linearGradient id="linear-gradient-2" y1="1" y2="0" xlink:href="#linear-gradient"/>
    <linearGradient id="linear-gradient-3" x1="0" y1="0.5" x2="1" y2="0.5" xlink:href="#linear-gradient"/>
    <linearGradient id="linear-gradient-4" x1="2.581" y1="1" x2="2.581" y2="0" xlink:href="#linear-gradient"/>
    <linearGradient id="linear-gradient-5" y1="1" y2="0" xlink:href="#linear-gradient"/>
    <linearGradient id="linear-gradient-6" x1="-25.357" y1="1.001" x2="-25.357" y2="0" xlink:href="#linear-gradient"/>
  </defs>
  <g id="undraw_people_search_wctu" transform="translate(0 0.006)">
    <path id="Path_2144" data-name="Path 2144" d="M386.784,174.226c-12.847,17.629-8.608,42.792-1.181,62.839,2.487,6.711,5.313,13.809,4.023,21.111-1.575,8.926-8.978,15.614-16.674,19.256a44.184,44.184,0,0,1-43.15-2.786c-10.829-7.22-18.452-19.217-29.492-26.092-18.475-11.5-42.461-6.363-63.023,2.419-14.547,6.212-30.483,14.213-44.659,8.476-9.976-4.036-16.694-14.311-20.228-25.295-1.706-5.3-2.9-11.059-6.3-15.21a23.26,23.26,0,0,0-7.439-5.625c-25.068-13.126-57.313-4.922-81.617-19.568-16.408-9.891-26.62-29.085-30.863-49.263s-3.193-41.479-1.5-62.416c1.2-14.879,3.1-30.778,12.047-42.471,9.461-12.362,25.318-17.274,39.5-15.338s26.893,9.812,38.014,19.214c13.911,11.728,26.709,26.453,44.01,30.906,11.784,3.032,24.3.886,36.554-.062,20.477-1.582,40.882.24,61.163,2.3,19.414,1.969,38.962,4.168,57.349,10.623,13.012,4.568,23.326,13.2,35.576,19.1,7.984,3.846,16.769,4.739,24.284,9.707,9.274,6.12,17.655,16.963,14.935,29.974C405.535,158.392,393.61,164.87,386.784,174.226Z" transform="translate(-43.2 -23.86)" fill="#c2f1c1" opacity="0.1"/>
    <g id="Group_3" data-name="Group 3" transform="translate(259.171 117.414)" opacity="0.5">
      <path id="Path_2145" data-name="Path 2145" d="M898.19,536.936s1.083-32.081,18.439-50.209A48.63,48.63,0,0,0,929.966,459a81.808,81.808,0,0,0,.407-14.954" transform="translate(-876.787 -423.578)" fill="none" stroke="#535461" stroke-miterlimit="10" stroke-width="2"/>
      <path id="Path_2146" data-name="Path 2146" d="M1002.269,390.655c-1.188,3.584-11.118,11.814-11.118,11.814s-3.042-12.539-1.854-16.119a6.834,6.834,0,1,1,12.972,4.3Z" transform="translate(-937.811 -381.666)" fill="#c2f1c1"/>
      <path id="Path_2147" data-name="Path 2147" d="M1009.752,455.1C1006.8,457.464,994,458.98,994,458.98s4.266-12.178,7.219-14.537a6.832,6.832,0,1,1,8.532,10.659Z" transform="translate(-941.156 -422.714)" fill="#c2f1c1"/>
      <path id="Path_2148" data-name="Path 2148" d="M974.468,555.395c-3.734.551-15.558-4.594-15.558-4.594s9.825-8.362,13.56-8.913a6.834,6.834,0,1,1,2,13.52Z" transform="translate(-917.581 -489.259)" fill="#c2f1c1"/>
      <path id="Path_2149" data-name="Path 2149" d="M928.8,627.653c-3.587,1.175-16.113-1.91-16.113-1.91s8.273-9.9,11.86-11.075a6.834,6.834,0,0,1,4.266,12.985Z" transform="translate(-886.529 -537.975)" fill="#c2f1c1"/>
      <path id="Path_2150" data-name="Path 2150" d="M950.235,460.076c1.742,3.347,12.867,9.9,12.867,9.9s1.011-12.861-.732-16.211a6.832,6.832,0,1,0-12.122,6.307Z" transform="translate(-911.243 -427.633)" fill="#c2f1c1"/>
      <path id="Path_2151" data-name="Path 2151" d="M896.7,541.212c2.665,2.675,15.227,5.6,15.227,5.6s-2.884-12.575-5.546-15.25a6.833,6.833,0,0,0-9.681,9.645Z" transform="translate(-874.449 -481.023)" fill="#c2f1c1"/>
      <path id="Path_2152" data-name="Path 2152" d="M859.674,631.65c2.172,3.085,14.062,8.1,14.062,8.1s-.715-12.88-2.891-15.968a6.832,6.832,0,1,0-11.157,7.876Z" transform="translate(-849.99 -542.257)" fill="#c2f1c1"/>
      <path id="Path_2153" data-name="Path 2153" d="M877.333,582.639s-9.845-14.321-8.119-27.8a26.331,26.331,0,0,0-3.111-16.362,44.3,44.3,0,0,0-4.634-6.642" transform="translate(-852.118 -482.559)" fill="none" stroke="#535461" stroke-miterlimit="10" stroke-width="2"/>
      <path id="Path_2154" data-name="Path 2154" d="M849.866,500.723c.633,1.943-1.04,8.722-1.04,8.722s-5.359-4.483-5.992-6.422a3.7,3.7,0,1,1,7.032-2.3Z" transform="translate(-839.473 -459.941)" fill="#c2f1c1"/>
      <path id="Path_2155" data-name="Path 2155" d="M878.251,523.415c-.522,1.969-5.615,6.757-5.615,6.757s-2.061-6.675-1.539-8.65a3.7,3.7,0,1,1,7.154,1.894Z" transform="translate(-858.528 -473.776)" fill="#c2f1c1"/>
      <path id="Path_2156" data-name="Path 2156" d="M893.706,576.251c-1.447,1.441-8.256,3-8.256,3s1.588-6.8,3.039-8.243a3.7,3.7,0,1,1,5.218,5.251Z" transform="translate(-868.228 -508.15)" fill="#c2f1c1"/>
      <path id="Path_2157" data-name="Path 2157" d="M898.646,622.785c-1.185,1.664-7.646,4.345-7.646,4.345s.417-6.973,1.6-8.637a3.7,3.7,0,1,1,6.032,4.286Z" transform="translate(-871.957 -539.729)" fill="#c2f1c1"/>
      <path id="Path_2158" data-name="Path 2158" d="M849.592,547.624c1.834.9,8.782.177,8.782.177s-3.7-5.927-5.533-6.822a3.7,3.7,0,1,0-3.249,6.645Z" transform="translate(-842.743 -488.446)" fill="#c2f1c1"/>
      <path id="Path_2159" data-name="Path 2159" d="M852.394,600.214c2.022.308,8.434-2.458,8.434-2.458s-5.3-4.548-7.321-4.844a3.7,3.7,0,1,0-1.112,7.315Z" transform="translate(-843.908 -523.561)" fill="#c2f1c1"/>
      <path id="Path_2160" data-name="Path 2160" d="M865.581,651.581c1.939.656,8.729-.984,8.729-.984s-4.456-5.379-6.4-6.025a3.7,3.7,0,1,0-2.333,7.023Z" transform="translate(-853.177 -558.169)" fill="#c2f1c1"/>
      <path id="Path_2161" data-name="Path 2161" d="M849.866,500.723c.633,1.943-1.04,8.722-1.04,8.722s-5.359-4.483-5.992-6.422a3.7,3.7,0,1,1,7.032-2.3Z" transform="translate(-839.473 -459.941)" fill="#fff" opacity="0.5"/>
      <path id="Path_2162" data-name="Path 2162" d="M878.251,523.415c-.522,1.969-5.615,6.757-5.615,6.757s-2.061-6.675-1.539-8.65a3.7,3.7,0,1,1,7.154,1.894Z" transform="translate(-858.528 -473.776)" fill="#fff" opacity="0.5"/>
      <path id="Path_2163" data-name="Path 2163" d="M893.706,576.251c-1.447,1.441-8.256,3-8.256,3s1.588-6.8,3.039-8.243a3.7,3.7,0,1,1,5.218,5.251Z" transform="translate(-868.228 -508.15)" fill="#fff" opacity="0.5"/>
      <path id="Path_2164" data-name="Path 2164" d="M898.646,622.785c-1.185,1.664-7.646,4.345-7.646,4.345s.417-6.973,1.6-8.637a3.7,3.7,0,1,1,6.032,4.286Z" transform="translate(-871.957 -539.729)" fill="#fff" opacity="0.5"/>
      <path id="Path_2165" data-name="Path 2165" d="M849.592,547.624c1.834.9,8.782.177,8.782.177s-3.7-5.927-5.533-6.822a3.7,3.7,0,1,0-3.249,6.645Z" transform="translate(-842.743 -488.446)" fill="#fff" opacity="0.5"/>
      <path id="Path_2166" data-name="Path 2166" d="M852.394,600.214c2.022.308,8.434-2.458,8.434-2.458s-5.3-4.548-7.321-4.844a3.7,3.7,0,1,0-1.112,7.315Z" transform="translate(-843.908 -523.561)" fill="#fff" opacity="0.5"/>
      <path id="Path_2167" data-name="Path 2167" d="M865.581,651.581c1.939.656,8.729-.984,8.729-.984s-4.456-5.379-6.4-6.025a3.7,3.7,0,1,0-2.333,7.023Z" transform="translate(-853.177 -558.169)" fill="#fff" opacity="0.5"/>
      <path id="Path_2168" data-name="Path 2168" d="M796.77,693.683h28l7-42.7h-42Z" transform="translate(-789.77 -554.772)" fill="#474059"/>
      <path id="Path_2169" data-name="Path 2169" d="M795.129,650.98l6.54,39.9h23.562l-.459,2.8h-28l-7-42.7Z" transform="translate(-789.77 -554.772)" opacity="0.1"/>
    </g>
    <rect id="Rectangle_747" data-name="Rectangle 747" width="205.428" height="247.859" transform="translate(66.052 12.889)" fill="url(#linear-gradient)"/>
    <rect id="Rectangle_748" data-name="Rectangle 748" width="200.178" height="241.526" transform="translate(68.677 16.06)" fill="#fff"/>
    <rect id="Rectangle_749" data-name="Rectangle 749" width="80.727" height="3.938" transform="translate(146.451 43.297)" fill="#c0bccf"/>
    <rect id="Rectangle_750" data-name="Rectangle 750" width="80.727" height="3.938" transform="translate(146.451 55.767)" fill="#c0bccf"/>
    <rect id="Rectangle_751" data-name="Rectangle 751" width="42.005" height="3.938" transform="translate(165.813 68.237)" fill="#c2f1c1"/>
    <rect id="Rectangle_752" data-name="Rectangle 752" width="80.727" height="3.938" transform="translate(146.451 122.383)" fill="#c0bccf" opacity="0.5"/>
    <rect id="Rectangle_753" data-name="Rectangle 753" width="80.727" height="3.938" transform="translate(146.451 134.854)" fill="#c0bccf" opacity="0.5"/>
    <rect id="Rectangle_754" data-name="Rectangle 754" width="42.005" height="3.938" transform="translate(165.813 147.324)" fill="#c2f1c1" opacity="0.5"/>
    <rect id="Rectangle_755" data-name="Rectangle 755" width="80.727" height="3.938" transform="translate(146.451 201.47)" fill="#c0bccf" opacity="0.5"/>
    <rect id="Rectangle_756" data-name="Rectangle 756" width="80.727" height="3.938" transform="translate(146.451 213.94)" fill="#c0bccf" opacity="0.5"/>
    <rect id="Rectangle_757" data-name="Rectangle 757" width="42.005" height="3.938" transform="translate(165.813 226.41)" fill="#c2f1c1" opacity="0.5"/>
    <g id="Group_4" data-name="Group 4" transform="translate(79.507 114.504)" opacity="0.5">
      <path id="Path_2170" data-name="Path 2170" d="M330.11,395.114a22.21,22.21,0,0,1-5.372,14.521c-.171.2-.348.4-.528.591q-.135.151-.276.3a21.89,21.89,0,0,1-2.382,2.163l-.059.043a21.809,21.809,0,0,1-4.233,2.6h0a21.985,21.985,0,0,1-2.376.952l-.3.1c-.184.062-.374.118-.561.171l-.075.023a22.423,22.423,0,0,1-12.322,0h-.033c-.328-.1-.656-.194-.958-.3l-.279-.1a21.637,21.637,0,0,1-3.085-1.365l-.062-.033a22.4,22.4,0,0,1-4.371-3.095l-.108-.1a20.857,20.857,0,0,1-1.907-1.969c-.079-.089-.154-.18-.23-.272-.144-.171-.282-.348-.42-.525a22.315,22.315,0,1,1,39.937-13.691Z" transform="translate(-285.48 -372.798)" fill="#c0bccf"/>
      <path id="Path_2171" data-name="Path 2171" d="M333.61,412.706l-1.693-.761a6.71,6.71,0,0,0,.033-.774,6.068,6.068,0,0,0,0-.656c-.167-1.726-1.267-3.229-2.044-4.807a13.656,13.656,0,0,1-1.336-4.594c-.207-1.969,0-4.01-.722-5.861a10.576,10.576,0,0,0-2.993-3.843,15.191,15.191,0,0,0-4.808-3.049,8.5,8.5,0,0,0-5.726-.154,12.355,12.355,0,0,0-4.125,2.98,13.864,13.864,0,0,0-2.33,2.652,11.468,11.468,0,0,0-1.313,4.01,61.352,61.352,0,0,0-.807,6.7c-.128,1.874-.328,4-1.93,5.149-.781.561-1.88.876-2.238,1.726a1.766,1.766,0,0,0-.118.8,2.951,2.951,0,0,0,.049.679c.023.131.049.259.082.391a28.776,28.776,0,0,0-1.155,3.5c-.24.886-.459,1.756-.656,2.6h.814l3.058.072h.043l3.282.075h.016l3.058.072h.076l.883.062h.289l12.231.282h.066l.814.02h.285l2.448.056h0l3.61.082h.026l2.717.066h.847l-.144-2.848C334.795,412.978,333.61,412.706,333.61,412.706Zm-13.74-.348c0,2.415-2.586,5.372-2.586,5.372l-2.6-3.544.1-.138,2.507,3.413s2.586-2.953,2.586-5.372a2.84,2.84,0,0,1,.207-.354l.059.184A3.482,3.482,0,0,0,319.87,412.358Zm3.977,9.477a1.978,1.978,0,0,0-.023-.368c-.023-.121-.02-.23-.036-.348s-.03-.233-.046-.351-.039-.233-.062-.351-.046-.233-.072-.351a.549.549,0,0,0-.026-.118q-.054-.231-.118-.463c-.043-.154-.069-.249-.108-.371a.5.5,0,0,0-.052-.164c-.02-.053-.056-.177-.085-.266l-.059-.171c-.026-.076-.053-.154-.082-.23-.049-.138-.1-.272-.154-.41s-.108-.272-.164-.407c-.112-.276-.233-.548-.354-.824-.476-1.063-1.011-2.11-1.5-3.147a16.731,16.731,0,0,1-.7-1.667l-.062.082a3.48,3.48,0,0,0-.266.443c0,2.415-2.586,5.372-2.586,5.372l-2.6-3.544-2.277,3.282a2.656,2.656,0,0,0-.912,1.516c-.072.213-.141.45-.207.7-.046.167-.089.328-.128.515-.023.089-.043.177-.062.269l-.059.279v.043c-.039.19-.079.387-.115.587s-.079.43-.115.656q-.039.213-.069.423c-.046.272-.085.548-.125.824-.023.161-.046.328-.066.476l-.079.61c.167.5.354.984.548,1.49a2.345,2.345,0,0,1,.213.843,23.917,23.917,0,0,0,12.322,0,.108.108,0,0,1,0-.029,3.424,3.424,0,0,1-.079-.837h0a21.623,21.623,0,0,1,.328-2.35,8.039,8.039,0,0,0,.062-1.155v-.138c-.01-.125-.013-.236-.016-.345Zm0,0a1.978,1.978,0,0,0-.023-.368c-.023-.121-.02-.23-.036-.348s-.03-.233-.046-.351-.039-.233-.062-.351-.046-.233-.072-.351a.549.549,0,0,0-.026-.118q-.054-.231-.118-.463c-.043-.154-.069-.249-.108-.371a.5.5,0,0,0-.052-.164c-.02-.053-.056-.177-.085-.266l-.059-.171c-.026-.076-.053-.154-.082-.23-.049-.138-.1-.272-.154-.41s-.108-.272-.164-.407c-.112-.276-.233-.548-.354-.824-.476-1.063-1.011-2.11-1.5-3.147a16.731,16.731,0,0,1-.7-1.667l-.062.082a3.48,3.48,0,0,0-.266.443c0,2.415-2.586,5.372-2.586,5.372l-2.6-3.544-2.277,3.282a2.656,2.656,0,0,0-.912,1.516c-.072.213-.141.45-.207.7-.046.167-.089.328-.128.515-.023.089-.043.177-.062.269l-.059.279v.043c-.039.19-.079.387-.115.587s-.079.43-.115.656q-.039.213-.069.423c-.046.272-.085.548-.125.824-.023.161-.046.328-.066.476l-.079.61c.167.5.354.984.548,1.49a2.345,2.345,0,0,1,.213.843,23.917,23.917,0,0,0,12.322,0,.108.108,0,0,1,0-.029,3.424,3.424,0,0,1-.079-.837h0a21.623,21.623,0,0,1,.328-2.35,8.039,8.039,0,0,0,.062-1.155v-.138c-.01-.125-.013-.236-.016-.345Zm0,0a1.978,1.978,0,0,0-.023-.368c-.023-.121-.02-.23-.036-.348s-.03-.233-.046-.351-.039-.233-.062-.351-.046-.233-.072-.351a.549.549,0,0,0-.026-.118q-.054-.231-.118-.463c-.043-.154-.069-.249-.108-.371a.5.5,0,0,0-.052-.164c-.02-.053-.056-.177-.085-.266l-.059-.171c-.026-.076-.053-.154-.082-.23-.049-.138-.1-.272-.154-.41s-.108-.272-.164-.407c-.112-.276-.233-.548-.354-.824-.476-1.063-1.011-2.11-1.5-3.147a16.731,16.731,0,0,1-.7-1.667l-.062.082a3.48,3.48,0,0,0-.266.443c0,2.415-2.586,5.372-2.586,5.372l-2.6-3.544-2.277,3.282a2.656,2.656,0,0,0-.912,1.516c-.072.213-.141.45-.207.7-.046.167-.089.328-.128.515-.023.089-.043.177-.062.269l-.059.279v.043c-.039.19-.079.387-.115.587s-.079.43-.115.656q-.039.213-.069.423c-.046.272-.085.548-.125.824-.023.161-.046.328-.066.476l-.079.61c.167.5.354.984.548,1.49a2.345,2.345,0,0,1,.213.843,23.917,23.917,0,0,0,12.322,0,.108.108,0,0,1,0-.029,3.424,3.424,0,0,1-.079-.837h0a21.623,21.623,0,0,1,.328-2.35,8.039,8.039,0,0,0,.062-1.155v-.138c-.01-.125-.013-.236-.016-.345Zm0,0a1.978,1.978,0,0,0-.023-.368c-.023-.121-.02-.23-.036-.348s-.03-.233-.046-.351-.039-.233-.062-.351-.046-.233-.072-.351a.549.549,0,0,0-.026-.118q-.054-.231-.118-.463c-.043-.154-.069-.249-.108-.371a.5.5,0,0,0-.052-.164c-.02-.053-.056-.177-.085-.266l-.059-.171c-.026-.076-.053-.154-.082-.23-.049-.138-.1-.272-.154-.41s-.108-.272-.164-.407c-.112-.276-.233-.548-.354-.824-.476-1.063-1.011-2.11-1.5-3.147a16.731,16.731,0,0,1-.7-1.667l-.062.082a3.48,3.48,0,0,0-.266.443c0,2.415-2.586,5.372-2.586,5.372l-2.6-3.544-2.277,3.282a2.656,2.656,0,0,0-.912,1.516c-.072.213-.141.45-.207.7-.046.167-.089.328-.128.515-.023.089-.043.177-.062.269l-.059.279v.043c-.039.19-.079.387-.115.587s-.079.43-.115.656q-.039.213-.069.423c-.046.272-.085.548-.125.824-.023.161-.046.328-.066.476l-.079.61c.167.5.354.984.548,1.49a2.345,2.345,0,0,1,.213.843,23.917,23.917,0,0,0,12.322,0,.108.108,0,0,1,0-.029,3.424,3.424,0,0,1-.079-.837h0a21.623,21.623,0,0,1,.328-2.35,8.039,8.039,0,0,0,.062-1.155v-.138c-.01-.125-.013-.236-.016-.345Z" transform="translate(-295.087 -382.862)" fill="url(#linear-gradient-2)"/>
      <rect id="Rectangle_758" data-name="Rectangle 758" width="15.095" height="10.173" transform="translate(13.783 16.084)" fill="#493545"/>
      <path id="Path_2172" data-name="Path 2172" d="M344.75,436.611l-6.317,8.9-6.6-.574s-8.614.571-2.871-6.028c2.76-3.173,3.662-5.818,3.856-7.705a5.967,5.967,0,0,0-.41-3.2l7.177-.86a5.356,5.356,0,0,0-.118,3C340.362,433.864,344.75,436.611,344.75,436.611Z" transform="translate(-313.364 -409.307)" fill="#c77485"/>
      <path id="Path_2173" data-name="Path 2173" d="M350.549,430.113a7.174,7.174,0,0,1-6.649,1.07,5.967,5.967,0,0,0-.41-3.2l7.177-.86A5.355,5.355,0,0,0,350.549,430.113Z" transform="translate(-324.453 -409.294)" opacity="0.1"/>
      <circle id="Ellipse_133" data-name="Ellipse 133" cx="7.177" cy="7.177" r="7.177" transform="translate(14.59 7.634)" fill="#c77485"/>
      <path id="Path_2174" data-name="Path 2174" d="M340.614,451.475l-.167-.656-.144-.578-.213-.853-.039-.158-.033-.131s.171-.515-.955-.348l-.21.036c-.177.036-.384.085-.62.151l-.213.066-.282.089h0a6.153,6.153,0,0,0-2.382,1.437,5.365,5.365,0,0,0-.8.965c-.023.033-.039.062-.059.089a3.1,3.1,0,0,0-.207.381c0,2.586-2.586,5.743-2.586,5.743l-2.524-3.646-.049-.072-.6-.873-.213-.282-.072-.1-1.313-1.762-.328-.44-.108-.148-.161-.213-.377-.5-1.477.863-1.969,1.149-1.149,7.466v.207l.036.617.24,4.056v.056l-.42,1.68.062.033a21.642,21.642,0,0,0,3.085,1.365l.279.1c.328.108.637.207.958.3a1.172,1.172,0,0,1,.026.148v-.141a22.423,22.423,0,0,0,12.322,0l.075-.023c.187-.052.377-.108.561-.171l.3-.1a21.99,21.99,0,0,0,2.376-.952l.276-5.874.2-4.237v-.243Z" transform="translate(-309.492 -423.804)" opacity="0.1"/>
      <path id="Path_2175" data-name="Path 2175" d="M338.4,462.982a2.265,2.265,0,0,0-.023-.394c-.023-.131-.02-.246-.036-.371s-.03-.249-.046-.374-.039-.249-.062-.374-.046-.249-.072-.374a.562.562,0,0,0-.026-.125c-.036-.164-.075-.328-.118-.5s-.069-.266-.108-.4a.56.56,0,0,0-.052-.174c-.02-.056-.056-.19-.085-.285l-.059-.184c-.026-.082-.052-.164-.082-.246-.049-.148-.1-.292-.154-.44s-.108-.292-.164-.436c-.112-.3-.233-.587-.354-.879-.476-1.135-1.011-2.254-1.5-3.364a18.61,18.61,0,0,1-.7-1.782l-.062.089a3.8,3.8,0,0,0-.266.473c0,2.583-2.586,5.743-2.586,5.743l-2.6-3.79-2.277,3.5a2.859,2.859,0,0,0-.912,1.621c-.072.23-.141.479-.207.745-.046.177-.089.364-.128.551-.023.1-.043.19-.062.289l-.059.3v.046c-.039.2-.079.413-.115.627s-.079.459-.115.692q-.039.226-.069.453c-.046.292-.085.587-.125.879-.023.171-.046.328-.066.509l-.079.656c.167.538.354,1.07.548,1.592a2.646,2.646,0,0,1,.213.9,22.423,22.423,0,0,0,12.322,0,.126.126,0,0,1,0-.033,3.907,3.907,0,0,1-.079-.9h0a24.6,24.6,0,0,1,.328-2.51,9.184,9.184,0,0,0,.062-1.234v-.148C338.406,463.218,338.4,463.1,338.4,462.982Zm0,0a2.265,2.265,0,0,0-.023-.394c-.023-.131-.02-.246-.036-.371s-.03-.249-.046-.374-.039-.249-.062-.374-.046-.249-.072-.374a.562.562,0,0,0-.026-.125c-.036-.164-.075-.328-.118-.5s-.069-.266-.108-.4a.56.56,0,0,0-.052-.174c-.02-.056-.056-.19-.085-.285l-.059-.184c-.026-.082-.052-.164-.082-.246-.049-.148-.1-.292-.154-.44s-.108-.292-.164-.436c-.112-.3-.233-.587-.354-.879-.476-1.135-1.011-2.254-1.5-3.364a18.61,18.61,0,0,1-.7-1.782l-.062.089a3.8,3.8,0,0,0-.266.473c0,2.583-2.586,5.743-2.586,5.743l-2.6-3.79-2.277,3.5a2.859,2.859,0,0,0-.912,1.621c-.072.23-.141.479-.207.745-.046.177-.089.364-.128.551-.023.1-.043.19-.062.289l-.059.3v.046c-.039.2-.079.413-.115.627s-.079.459-.115.692q-.039.226-.069.453c-.046.292-.085.587-.125.879-.023.171-.046.328-.066.509l-.079.656c.167.538.354,1.07.548,1.592a2.646,2.646,0,0,1,.213.9,22.423,22.423,0,0,0,12.322,0,.126.126,0,0,1,0-.033,3.907,3.907,0,0,1-.079-.9h0a24.6,24.6,0,0,1,.328-2.51,9.184,9.184,0,0,0,.062-1.234v-.148C338.406,463.218,338.4,463.1,338.4,462.982Zm0,0a2.265,2.265,0,0,0-.023-.394c-.023-.131-.02-.246-.036-.371s-.03-.249-.046-.374-.039-.249-.062-.374-.046-.249-.072-.374a.562.562,0,0,0-.026-.125c-.036-.164-.075-.328-.118-.5s-.069-.266-.108-.4a.56.56,0,0,0-.052-.174c-.02-.056-.056-.19-.085-.285l-.059-.184c-.026-.082-.052-.164-.082-.246-.049-.148-.1-.292-.154-.44s-.108-.292-.164-.436c-.112-.3-.233-.587-.354-.879-.476-1.135-1.011-2.254-1.5-3.364a18.61,18.61,0,0,1-.7-1.782l-.062.089a3.8,3.8,0,0,0-.266.473c0,2.583-2.586,5.743-2.586,5.743l-2.6-3.79-2.277,3.5a2.859,2.859,0,0,0-.912,1.621c-.072.23-.141.479-.207.745-.046.177-.089.364-.128.551-.023.1-.043.19-.062.289l-.059.3v.046c-.039.2-.079.413-.115.627s-.079.459-.115.692q-.039.226-.069.453c-.046.292-.085.587-.125.879-.023.171-.046.328-.066.509l-.079.656c.167.538.354,1.07.548,1.592a2.646,2.646,0,0,1,.213.9,22.423,22.423,0,0,0,12.322,0,.126.126,0,0,1,0-.033,3.907,3.907,0,0,1-.079-.9h0a24.6,24.6,0,0,1,.328-2.51,9.184,9.184,0,0,0,.062-1.234v-.148C338.406,463.218,338.4,463.1,338.4,462.982Zm3.479-6.16-1.172-4.676-.2-.8-.056-.22h0l-.285-1.142a.221.221,0,0,0,0-.03h0a.263.263,0,0,0-.023-.148c-.043-.085-.151-.174-.4-.2a2.045,2.045,0,0,0-.289,0h0a5,5,0,0,0-.843.158c-.135.036-.279.076-.433.125l-.282.089h-.026a6.261,6.261,0,0,0-2.067,1.149,5.579,5.579,0,0,0-1.05,1.162l-.062.089a3.8,3.8,0,0,0-.266.473c0,2.583-2.586,5.743-2.586,5.743l-2.6-3.79-.148-.213-.026-.036-.377-.555-.286-.381-.075-.1-1.345-1.8h0l-.427-.581v-.02l-.148-.2-.282-.374-.984.574-2.461,1.434-1.135,7.387v.079l.033.538.243,4.112v.233l-.371,1.48a21.631,21.631,0,0,0,3.085,1.365l.279.1c.328.108.637.207.958.3a1.163,1.163,0,0,1,.026.148v-.141a22.423,22.423,0,0,0,12.322,0l.075-.023c.187-.053.377-.108.561-.171l.3-.1a21.987,21.987,0,0,0,2.376-.952h0l.272-5.868.2-4.191Zm-16.139,11.331a1.169,1.169,0,0,1,.026.148c0-.046,0-.1,0-.141Zm12.66-5.172a2.265,2.265,0,0,0-.023-.394c-.023-.131-.02-.246-.036-.371s-.03-.249-.046-.374-.039-.249-.062-.374-.046-.249-.072-.374a.562.562,0,0,0-.026-.125c-.036-.164-.075-.328-.118-.5s-.069-.266-.108-.4a.56.56,0,0,0-.052-.174c-.02-.056-.056-.19-.085-.285l-.059-.184c-.026-.082-.052-.164-.082-.246-.049-.148-.1-.292-.154-.44s-.108-.292-.164-.436c-.112-.3-.233-.587-.354-.879-.476-1.135-1.011-2.254-1.5-3.364a18.61,18.61,0,0,1-.7-1.782l-.062.089a3.8,3.8,0,0,0-.266.473c0,2.583-2.586,5.743-2.586,5.743l-2.6-3.79-2.277,3.5a2.859,2.859,0,0,0-.912,1.621c-.072.23-.141.479-.207.745-.046.177-.089.364-.128.551-.023.1-.043.19-.062.289l-.059.3v.046c-.039.2-.079.413-.115.627s-.079.459-.115.692q-.039.226-.069.453c-.046.292-.085.587-.125.879-.023.171-.046.328-.066.509l-.079.656c.167.538.354,1.07.548,1.592a2.646,2.646,0,0,1,.213.9,22.423,22.423,0,0,0,12.322,0,.126.126,0,0,1,0-.033,3.907,3.907,0,0,1-.079-.9h0a24.6,24.6,0,0,1,.328-2.51,9.184,9.184,0,0,0,.062-1.234v-.148C338.406,463.218,338.4,463.1,338.4,462.982Zm0,0a2.265,2.265,0,0,0-.023-.394c-.023-.131-.02-.246-.036-.371s-.03-.249-.046-.374-.039-.249-.062-.374-.046-.249-.072-.374a.562.562,0,0,0-.026-.125c-.036-.164-.075-.328-.118-.5s-.069-.266-.108-.4a.56.56,0,0,0-.052-.174c-.02-.056-.056-.19-.085-.285l-.059-.184c-.026-.082-.052-.164-.082-.246-.049-.148-.1-.292-.154-.44s-.108-.292-.164-.436c-.112-.3-.233-.587-.354-.879-.476-1.135-1.011-2.254-1.5-3.364a18.61,18.61,0,0,1-.7-1.782l-.062.089a3.8,3.8,0,0,0-.266.473c0,2.583-2.586,5.743-2.586,5.743l-2.6-3.79-2.277,3.5a2.859,2.859,0,0,0-.912,1.621c-.072.23-.141.479-.207.745-.046.177-.089.364-.128.551-.023.1-.043.19-.062.289l-.059.3v.046c-.039.2-.079.413-.115.627s-.079.459-.115.692q-.039.226-.069.453c-.046.292-.085.587-.125.879-.023.171-.046.328-.066.509l-.079.656c.167.538.354,1.07.548,1.592a2.646,2.646,0,0,1,.213.9,22.423,22.423,0,0,0,12.322,0,.126.126,0,0,1,0-.033,3.907,3.907,0,0,1-.079-.9h0a24.6,24.6,0,0,1,.328-2.51,9.184,9.184,0,0,0,.062-1.234v-.148C338.406,463.218,338.4,463.1,338.4,462.982Zm0,0a2.265,2.265,0,0,0-.023-.394c-.023-.131-.02-.246-.036-.371s-.03-.249-.046-.374-.039-.249-.062-.374-.046-.249-.072-.374a.562.562,0,0,0-.026-.125c-.036-.164-.075-.328-.118-.5s-.069-.266-.108-.4a.56.56,0,0,0-.052-.174c-.02-.056-.056-.19-.085-.285l-.059-.184c-.026-.082-.052-.164-.082-.246-.049-.148-.1-.292-.154-.44s-.108-.292-.164-.436c-.112-.3-.233-.587-.354-.879-.476-1.135-1.011-2.254-1.5-3.364a18.61,18.61,0,0,1-.7-1.782l-.062.089a3.8,3.8,0,0,0-.266.473c0,2.583-2.586,5.743-2.586,5.743l-2.6-3.79-2.277,3.5a2.859,2.859,0,0,0-.912,1.621c-.072.23-.141.479-.207.745-.046.177-.089.364-.128.551-.023.1-.043.19-.062.289l-.059.3v.046c-.039.2-.079.413-.115.627s-.079.459-.115.692q-.039.226-.069.453c-.046.292-.085.587-.125.879-.023.171-.046.328-.066.509l-.079.656c.167.538.354,1.07.548,1.592a2.646,2.646,0,0,1,.213.9,22.423,22.423,0,0,0,12.322,0,.126.126,0,0,1,0-.033,3.907,3.907,0,0,1-.079-.9h0a24.6,24.6,0,0,1,.328-2.51,9.184,9.184,0,0,0,.062-1.234v-.148C338.406,463.218,338.4,463.1,338.4,462.982Zm0,0a2.265,2.265,0,0,0-.023-.394c-.023-.131-.02-.246-.036-.371s-.03-.249-.046-.374-.039-.249-.062-.374-.046-.249-.072-.374a.562.562,0,0,0-.026-.125c-.036-.164-.075-.328-.118-.5s-.069-.266-.108-.4a.56.56,0,0,0-.052-.174c-.02-.056-.056-.19-.085-.285l-.059-.184c-.026-.082-.052-.164-.082-.246-.049-.148-.1-.292-.154-.44s-.108-.292-.164-.436c-.112-.3-.233-.587-.354-.879-.476-1.135-1.011-2.254-1.5-3.364a18.61,18.61,0,0,1-.7-1.782l-.062.089a3.8,3.8,0,0,0-.266.473c0,2.583-2.586,5.743-2.586,5.743l-2.6-3.79-2.277,3.5a2.859,2.859,0,0,0-.912,1.621c-.072.23-.141.479-.207.745-.046.177-.089.364-.128.551-.023.1-.043.19-.062.289l-.059.3v.046c-.039.2-.079.413-.115.627s-.079.459-.115.692q-.039.226-.069.453c-.046.292-.085.587-.125.879-.023.171-.046.328-.066.509l-.079.656c.167.538.354,1.07.548,1.592a2.646,2.646,0,0,1,.213.9,22.423,22.423,0,0,0,12.322,0,.126.126,0,0,1,0-.033,3.907,3.907,0,0,1-.079-.9h0a24.6,24.6,0,0,1,.328-2.51,9.184,9.184,0,0,0,.062-1.234v-.148C338.406,463.218,338.4,463.1,338.4,462.982Zm0,0a2.265,2.265,0,0,0-.023-.394c-.023-.131-.02-.246-.036-.371s-.03-.249-.046-.374-.039-.249-.062-.374-.046-.249-.072-.374a.562.562,0,0,0-.026-.125c-.036-.164-.075-.328-.118-.5s-.069-.266-.108-.4a.56.56,0,0,0-.052-.174c-.02-.056-.056-.19-.085-.285l-.059-.184c-.026-.082-.052-.164-.082-.246-.049-.148-.1-.292-.154-.44s-.108-.292-.164-.436c-.112-.3-.233-.587-.354-.879-.476-1.135-1.011-2.254-1.5-3.364a18.61,18.61,0,0,1-.7-1.782l-.062.089a3.8,3.8,0,0,0-.266.473c0,2.583-2.586,5.743-2.586,5.743l-2.6-3.79-2.277,3.5a2.859,2.859,0,0,0-.912,1.621c-.072.23-.141.479-.207.745-.046.177-.089.364-.128.551-.023.1-.043.19-.062.289l-.059.3v.046c-.039.2-.079.413-.115.627s-.079.459-.115.692q-.039.226-.069.453c-.046.292-.085.587-.125.879-.023.171-.046.328-.066.509l-.079.656c.167.538.354,1.07.548,1.592a2.646,2.646,0,0,1,.213.9,22.423,22.423,0,0,0,12.322,0,.126.126,0,0,1,0-.033,3.907,3.907,0,0,1-.079-.9h0a24.6,24.6,0,0,1,.328-2.51,9.184,9.184,0,0,0,.062-1.234v-.148C338.406,463.218,338.4,463.1,338.4,462.982Zm0,0a2.265,2.265,0,0,0-.023-.394c-.023-.131-.02-.246-.036-.371s-.03-.249-.046-.374-.039-.249-.062-.374-.046-.249-.072-.374a.562.562,0,0,0-.026-.125c-.036-.164-.075-.328-.118-.5s-.069-.266-.108-.4a.56.56,0,0,0-.052-.174c-.02-.056-.056-.19-.085-.285l-.059-.184c-.026-.082-.052-.164-.082-.246-.049-.148-.1-.292-.154-.44s-.108-.292-.164-.436c-.112-.3-.233-.587-.354-.879-.476-1.135-1.011-2.254-1.5-3.364a18.61,18.61,0,0,1-.7-1.782l-.062.089a3.8,3.8,0,0,0-.266.473c0,2.583-2.586,5.743-2.586,5.743l-2.6-3.79-2.277,3.5a2.859,2.859,0,0,0-.912,1.621c-.072.23-.141.479-.207.745-.046.177-.089.364-.128.551-.023.1-.043.19-.062.289l-.059.3v.046c-.039.2-.079.413-.115.627s-.079.459-.115.692q-.039.226-.069.453c-.046.292-.085.587-.125.879-.023.171-.046.328-.066.509l-.079.656c.167.538.354,1.07.548,1.592a2.646,2.646,0,0,1,.213.9,22.423,22.423,0,0,0,12.322,0,.126.126,0,0,1,0-.033,3.907,3.907,0,0,1-.079-.9h0a24.6,24.6,0,0,1,.328-2.51,9.184,9.184,0,0,0,.062-1.234v-.148C338.406,463.218,338.4,463.1,338.4,462.982Zm0,0a2.265,2.265,0,0,0-.023-.394c-.023-.131-.02-.246-.036-.371s-.03-.249-.046-.374-.039-.249-.062-.374-.046-.249-.072-.374a.562.562,0,0,0-.026-.125c-.036-.164-.075-.328-.118-.5s-.069-.266-.108-.4a.56.56,0,0,0-.052-.174c-.02-.056-.056-.19-.085-.285l-.059-.184c-.026-.082-.052-.164-.082-.246-.049-.148-.1-.292-.154-.44s-.108-.292-.164-.436c-.112-.3-.233-.587-.354-.879-.476-1.135-1.011-2.254-1.5-3.364a18.61,18.61,0,0,1-.7-1.782l-.062.089a3.8,3.8,0,0,0-.266.473c0,2.583-2.586,5.743-2.586,5.743l-2.6-3.79-2.277,3.5a2.859,2.859,0,0,0-.912,1.621c-.072.23-.141.479-.207.745-.046.177-.089.364-.128.551-.023.1-.043.19-.062.289l-.059.3v.046c-.039.2-.079.413-.115.627s-.079.459-.115.692q-.039.226-.069.453c-.046.292-.085.587-.125.879-.023.171-.046.328-.066.509l-.079.656c.167.538.354,1.07.548,1.592a2.646,2.646,0,0,1,.213.9,22.423,22.423,0,0,0,12.322,0,.126.126,0,0,1,0-.033,3.907,3.907,0,0,1-.079-.9h0a24.6,24.6,0,0,1,.328-2.51,9.184,9.184,0,0,0,.062-1.234v-.148C338.406,463.218,338.4,463.1,338.4,462.982Zm0,0a2.265,2.265,0,0,0-.023-.394c-.023-.131-.02-.246-.036-.371s-.03-.249-.046-.374-.039-.249-.062-.374-.046-.249-.072-.374a.562.562,0,0,0-.026-.125c-.036-.164-.075-.328-.118-.5s-.069-.266-.108-.4a.56.56,0,0,0-.052-.174c-.02-.056-.056-.19-.085-.285l-.059-.184c-.026-.082-.052-.164-.082-.246-.049-.148-.1-.292-.154-.44s-.108-.292-.164-.436c-.112-.3-.233-.587-.354-.879-.476-1.135-1.011-2.254-1.5-3.364a18.61,18.61,0,0,1-.7-1.782l-.062.089a3.8,3.8,0,0,0-.266.473c0,2.583-2.586,5.743-2.586,5.743l-2.6-3.79-2.277,3.5a2.859,2.859,0,0,0-.912,1.621c-.072.23-.141.479-.207.745-.046.177-.089.364-.128.551-.023.1-.043.19-.062.289l-.059.3v.046c-.039.2-.079.413-.115.627s-.079.459-.115.692q-.039.226-.069.453c-.046.292-.085.587-.125.879-.023.171-.046.328-.066.509l-.079.656c.167.538.354,1.07.548,1.592a2.646,2.646,0,0,1,.213.9,22.423,22.423,0,0,0,12.322,0,.126.126,0,0,1,0-.033,3.907,3.907,0,0,1-.079-.9h0a24.6,24.6,0,0,1,.328-2.51,9.184,9.184,0,0,0,.062-1.234v-.148C338.406,463.218,338.4,463.1,338.4,462.982Z" transform="translate(-309.639 -424.4)" fill="#fff"/>
      <path id="Path_2176" data-name="Path 2176" d="M316.031,454.753l-.22-.029a8,8,0,0,1-.984-.2l-.121-.033c-.8-.226-1.677-.633-1.874-1.349a1.277,1.277,0,0,1,.02-.7,6,6,0,0,1,.446-1.129v-.02a1.577,1.577,0,0,1,.082-.148,3.282,3.282,0,0,1,1.185-1.29l-.394.062-3.334.541-5.169.833s-.919-.184-2.169,3.262a.533.533,0,0,1-.043.128c-.3.843-.62,1.9-.948,3.213-.226.912-.433,1.808-.624,2.678-.056.263-.112.522-.164.778a20.867,20.867,0,0,0,1.907,1.969l.108.1a22.4,22.4,0,0,0,4.371,3.095l.062.033a21.63,21.63,0,0,0,3.085,1.365l.279.1c.059-.607.125-1.28.2-1.969a.56.56,0,0,1,.026-.207l.079-.656c.02-.167.043-.328.066-.509.039-.292.079-.587.125-.88q.03-.226.069-.453c.036-.233.076-.466.115-.692s.076-.423.115-.627v-.046l.059-.3c.02-.1.039-.194.062-.289.039-.187.082-.374.128-.551.066-.266.135-.515.207-.745a2.805,2.805,0,0,1,.912-1.621l2.277-3.5.1-.148.043-.066Z" transform="translate(-296.391 -424.571)" opacity="0.1"/>
      <path id="Path_2177" data-name="Path 2177" d="M315.367,454.773l-2.419,3.715a2.774,2.774,0,0,0-.9,1.572c-.075.243-.151.509-.223.788a39.235,39.235,0,0,0-.742,4.3.511.511,0,0,1-.026.2c-.112.912-.2,1.808-.279,2.6a21.639,21.639,0,0,1-3.085-1.365l-.062-.033a22.4,22.4,0,0,1-4.371-3.095l-.108-.1a20.86,20.86,0,0,1-1.907-1.969c-.079-.089-.154-.18-.23-.272.036-.171.072-.328.112-.512.187-.87.394-1.762.62-2.671a32.331,32.331,0,0,1,1.116-3.675,1.006,1.006,0,0,1,.043-.105c1.162-2.99,2-2.822,2-2.822l5.457-.879,3.446-.558-.108.062a3.494,3.494,0,0,0-.948,1.011l-.1.161c-.039.062-.075.131-.115.2a5.816,5.816,0,0,0-.453,1.149,1.208,1.208,0,0,0,.079.939,3.126,3.126,0,0,0,2.025,1.175l.128.033A8.234,8.234,0,0,0,315.367,454.773Z" transform="translate(-295.92 -424.585)" fill="#444176"/>
      <path id="Path_2178" data-name="Path 2178" d="M381.69,459.692l-.135-2.914c.574-4.594-.574-4.88-.574-4.88l-1.365-.656h-.036l-5.49-2.661-.213-.105-.066-.03h0l-.715-.348h0l-.453-.22-.847-.41-.286-.138v1.139c0,.328.029.712.056,1.158.059,1.122.167,2.625.361,4.4.108,1.027.246,2.149.417,3.354.1.712.174,1.421.22,2.113a37.2,37.2,0,0,1-.217,6.99l.3-.1a21.974,21.974,0,0,0,2.376-.952h0a21.807,21.807,0,0,0,4.233-2.6l.059-.043a21.908,21.908,0,0,0,2.382-2.163Z" transform="translate(-343.278 -422.872)" opacity="0.1"/>
      <path id="Path_2179" data-name="Path 2179" d="M382.556,459.658l-.135-2.921c.574-4.594-.574-4.88-.574-4.88l-1.641-.794h-.033l-5.507-2.671-.253-.121-.049-.023-.4-.2-.535-.259-1.057-.512v.466h0v.578c0,.328.03.758.059,1.247.056,1.047.154,2.419.328,4.049.118,1.119.266,2.363.459,3.7q.151,1.073.217,2.123a37.138,37.138,0,0,1-.2,6.891,21.994,21.994,0,0,0,2.376-.952h0a21.811,21.811,0,0,0,4.233-2.6l.059-.043a21.888,21.888,0,0,0,2.382-2.163q.144-.144.276-.3Z" transform="translate(-343.856 -422.838)" fill="#444176"/>
      <path id="Path_2180" data-name="Path 2180" d="M321.433,391.587a4.774,4.774,0,0,0-.45,1.641c-.351,1.283-1.743,2.087-2.061,3.38-.187.755.03,1.555-.1,2.323-.233,1.414-1.526,2.373-2.248,3.61a4.87,4.87,0,0,0-.3,4.233,6.787,6.787,0,0,1,.417,1.07,3.908,3.908,0,0,1-.1,1.641,5.2,5.2,0,0,0,.066,3.508,3.357,3.357,0,0,0,2.458,1.575,9.551,9.551,0,0,0,3.009-.138,8.705,8.705,0,0,0,3.144-.919l-3.554-8.578a7.16,7.16,0,0,1-.722-2.7,5.935,5.935,0,0,1,.443-2.015,17.459,17.459,0,0,1,2.953-5.1c.515.6.476,1.506.906,2.169a3.423,3.423,0,0,0,1.464,1.093,48.5,48.5,0,0,0,5.182,2.166.679.679,0,0,1,.505,1.011l-1.339,5.526c-.3,1.217-.555,2.625.2,3.61s2.468,1.45,2.478,2.72a4.343,4.343,0,0,0,0,.6c.089.594.794.879,1.395.909a4.158,4.158,0,0,0,4.171-3.4c.328-2.172-1.109-4.174-1.71-6.291-1.011-3.561.328-7.738-1.657-10.865-1.608-2.537-4.538-3.226-7.321-3.541C326.713,390.593,322.808,389.773,321.433,391.587Z" transform="translate(-305.937 -384.649)" opacity="0.1"/>
      <path id="Path_2181" data-name="Path 2181" d="M321.433,390.587a4.775,4.775,0,0,0-.45,1.641c-.351,1.283-1.743,2.087-2.061,3.38-.187.755.03,1.555-.1,2.323-.233,1.414-1.526,2.373-2.248,3.61a4.87,4.87,0,0,0-.3,4.233,6.783,6.783,0,0,1,.417,1.07,3.909,3.909,0,0,1-.1,1.641,5.2,5.2,0,0,0,.066,3.508,3.357,3.357,0,0,0,2.458,1.575,9.553,9.553,0,0,0,3.009-.138,8.706,8.706,0,0,0,3.144-.919l-3.554-8.578a7.16,7.16,0,0,1-.722-2.7,5.935,5.935,0,0,1,.443-2.015,17.457,17.457,0,0,1,2.953-5.1c.515.6.476,1.506.906,2.169a3.422,3.422,0,0,0,1.464,1.093,48.478,48.478,0,0,0,5.182,2.166.679.679,0,0,1,.505,1.011l-1.339,5.526c-.3,1.217-.555,2.625.2,3.61s2.468,1.451,2.478,2.72a4.352,4.352,0,0,0,0,.6c.089.594.794.879,1.395.909a4.158,4.158,0,0,0,4.171-3.4c.328-2.172-1.109-4.174-1.71-6.291-1.011-3.561.328-7.738-1.657-10.865-1.608-2.537-4.538-3.226-7.321-3.541C326.713,389.593,322.808,388.773,321.433,390.587Z" transform="translate(-305.937 -383.978)" fill="#493545"/>
    </g>
    <g id="Group_5" data-name="Group 5" transform="translate(79.507 193.59)" opacity="0.5">
      <path id="Path_2182" data-name="Path 2182" d="M330.11,636.114a22.21,22.21,0,0,1-5.372,14.521c-.171.2-.348.4-.528.591q-.135.151-.276.3a21.9,21.9,0,0,1-2.382,2.163l-.059.043a21.807,21.807,0,0,1-4.233,2.6h0a21.978,21.978,0,0,1-2.376.952l-.3.1c-.184.062-.374.118-.561.171l-.075.023a22.424,22.424,0,0,1-12.322,0h-.033c-.328-.1-.656-.194-.958-.3l-.279-.1a21.647,21.647,0,0,1-3.085-1.365l-.062-.033a22.4,22.4,0,0,1-4.371-3.095l-.108-.1a20.857,20.857,0,0,1-1.907-1.969c-.079-.089-.154-.18-.23-.272-.144-.171-.282-.348-.42-.525a22.315,22.315,0,1,1,39.937-13.691Z" transform="translate(-285.48 -613.798)" fill="#c0bccf"/>
      <path id="Path_2183" data-name="Path 2183" d="M334.607,659.249l-.135-2.953c.574-4.67-.574-4.962-.574-4.962l-1.641-.807-.033-.016-5.507-2.714-.253-.125-.033-.135s.108-.328-.436-.384a2,2,0,0,1-.138-.837,3.588,3.588,0,0,1,.9-1.641,6.74,6.74,0,0,0,1.08-4.781,11.245,11.245,0,0,0-1.831-4.62l-.105-.154a5.561,5.561,0,0,0,.194-1.451c0-3.777-3.82-6.839-8.532-6.839-4.266,0-7.82,2.524-8.437,5.815a2.992,2.992,0,0,0-.259.407c-.866,1.621.473,2.832.515,4.45a5.753,5.753,0,0,1-1.313,3.016c-.594.945-1.034,2.2-.423,3.134.2.308.5.542.683.863.633,1.119-.42,2.4-.8,3.629a3.477,3.477,0,0,0-.105.437l-2.533.413s-.837-.171-2,2.868a1.042,1.042,0,0,0-.043.108,33.266,33.266,0,0,0-1.116,3.738q-.34,1.388-.62,2.714c-.039.174-.075.348-.112.522.076.092.151.187.23.276a21.046,21.046,0,0,0,1.907,2.008l.108.105a22.409,22.409,0,0,0,4.371,3.147l.062.033a21.464,21.464,0,0,0,3.085,1.388l.279.1c.328.112.637.21.958.308a1.211,1.211,0,0,1,.026.151v-.144a22.073,22.073,0,0,0,12.322,0l.075-.023c.187-.052.377-.112.561-.174l.3-.1a22.13,22.13,0,0,0,6.609-3.61l.059-.043a22.029,22.029,0,0,0,2.382-2.2q.144-.144.276-.3Z" transform="translate(-295.907 -622.553)" fill="url(#linear-gradient-3)"/>
      <path id="Path_2184" data-name="Path 2184" d="M322.395,649.317a5.522,5.522,0,0,1-1.313,2.953c-.594.916-1.034,2.166-.423,3.081.2.3.5.535.683.85.633,1.1-.42,2.363-.8,3.57a4.482,4.482,0,0,0,1,4.086,10.872,10.872,0,0,0,3.518,2.57,31.394,31.394,0,0,0,8.7,3.1,8.331,8.331,0,0,0,4.771-.213,5.073,5.073,0,0,0,2.865-5.579c-.377-1.726-1.641-3.114-2.3-4.745a2.221,2.221,0,0,1-.217-1.027,3.469,3.469,0,0,1,.9-1.608,6.563,6.563,0,0,0,1.063-4.67,10.961,10.961,0,0,0-1.831-4.548,4.981,4.981,0,0,0-1.313-1.444,5.759,5.759,0,0,0-2.455-.742c-3.564-.5-7.256-1.044-10.849-1.227a2.328,2.328,0,0,0-2.53,1.227C321.017,646.534,322.352,647.726,322.395,649.317Z" transform="translate(-308.917 -633.896)" fill="#444176"/>
      <path id="Path_2185" data-name="Path 2185" d="M348.407,676.875l-6.763,9.618-6.6-.574s-.217,2.3-2.871-6.028c-1.483-4.657,1.533-3.039,2.126-4.328s1.641-2.428,1.729-3.38a5.967,5.967,0,0,0-.41-3.2l7.177-.86a5.356,5.356,0,0,0-.118,3C343.573,674.851,348.407,676.875,348.407,676.875Z" transform="translate(-316.575 -650.294)" fill="#c77485"/>
      <ellipse id="Ellipse_134" data-name="Ellipse 134" cx="8.532" cy="6.727" rx="8.532" ry="6.727" transform="translate(13.126 4.926)" fill="#444176"/>
      <path id="Path_2186" data-name="Path 2186" d="M350.549,671.113a7.174,7.174,0,0,1-6.649,1.07,5.967,5.967,0,0,0-.41-3.2l7.177-.86A5.356,5.356,0,0,0,350.549,671.113Z" transform="translate(-324.453 -650.294)" opacity="0.1"/>
      <circle id="Ellipse_135" data-name="Ellipse 135" cx="7.177" cy="7.177" r="7.177" transform="translate(14.59 7.634)" fill="#c77485"/>
      <path id="Path_2187" data-name="Path 2187" d="M340.614,692.475l-.167-.656-.144-.578-.213-.853-.039-.158-.033-.131s.171-.515-.955-.348l-.21.036c-.177.036-.384.085-.62.151l-.213.066-.282.089h0a6.153,6.153,0,0,0-2.382,1.437,5.362,5.362,0,0,0-.8.965c-.023.033-.039.062-.059.089a3.1,3.1,0,0,0-.207.381c0,2.586-2.586,5.743-2.586,5.743l-2.524-3.646-.049-.072-.6-.873-.213-.282-.072-.1-1.313-1.762-.328-.44-.108-.148-.161-.213-.377-.5-1.477.863-1.969,1.149-1.149,7.466v.207l.036.617.24,4.056v.056l-.42,1.68.062.033a21.635,21.635,0,0,0,3.085,1.365l.279.1c.328.108.637.207.958.3a1.153,1.153,0,0,1,.026.148v-.141a22.423,22.423,0,0,0,12.322,0l.075-.023c.187-.052.377-.108.561-.171l.3-.1a22.006,22.006,0,0,0,2.376-.952l.276-5.874.2-4.237v-.243Z" transform="translate(-309.492 -664.804)" opacity="0.1"/>
      <path id="Path_2188" data-name="Path 2188" d="M338.4,703.982a2.265,2.265,0,0,0-.023-.394c-.023-.131-.02-.246-.036-.371s-.03-.249-.046-.374-.039-.25-.062-.374-.046-.249-.072-.374a.562.562,0,0,0-.026-.125c-.036-.164-.075-.328-.118-.5s-.069-.266-.108-.4a.561.561,0,0,0-.052-.174c-.02-.056-.056-.19-.085-.285l-.059-.184c-.026-.082-.052-.164-.082-.246-.049-.148-.1-.292-.154-.44s-.108-.292-.164-.436c-.112-.3-.233-.587-.354-.879-.476-1.135-1.011-2.255-1.5-3.364a18.621,18.621,0,0,1-.7-1.782l-.062.089a3.8,3.8,0,0,0-.266.473c0,2.583-2.586,5.743-2.586,5.743l-2.6-3.79-2.277,3.5a2.86,2.86,0,0,0-.912,1.621c-.072.23-.141.479-.207.745-.046.177-.089.364-.128.551-.023.1-.043.19-.062.289l-.059.3v.046c-.039.2-.079.413-.115.627s-.079.459-.115.692q-.039.226-.069.453c-.046.292-.085.588-.125.88-.023.171-.046.328-.066.509l-.079.656c.167.538.354,1.07.548,1.592a2.646,2.646,0,0,1,.213.9,22.423,22.423,0,0,0,12.322,0,.127.127,0,0,1,0-.033,3.9,3.9,0,0,1-.079-.9h0a24.6,24.6,0,0,1,.328-2.51,9.184,9.184,0,0,0,.062-1.234v-.148C338.406,704.218,338.4,704.1,338.4,703.982Zm0,0a2.265,2.265,0,0,0-.023-.394c-.023-.131-.02-.246-.036-.371s-.03-.249-.046-.374-.039-.25-.062-.374-.046-.249-.072-.374a.562.562,0,0,0-.026-.125c-.036-.164-.075-.328-.118-.5s-.069-.266-.108-.4a.561.561,0,0,0-.052-.174c-.02-.056-.056-.19-.085-.285l-.059-.184c-.026-.082-.052-.164-.082-.246-.049-.148-.1-.292-.154-.44s-.108-.292-.164-.436c-.112-.3-.233-.587-.354-.879-.476-1.135-1.011-2.255-1.5-3.364a18.621,18.621,0,0,1-.7-1.782l-.062.089a3.8,3.8,0,0,0-.266.473c0,2.583-2.586,5.743-2.586,5.743l-2.6-3.79-2.277,3.5a2.86,2.86,0,0,0-.912,1.621c-.072.23-.141.479-.207.745-.046.177-.089.364-.128.551-.023.1-.043.19-.062.289l-.059.3v.046c-.039.2-.079.413-.115.627s-.079.459-.115.692q-.039.226-.069.453c-.046.292-.085.588-.125.88-.023.171-.046.328-.066.509l-.079.656c.167.538.354,1.07.548,1.592a2.646,2.646,0,0,1,.213.9,22.423,22.423,0,0,0,12.322,0,.127.127,0,0,1,0-.033,3.9,3.9,0,0,1-.079-.9h0a24.6,24.6,0,0,1,.328-2.51,9.184,9.184,0,0,0,.062-1.234v-.148C338.406,704.218,338.4,704.1,338.4,703.982Zm0,0a2.265,2.265,0,0,0-.023-.394c-.023-.131-.02-.246-.036-.371s-.03-.249-.046-.374-.039-.25-.062-.374-.046-.249-.072-.374a.562.562,0,0,0-.026-.125c-.036-.164-.075-.328-.118-.5s-.069-.266-.108-.4a.561.561,0,0,0-.052-.174c-.02-.056-.056-.19-.085-.285l-.059-.184c-.026-.082-.052-.164-.082-.246-.049-.148-.1-.292-.154-.44s-.108-.292-.164-.436c-.112-.3-.233-.587-.354-.879-.476-1.135-1.011-2.255-1.5-3.364a18.621,18.621,0,0,1-.7-1.782l-.062.089a3.8,3.8,0,0,0-.266.473c0,2.583-2.586,5.743-2.586,5.743l-2.6-3.79-2.277,3.5a2.86,2.86,0,0,0-.912,1.621c-.072.23-.141.479-.207.745-.046.177-.089.364-.128.551-.023.1-.043.19-.062.289l-.059.3v.046c-.039.2-.079.413-.115.627s-.079.459-.115.692q-.039.226-.069.453c-.046.292-.085.588-.125.88-.023.171-.046.328-.066.509l-.079.656c.167.538.354,1.07.548,1.592a2.646,2.646,0,0,1,.213.9,22.423,22.423,0,0,0,12.322,0,.127.127,0,0,1,0-.033,3.9,3.9,0,0,1-.079-.9h0a24.6,24.6,0,0,1,.328-2.51,9.184,9.184,0,0,0,.062-1.234v-.148C338.406,704.218,338.4,704.1,338.4,703.982Zm3.479-6.16-1.172-4.676-.2-.8-.056-.22h0l-.285-1.142a.222.222,0,0,0,0-.03h0a.263.263,0,0,0-.023-.148c-.043-.085-.151-.174-.4-.2a2.036,2.036,0,0,0-.289,0h0a5,5,0,0,0-.843.157c-.135.036-.279.076-.433.125l-.282.089h-.026a6.263,6.263,0,0,0-2.067,1.149,5.582,5.582,0,0,0-1.05,1.162l-.062.089a3.786,3.786,0,0,0-.266.473c0,2.583-2.586,5.743-2.586,5.743l-2.6-3.79-.148-.213-.026-.036-.377-.555-.286-.381-.075-.1-1.345-1.8h0l-.427-.581v-.02l-.148-.2-.282-.374-.984.574-2.461,1.434-1.135,7.387v.079l.033.538.243,4.112v.233l-.371,1.48a21.64,21.64,0,0,0,3.085,1.365l.279.1c.328.108.637.207.958.3a1.17,1.17,0,0,1,.026.148v-.141a22.423,22.423,0,0,0,12.322,0l.075-.023c.187-.052.377-.108.561-.171l.3-.1a21.984,21.984,0,0,0,2.376-.952h0l.272-5.867.2-4.191Zm-16.139,11.331a1.175,1.175,0,0,1,.026.148v-.141Zm12.66-5.172a2.265,2.265,0,0,0-.023-.394c-.023-.131-.02-.246-.036-.371s-.03-.249-.046-.374-.039-.25-.062-.374-.046-.249-.072-.374a.562.562,0,0,0-.026-.125c-.036-.164-.075-.328-.118-.5s-.069-.266-.108-.4a.561.561,0,0,0-.052-.174c-.02-.056-.056-.19-.085-.285l-.059-.184c-.026-.082-.052-.164-.082-.246-.049-.148-.1-.292-.154-.44s-.108-.292-.164-.436c-.112-.3-.233-.587-.354-.879-.476-1.135-1.011-2.255-1.5-3.364a18.621,18.621,0,0,1-.7-1.782l-.062.089a3.8,3.8,0,0,0-.266.473c0,2.583-2.586,5.743-2.586,5.743l-2.6-3.79-2.277,3.5a2.86,2.86,0,0,0-.912,1.621c-.072.23-.141.479-.207.745-.046.177-.089.364-.128.551-.023.1-.043.19-.062.289l-.059.3v.046c-.039.2-.079.413-.115.627s-.079.459-.115.692q-.039.226-.069.453c-.046.292-.085.588-.125.88-.023.171-.046.328-.066.509l-.079.656c.167.538.354,1.07.548,1.592a2.646,2.646,0,0,1,.213.9,22.423,22.423,0,0,0,12.322,0,.127.127,0,0,1,0-.033,3.9,3.9,0,0,1-.079-.9h0a24.6,24.6,0,0,1,.328-2.51,9.184,9.184,0,0,0,.062-1.234v-.148C338.406,704.218,338.4,704.1,338.4,703.982Zm0,0a2.265,2.265,0,0,0-.023-.394c-.023-.131-.02-.246-.036-.371s-.03-.249-.046-.374-.039-.25-.062-.374-.046-.249-.072-.374a.562.562,0,0,0-.026-.125c-.036-.164-.075-.328-.118-.5s-.069-.266-.108-.4a.561.561,0,0,0-.052-.174c-.02-.056-.056-.19-.085-.285l-.059-.184c-.026-.082-.052-.164-.082-.246-.049-.148-.1-.292-.154-.44s-.108-.292-.164-.436c-.112-.3-.233-.587-.354-.879-.476-1.135-1.011-2.255-1.5-3.364a18.621,18.621,0,0,1-.7-1.782l-.062.089a3.8,3.8,0,0,0-.266.473c0,2.583-2.586,5.743-2.586,5.743l-2.6-3.79-2.277,3.5a2.86,2.86,0,0,0-.912,1.621c-.072.23-.141.479-.207.745-.046.177-.089.364-.128.551-.023.1-.043.19-.062.289l-.059.3v.046c-.039.2-.079.413-.115.627s-.079.459-.115.692q-.039.226-.069.453c-.046.292-.085.588-.125.88-.023.171-.046.328-.066.509l-.079.656c.167.538.354,1.07.548,1.592a2.646,2.646,0,0,1,.213.9,22.423,22.423,0,0,0,12.322,0,.127.127,0,0,1,0-.033,3.9,3.9,0,0,1-.079-.9h0a24.6,24.6,0,0,1,.328-2.51,9.184,9.184,0,0,0,.062-1.234v-.148C338.406,704.218,338.4,704.1,338.4,703.982Zm0,0a2.265,2.265,0,0,0-.023-.394c-.023-.131-.02-.246-.036-.371s-.03-.249-.046-.374-.039-.25-.062-.374-.046-.249-.072-.374a.562.562,0,0,0-.026-.125c-.036-.164-.075-.328-.118-.5s-.069-.266-.108-.4a.561.561,0,0,0-.052-.174c-.02-.056-.056-.19-.085-.285l-.059-.184c-.026-.082-.052-.164-.082-.246-.049-.148-.1-.292-.154-.44s-.108-.292-.164-.436c-.112-.3-.233-.587-.354-.879-.476-1.135-1.011-2.255-1.5-3.364a18.621,18.621,0,0,1-.7-1.782l-.062.089a3.8,3.8,0,0,0-.266.473c0,2.583-2.586,5.743-2.586,5.743l-2.6-3.79-2.277,3.5a2.86,2.86,0,0,0-.912,1.621c-.072.23-.141.479-.207.745-.046.177-.089.364-.128.551-.023.1-.043.19-.062.289l-.059.3v.046c-.039.2-.079.413-.115.627s-.079.459-.115.692q-.039.226-.069.453c-.046.292-.085.588-.125.88-.023.171-.046.328-.066.509l-.079.656c.167.538.354,1.07.548,1.592a2.646,2.646,0,0,1,.213.9,22.423,22.423,0,0,0,12.322,0,.127.127,0,0,1,0-.033,3.9,3.9,0,0,1-.079-.9h0a24.6,24.6,0,0,1,.328-2.51,9.184,9.184,0,0,0,.062-1.234v-.148C338.406,704.218,338.4,704.1,338.4,703.982Zm0,0a2.265,2.265,0,0,0-.023-.394c-.023-.131-.02-.246-.036-.371s-.03-.249-.046-.374-.039-.25-.062-.374-.046-.249-.072-.374a.562.562,0,0,0-.026-.125c-.036-.164-.075-.328-.118-.5s-.069-.266-.108-.4a.561.561,0,0,0-.052-.174c-.02-.056-.056-.19-.085-.285l-.059-.184c-.026-.082-.052-.164-.082-.246-.049-.148-.1-.292-.154-.44s-.108-.292-.164-.436c-.112-.3-.233-.587-.354-.879-.476-1.135-1.011-2.255-1.5-3.364a18.621,18.621,0,0,1-.7-1.782l-.062.089a3.8,3.8,0,0,0-.266.473c0,2.583-2.586,5.743-2.586,5.743l-2.6-3.79-2.277,3.5a2.86,2.86,0,0,0-.912,1.621c-.072.23-.141.479-.207.745-.046.177-.089.364-.128.551-.023.1-.043.19-.062.289l-.059.3v.046c-.039.2-.079.413-.115.627s-.079.459-.115.692q-.039.226-.069.453c-.046.292-.085.588-.125.88-.023.171-.046.328-.066.509l-.079.656c.167.538.354,1.07.548,1.592a2.646,2.646,0,0,1,.213.9,22.423,22.423,0,0,0,12.322,0,.127.127,0,0,1,0-.033,3.9,3.9,0,0,1-.079-.9h0a24.6,24.6,0,0,1,.328-2.51,9.184,9.184,0,0,0,.062-1.234v-.148C338.406,704.218,338.4,704.1,338.4,703.982Zm0,0a2.265,2.265,0,0,0-.023-.394c-.023-.131-.02-.246-.036-.371s-.03-.249-.046-.374-.039-.25-.062-.374-.046-.249-.072-.374a.562.562,0,0,0-.026-.125c-.036-.164-.075-.328-.118-.5s-.069-.266-.108-.4a.561.561,0,0,0-.052-.174c-.02-.056-.056-.19-.085-.285l-.059-.184c-.026-.082-.052-.164-.082-.246-.049-.148-.1-.292-.154-.44s-.108-.292-.164-.436c-.112-.3-.233-.587-.354-.879-.476-1.135-1.011-2.255-1.5-3.364a18.621,18.621,0,0,1-.7-1.782l-.062.089a3.8,3.8,0,0,0-.266.473c0,2.583-2.586,5.743-2.586,5.743l-2.6-3.79-2.277,3.5a2.86,2.86,0,0,0-.912,1.621c-.072.23-.141.479-.207.745-.046.177-.089.364-.128.551-.023.1-.043.19-.062.289l-.059.3v.046c-.039.2-.079.413-.115.627s-.079.459-.115.692q-.039.226-.069.453c-.046.292-.085.588-.125.88-.023.171-.046.328-.066.509l-.079.656c.167.538.354,1.07.548,1.592a2.646,2.646,0,0,1,.213.9,22.423,22.423,0,0,0,12.322,0,.127.127,0,0,1,0-.033,3.9,3.9,0,0,1-.079-.9h0a24.6,24.6,0,0,1,.328-2.51,9.184,9.184,0,0,0,.062-1.234v-.148C338.406,704.218,338.4,704.1,338.4,703.982Zm0,0a2.265,2.265,0,0,0-.023-.394c-.023-.131-.02-.246-.036-.371s-.03-.249-.046-.374-.039-.25-.062-.374-.046-.249-.072-.374a.562.562,0,0,0-.026-.125c-.036-.164-.075-.328-.118-.5s-.069-.266-.108-.4a.561.561,0,0,0-.052-.174c-.02-.056-.056-.19-.085-.285l-.059-.184c-.026-.082-.052-.164-.082-.246-.049-.148-.1-.292-.154-.44s-.108-.292-.164-.436c-.112-.3-.233-.587-.354-.879-.476-1.135-1.011-2.255-1.5-3.364a18.621,18.621,0,0,1-.7-1.782l-.062.089a3.8,3.8,0,0,0-.266.473c0,2.583-2.586,5.743-2.586,5.743l-2.6-3.79-2.277,3.5a2.86,2.86,0,0,0-.912,1.621c-.072.23-.141.479-.207.745-.046.177-.089.364-.128.551-.023.1-.043.19-.062.289l-.059.3v.046c-.039.2-.079.413-.115.627s-.079.459-.115.692q-.039.226-.069.453c-.046.292-.085.588-.125.88-.023.171-.046.328-.066.509l-.079.656c.167.538.354,1.07.548,1.592a2.646,2.646,0,0,1,.213.9,22.423,22.423,0,0,0,12.322,0,.127.127,0,0,1,0-.033,3.9,3.9,0,0,1-.079-.9h0a24.6,24.6,0,0,1,.328-2.51,9.184,9.184,0,0,0,.062-1.234v-.148C338.406,704.218,338.4,704.1,338.4,703.982Zm0,0a2.265,2.265,0,0,0-.023-.394c-.023-.131-.02-.246-.036-.371s-.03-.249-.046-.374-.039-.25-.062-.374-.046-.249-.072-.374a.562.562,0,0,0-.026-.125c-.036-.164-.075-.328-.118-.5s-.069-.266-.108-.4a.561.561,0,0,0-.052-.174c-.02-.056-.056-.19-.085-.285l-.059-.184c-.026-.082-.052-.164-.082-.246-.049-.148-.1-.292-.154-.44s-.108-.292-.164-.436c-.112-.3-.233-.587-.354-.879-.476-1.135-1.011-2.255-1.5-3.364a18.621,18.621,0,0,1-.7-1.782l-.062.089a3.8,3.8,0,0,0-.266.473c0,2.583-2.586,5.743-2.586,5.743l-2.6-3.79-2.277,3.5a2.86,2.86,0,0,0-.912,1.621c-.072.23-.141.479-.207.745-.046.177-.089.364-.128.551-.023.1-.043.19-.062.289l-.059.3v.046c-.039.2-.079.413-.115.627s-.079.459-.115.692q-.039.226-.069.453c-.046.292-.085.588-.125.88-.023.171-.046.328-.066.509l-.079.656c.167.538.354,1.07.548,1.592a2.646,2.646,0,0,1,.213.9,22.423,22.423,0,0,0,12.322,0,.127.127,0,0,1,0-.033,3.9,3.9,0,0,1-.079-.9h0a24.6,24.6,0,0,1,.328-2.51,9.184,9.184,0,0,0,.062-1.234v-.148C338.406,704.218,338.4,704.1,338.4,703.982Zm0,0a2.265,2.265,0,0,0-.023-.394c-.023-.131-.02-.246-.036-.371s-.03-.249-.046-.374-.039-.25-.062-.374-.046-.249-.072-.374a.562.562,0,0,0-.026-.125c-.036-.164-.075-.328-.118-.5s-.069-.266-.108-.4a.561.561,0,0,0-.052-.174c-.02-.056-.056-.19-.085-.285l-.059-.184c-.026-.082-.052-.164-.082-.246-.049-.148-.1-.292-.154-.44s-.108-.292-.164-.436c-.112-.3-.233-.587-.354-.879-.476-1.135-1.011-2.255-1.5-3.364a18.621,18.621,0,0,1-.7-1.782l-.062.089a3.8,3.8,0,0,0-.266.473c0,2.583-2.586,5.743-2.586,5.743l-2.6-3.79-2.277,3.5a2.86,2.86,0,0,0-.912,1.621c-.072.23-.141.479-.207.745-.046.177-.089.364-.128.551-.023.1-.043.19-.062.289l-.059.3v.046c-.039.2-.079.413-.115.627s-.079.459-.115.692q-.039.226-.069.453c-.046.292-.085.588-.125.88-.023.171-.046.328-.066.509l-.079.656c.167.538.354,1.07.548,1.592a2.646,2.646,0,0,1,.213.9,22.423,22.423,0,0,0,12.322,0,.127.127,0,0,1,0-.033,3.9,3.9,0,0,1-.079-.9h0a24.6,24.6,0,0,1,.328-2.51,9.184,9.184,0,0,0,.062-1.234v-.148C338.406,704.218,338.4,704.1,338.4,703.982Z" transform="translate(-309.639 -665.4)" fill="#444176"/>
      <path id="Path_2189" data-name="Path 2189" d="M316.031,695.753l-.22-.03a8,8,0,0,1-.984-.2l-.121-.033c-.8-.227-1.677-.633-1.874-1.349a1.277,1.277,0,0,1,.02-.7,5.992,5.992,0,0,1,.446-1.129v-.02a1.57,1.57,0,0,1,.082-.148,3.281,3.281,0,0,1,1.185-1.29l-.394.062-3.334.542-5.169.833s-.919-.184-2.169,3.262a.533.533,0,0,1-.043.128c-.3.843-.62,1.9-.948,3.213-.226.912-.433,1.808-.624,2.678-.056.263-.112.522-.164.778a20.859,20.859,0,0,0,1.907,1.969l.108.1a22.4,22.4,0,0,0,4.371,3.095l.062.033a21.637,21.637,0,0,0,3.085,1.365l.279.1c.059-.607.125-1.28.2-1.969a.561.561,0,0,1,.026-.207l.079-.656c.02-.167.043-.328.066-.509.039-.292.079-.587.125-.879q.03-.227.069-.453c.036-.233.076-.466.115-.692s.076-.423.115-.627v-.046l.059-.3c.02-.1.039-.194.062-.289.039-.187.082-.374.128-.551.066-.266.135-.515.207-.745a2.805,2.805,0,0,1,.912-1.621l2.277-3.5.1-.148.043-.066Z" transform="translate(-296.391 -665.571)" opacity="0.1"/>
      <path id="Path_2190" data-name="Path 2190" d="M315.367,695.773l-2.419,3.715a2.775,2.775,0,0,0-.9,1.572c-.075.243-.151.509-.223.788a39.241,39.241,0,0,0-.742,4.3.511.511,0,0,1-.026.2c-.112.912-.2,1.808-.279,2.6a21.622,21.622,0,0,1-3.085-1.365l-.062-.033a22.394,22.394,0,0,1-4.371-3.094l-.108-.1a20.854,20.854,0,0,1-1.907-1.969c-.079-.089-.154-.18-.23-.272.036-.171.072-.328.112-.512.187-.87.394-1.762.62-2.671a32.323,32.323,0,0,1,1.116-3.675,1.009,1.009,0,0,1,.043-.1c1.162-2.99,2-2.822,2-2.822l5.457-.88,3.446-.558-.108.062a3.5,3.5,0,0,0-.948,1.011l-.1.161c-.039.062-.075.131-.115.2a5.815,5.815,0,0,0-.453,1.149,1.208,1.208,0,0,0,.079.938,3.126,3.126,0,0,0,2.025,1.175l.128.033A8.234,8.234,0,0,0,315.367,695.773Z" transform="translate(-295.92 -665.585)" fill="#f1d2d7"/>
      <path id="Path_2191" data-name="Path 2191" d="M381.69,700.692l-.135-2.914c.574-4.594-.574-4.88-.574-4.88l-1.365-.656h-.036l-5.49-2.661-.213-.105-.066-.03h0l-.715-.348h0l-.453-.22-.847-.41-.286-.138v1.139c0,.328.029.712.056,1.158.059,1.122.167,2.625.361,4.4.108,1.027.246,2.149.417,3.354.1.712.174,1.421.22,2.113a37.2,37.2,0,0,1-.217,6.99l.3-.1a21.993,21.993,0,0,0,2.376-.952h0a21.81,21.81,0,0,0,4.233-2.6l.059-.043a21.893,21.893,0,0,0,2.382-2.163Z" transform="translate(-343.278 -663.872)" opacity="0.1"/>
      <path id="Path_2192" data-name="Path 2192" d="M382.556,700.658l-.135-2.921c.574-4.594-.574-4.88-.574-4.88l-1.641-.794h-.033l-5.507-2.671-.253-.122-.049-.023-.4-.2-.535-.259-1.057-.512v.466h0v.578c0,.328.03.758.059,1.247.056,1.047.154,2.419.328,4.049.118,1.119.266,2.363.459,3.7q.151,1.073.217,2.123a37.138,37.138,0,0,1-.2,6.891,22.219,22.219,0,0,0,6.609-3.551l.059-.043a21.9,21.9,0,0,0,2.382-2.163q.144-.144.276-.3Z" transform="translate(-343.856 -663.838)" fill="#f1d2d7"/>
      <path id="Path_2193" data-name="Path 2193" d="M335.327,640.288a8.21,8.21,0,0,1,3.072-.328,10.058,10.058,0,0,1,2.346,1.139,6.074,6.074,0,0,0,2.422.64,1.424,1.424,0,0,0,.889-.174,1.378,1.378,0,0,0,.4-1.352,7.762,7.762,0,0,0-1.969-3.688,7.223,7.223,0,0,0-1.234-1.25,6.517,6.517,0,0,0-4.2-.952,10.514,10.514,0,0,0-4.808,1.234c-.984.564-3.242,2.343-2.458,3.629C330.611,640.531,334.037,640.508,335.327,640.288Z" transform="translate(-315.138 -627.578)" opacity="0.1"/>
      <path id="Path_2194" data-name="Path 2194" d="M335.327,639.288a8.21,8.21,0,0,1,3.072-.328,10.058,10.058,0,0,1,2.346,1.139,6.076,6.076,0,0,0,2.422.64,1.425,1.425,0,0,0,.889-.174,1.378,1.378,0,0,0,.4-1.352,7.762,7.762,0,0,0-1.969-3.689,7.217,7.217,0,0,0-1.234-1.25,6.517,6.517,0,0,0-4.2-.952,10.515,10.515,0,0,0-4.808,1.234c-.984.565-3.242,2.343-2.458,3.629C330.611,639.531,334.037,639.508,335.327,639.288Z" transform="translate(-315.138 -626.906)" fill="#444176"/>
    </g>
    <path id="Path_2195" data-name="Path 2195" d="M619.95,416.016H620c.072,2.2.384,4.187.984,4.739,1.431,1.313,7.364-1.313,6.957-2.9-.082-.328-.22-.866-.394-1.546,1.6-.2,2.97-.656,3.515-1.595l1.031,3.177.072.226h.079c.679,6.439,2.218,19.808,3.449,21.6,1.641,2.373,3.528,12.654,3.528,12.654l3.528,21.091s1.359,12.142,2.172,13.454a1.526,1.526,0,0,0,.893.463,12.927,12.927,0,0,1-1.969,4.017c-1.641,1.844-3.8,5.536-5.7,5.274s-2.442,3.692,1.086,4.217a29.163,29.163,0,0,0,7.459-.436,2.669,2.669,0,0,0,2.583,2.547c3.528.528,10.856-1.053,10.856-1.053s6.235-2.625,6.514-4.483c.2-1.345-.758-6.747-1.29-9.579.984-1.578-.066-15.2-.066-15.2l-1.9-26.1s1.086-14.5,0-17.137c-.679-1.641-.932-9.189-1.027-14.587l1.313.085a2.427,2.427,0,0,0,.2-.285l.328.023a4.36,4.36,0,0,0,.272-4.745c-1.007-2.156-.817-11.889-.656-16.736h0l.194-2.3a.657.657,0,0,0,.161-.249,24.072,24.072,0,0,0,7.328-2.218,7.437,7.437,0,0,0,1.923-1.168c1.359-1.313.542-9.228-2.172-21.091s-5.155-10.81-5.155-10.81-6.514-.528-9.5-4.483-4.991-3.9-4.991-3.9h0c-.075-.518-.128-1.007-.164-1.464,0-.171-.026-.328-.036-.5a8.676,8.676,0,0,0,2.258-3.423,16.962,16.962,0,0,0,1.946-.85,2.314,2.314,0,0,0,.4-.374,3.318,3.318,0,0,0,1.047-2.064,8.443,8.443,0,0,0-.121-2.589,6.275,6.275,0,0,0-4.141-5.684q-4.305-2.261-8.634-4.476a4.766,4.766,0,0,0-1.848-.656,4.924,4.924,0,0,0-3.124,1.477,13.309,13.309,0,0,0-1.066.935,5.983,5.983,0,0,0-.784.843,8.088,8.088,0,0,0-1.073,6.035.827.827,0,0,0,.876.738,8.461,8.461,0,0,0-.9,3.807,8.631,8.631,0,0,0,4.007,7.249c0,.184,0,.364.016.538a19.249,19.249,0,0,1-.066,2.018s-7.22,3.9-8.03,5.746-3.8,3.163-3.8,3.163-5.7,2.9-5.7,13.182l-2.986,14.5-.542,27.68s.374-.328.984-.794c-.02.184-.036.374-.052.568a31.248,31.248,0,0,0-.082,3.18Zm36.459,71.641c-.112.423-.276.984-.482,1.641-.092-.545-.184-1.083-.276-1.595C655.887,487.679,656.14,487.666,656.409,487.656Z" transform="translate(-430.139 -226.113)" fill="url(#linear-gradient-4)"/>
    <path id="Path_2196" data-name="Path 2196" d="M683.146,808.9s-1.047,4.706-2.625,6.534-3.646,5.49-5.47,5.228-2.353,3.659,1.047,4.181,10.439-1.043,10.439-1.043,6.012-2.625,6.271-4.443-1.569-11.24-1.569-11.24Z" transform="translate(-466.735 -550.761)" fill="#53526b"/>
    <path id="Path_2197" data-name="Path 2197" d="M683.146,808.9s-1.047,4.706-2.625,6.534-3.646,5.49-5.47,5.228-2.353,3.659,1.047,4.181,10.439-1.043,10.439-1.043,6.012-2.625,6.271-4.443-1.569-11.24-1.569-11.24Z" transform="translate(-466.735 -550.761)" opacity="0.05"/>
    <path id="Path_2198" data-name="Path 2198" d="M712.606,815.268s-1.047,4.706-2.625,6.534-3.656,5.49-5.477,5.228-2.353,3.659,1.047,4.181,10.455-1.047,10.455-1.047,6.012-2.625,6.271-4.443-1.569-11.239-1.569-11.239Z" transform="translate(-486.523 -555.034)" fill="#53526b"/>
    <path id="Path_2199" data-name="Path 2199" d="M659.66,598.67s2.09,22.476,3.659,24.829,3.4,12.546,3.4,12.546l3.4,20.907s1.313,12.024,2.09,13.33,10.478.745,10.478.745L676.649,601.8Z" transform="translate(-457.362 -410.044)" fill="#5f5d7e"/>
    <path id="Path_2200" data-name="Path 2200" d="M659.66,598.67s2.09,22.476,3.659,24.829,3.4,12.546,3.4,12.546l3.4,20.907s1.313,12.024,2.09,13.33,10.478.745,10.478.745L676.649,601.8Z" transform="translate(-457.362 -410.044)" opacity="0.05"/>
    <path id="Path_2201" data-name="Path 2201" d="M646.92,566l.683,2.169,3.692,11.719.072.223h.02c.5.112,10.957,2.517,13.215,3.255a3.188,3.188,0,0,1,.358.135c1.047.522,2.353,19.338,2.353,19.338s.784,17.773,1.313,19.079,2.625,28.222,3.922,27.441,10.714,0,10.714,0c1.047-1.047,0-15.158,0-15.158L681.4,608.333s1.047-14.373,0-16.989-1.047-20.123-1.047-20.123l-21.393-3.344-2.067-.328Z" transform="translate(-448.803 -388.095)" fill="#5f5d7e"/>
    <path id="Path_2202" data-name="Path 2202" d="M649,571.108l3.692,11.719.089.23c.5.112,10.957,2.517,13.215,3.255h.226l-5.845-15.5-.167-.446-1.9.121Z" transform="translate(-450.201 -391.031)" opacity="0.02"/>
    <path id="Path_2203" data-name="Path 2203" d="M674.685,406.73s-9.671,10.455-15.683,1.828l-5.749,3.922,1.047,6.012-3.4,45.473s8.887-.263,15.158,1.828a9.727,9.727,0,0,0,10.193-2.353l-1.034-39.983,2.353-12.283Z" transform="translate(-451.477 -281.091)" opacity="0.1"/>
    <path id="Path_2204" data-name="Path 2204" d="M674.685,404.34S665.014,414.8,659,406.168l-5.749,3.922L654.3,416.1l-3.4,45.473s8.887-.263,15.158,1.828a9.727,9.727,0,0,0,10.193-2.353l-1.034-39.983,2.353-12.283Z" transform="translate(-451.477 -279.486)" fill="#53526b"/>
    <g id="TESLA" transform="translate(200.854 170.338)">
      <g id="g8">
        <path id="polyline10" d="M615.263,522.36v1.647h-.525v-1.1h-1.92v1.1h-.528v-1.644l2.973,0" transform="translate(-612.215 -521.284)" fill="#e82127"/>
        <path id="path12" d="M657.839,543.485h-2.028a.748.748,0,0,1-.551-.545h3.127a.752.752,0,0,1-.551.545" transform="translate(-655.26 -542.94)" fill="#e82127"/>
      </g>
      <g id="g30" transform="translate(17.498 0.02)">
        <path id="path32" d="M712,543a.758.758,0,0,1-.548.541H710.6l-.043.016v2.153h-.525v-2.153l-.049-.016h-.853a.768.768,0,0,1-.548-.542H712" transform="translate(-708.58 -543)" fill="#e82127"/>
      </g>
    </g>
    <path id="Path_2205" data-name="Path 2205" d="M636.9,569.2s0,6.8-1.569,9.671-10.714,1.313-10.714,1.313l1.828-9.671Z" transform="translate(-433.821 -390.245)" fill="#d6dbe6"/>
    <path id="Path_2206" data-name="Path 2206" d="M625.682,591.969c1.378,1.313,7.091-1.313,6.7-2.875-.276-1.106-1.24-5.064-1.789-7.308l-.381-1.578s-3.347-1.047-4.529,0c-.43.381-.732,1.88-.873,3.692C624.566,587.046,624.812,591.135,625.682,591.969Z" transform="translate(-433.888 -397.328)" fill="#fdc2cc"/>
    <path id="Path_2207" data-name="Path 2207" d="M666,382.35l9.146,7.055s13.589-.784,10.193-7.318a24.363,24.363,0,0,1-2.625-9.234,19.319,19.319,0,0,1,0-3.574s-12.546-11.486-10.977,1.569a29.638,29.638,0,0,1,.217,3.019C672.14,383.666,666,382.35,666,382.35Z" transform="translate(-461.622 -252.793)" fill="#fdc2cc"/>
    <path id="Path_2208" data-name="Path 2208" d="M683.282,370.846a29.6,29.6,0,0,1,.217,3.019,8.565,8.565,0,0,0,4.748,1.424c2.34,0,4.063-2.277,5.618-3.79-.174-2.169.391-2.222.391-2.222S681.714,357.779,683.282,370.846Z" transform="translate(-473.141 -252.788)" opacity="0.1"/>
    <circle id="Ellipse_136" data-name="Ellipse 136" cx="8.624" cy="8.624" r="8.624" transform="translate(206.482 104.732)" fill="#fdc2cc"/>
    <path id="Path_2209" data-name="Path 2209" d="M703.012,394.38s1.437.131,4.312,4.05,9.146,4.443,9.146,4.443,2.353-1.047,4.965,10.714,3.4,19.6,2.09,20.907-6.534,3.141-9.159,3.141c0,0-.784,16.464.522,19.338a4.455,4.455,0,0,1-.263,4.706l-11.486-.784s-3.922-4.965-4.706-13.589-3.4-33.193-2.09-36.068,7.055-10.193,6.8-10.977A47.19,47.19,0,0,1,703.012,394.38Z" transform="translate(-481.766 -272.794)" opacity="0.1"/>
    <path id="Path_2210" data-name="Path 2210" d="M704.124,394.14s1.933-.052,4.807,3.869,9.143,4.443,9.143,4.443,2.353-1.047,4.965,10.714,3.4,19.6,2.09,20.907-6.534,3.137-9.146,3.137c0,0-.784,16.464.522,19.338a4.455,4.455,0,0,1-.263,4.706l-11.486-.784s-3.921-4.965-4.706-13.589-3.4-33.19-2.1-36.052,7.055-10.193,6.8-10.977S704.124,394.14,704.124,394.14Z" transform="translate(-482.849 -272.633)" fill="#d6dbe6"/>
    <path id="Path_2211" data-name="Path 2211" d="M625,583.889c1.25-.955,3.61-2.441,5.782-2.113L630.4,580.2s-3.347-1.047-4.529,0C625.436,580.578,625.138,582.075,625,583.889Z" transform="translate(-434.076 -397.321)" opacity="0.1"/>
    <path id="Path_2212" data-name="Path 2212" d="M644.14,399.16s-6.665,4.312-7.449,6.143-3.659,3.137-3.659,3.137-5.487,2.875-5.487,13.067l-2.875,14.373,13.067,18.295s1.569-18.295,2.353-22.738,1.828-12.8,1.828-12.8,3.922-4.965,3.4-6.271S644.14,399.16,644.14,399.16Z" transform="translate(-433.855 -276.005)" opacity="0.1"/>
    <path id="Path_2213" data-name="Path 2213" d="M642.494,398.92s-6.95,3.869-7.731,5.7-3.659,3.137-3.659,3.137-5.487,2.875-5.487,13.067l-2.875,14.373-.522,27.441s4.706-4.443,8.1-2.353,5.487-6.8,5.487-6.8,1.569-18.295,2.353-22.738,1.828-12.8,1.828-12.8,3.922-4.965,3.4-6.271S642.494,398.92,642.494,398.92Z" transform="translate(-432.209 -275.844)" fill="#d6dbe6"/>
    <path id="Path_2214" data-name="Path 2214" d="M673.147,331.249a8.529,8.529,0,0,1,1.523-1.5,4.665,4.665,0,0,1,3.009-1.464,4.5,4.5,0,0,1,1.779.637q4.168,2.2,8.312,4.437a7.73,7.73,0,0,1,2.786,2.126,8.2,8.2,0,0,1,1.2,3.511,8.606,8.606,0,0,1,.118,2.566,3.219,3.219,0,0,1-1.135,2.156c-.745.541-1.765.545-2.389,1.254a6.984,6.984,0,0,0-.774,1.483c-.256.5-.7.984-1.2.9a1.265,1.265,0,0,1-.883-1.165,7.067,7.067,0,0,1,.1-1.641,3.885,3.885,0,0,0-.6-2.76c-.394-.5-.958-.8-1.339-1.313-.912-1.234-.5-3.282-1.5-4.44a2.373,2.373,0,0,0-2.3-.656,9.82,9.82,0,0,0-2.3.984,17.064,17.064,0,0,1-3.147,1.214c-.912.249-1.969.847-2.281-.368A8.091,8.091,0,0,1,673.147,331.249Z" transform="translate(-465.612 -228.384)" opacity="0.1"/>
    <path id="Path_2215" data-name="Path 2215" d="M673.944,330.459a8.534,8.534,0,0,1,1.523-1.5,4.665,4.665,0,0,1,3.009-1.464,4.5,4.5,0,0,1,1.779.637c2.776,1.464,5.083.079,8.312,4.437.689.932,2.074,1.135,2.786,2.126a8.2,8.2,0,0,1,1.2,3.511,8.608,8.608,0,0,1,.118,2.566,3.219,3.219,0,0,1-1.135,2.156c-.745.541-1.766.545-2.389,1.254a6.983,6.983,0,0,0-.774,1.483c-.256.5-.7.984-1.2.9a1.264,1.264,0,0,1-.883-1.165,7.07,7.07,0,0,1,.1-1.641,3.885,3.885,0,0,0-.6-2.76c-.394-.5-.958-.8-1.339-1.313-.912-1.234-.5-3.282-1.5-4.44a2.372,2.372,0,0,0-2.3-.656,9.816,9.816,0,0,0-2.3.984,17.069,17.069,0,0,1-3.147,1.214c-.912.249-1.969.847-2.281-.368A8.072,8.072,0,0,1,673.944,330.459Z" transform="translate(-466.146 -227.853)" fill="#865a61"/>
    <path id="Path_2216" data-name="Path 2216" d="M738.21,458.09s3.485,8.887.87,12.546l-5.749-1.313s5.228,1.569,4.443-1.569S738.21,458.09,738.21,458.09Z" transform="translate(-506.857 -315.597)" opacity="0.1"/>
    <path id="Path_2217" data-name="Path 2217" d="M734.2,522.857s-7.581.522-9.671-1.047a20.018,20.018,0,0,0,9.435,3.922Z" transform="translate(-500.945 -358.407)" opacity="0.1"/>
    <path id="Path_2218" data-name="Path 2218" d="M646.973,474s-3.922,12.024-3.659,13.852.784,21.954.784,21.954l.784-.263-.263-21.954Z" transform="translate(-446.372 -326.286)" opacity="0.1"/>
    <path id="Path_2219" data-name="Path 2219" d="M379.653,207.013l-89.588-72.2a5.6,5.6,0,0,0-3.971-1.641h-3.807a48.568,48.568,0,1,0-8.411,8.411v3.8a5.605,5.605,0,0,0,1.641,3.971l89.588,72.2a5.579,5.579,0,0,0,7.922,0l6.6-6.6A5.635,5.635,0,0,0,379.653,207.013ZM243.968,133.177a12.389,12.389,0,1,1,0,.007Z" transform="translate(-145.474 -44.604)" fill="url(#linear-gradient-5)"/>
    <path id="Path_2220" data-name="Path 2220" d="M381.653,205.013l-89.588-72.2a5.605,5.605,0,0,0-3.971-1.641h-3.807a48.568,48.568,0,1,0-8.411,8.411v3.8a5.605,5.605,0,0,0,1.641,3.971l89.588,72.2a5.579,5.579,0,0,0,7.922,0l6.6-6.6a5.635,5.635,0,0,0,.023-7.948ZM245.968,131.177a12.389,12.389,0,1,1,0,.007Z" transform="translate(-146.818 -43.26)" fill="#c2f1c1"/>
    <path id="Path_2221" data-name="Path 2221" d="M715.137,479.7s-13.077-15-11.239-4.706c1.313,7.318,6.271,11.24,8.624,12.024S715.137,479.7,715.137,479.7Z" transform="translate(-486.964 -324.53)" fill="#fdc2cc"/>
    <path id="Path_2222" data-name="Path 2222" d="M730.414,454.51s.263,9.671,1.569,10.977-.784,2.875-.784,2.875l-5.228-1.313s1.313,8.624-4.181,7.58c0,0,3.659,3.4,7.318,3.922s3.4-.784,3.4-.784l5.487-6.534Z" transform="translate(-499.104 -313.192)" fill="#d6dbe6"/>
    <path id="Path_2223" data-name="Path 2223" d="M703.233,491.872l5.3-1.165-.709-2.445-3.282-1.313-4.266,1.969Z" transform="translate(-470.476 -327.156)" fill="#d6dbe6"/>
    <path id="Path_2224" data-name="Path 2224" d="M280.78,154.124a22.21,22.21,0,0,0,4.456,13.382c.292.391.6.768.916,1.139.171.2.348.4.528.591q.135.151.276.3a21.9,21.9,0,0,0,2.382,2.163l.059.043a22.22,22.22,0,0,0,6.609,3.551l.3.1c.184.062.374.118.561.171l.075.023c.1.026.19.056.289.079a22.221,22.221,0,0,0,5.851.778c.328,0,.673,0,1.007-.023a22.066,22.066,0,0,0,5.175-.847h.033c.312-.092.62-.187.925-.292h.033l.279-.1a21.63,21.63,0,0,0,3.085-1.365l.062-.033.328-.18a22.26,22.26,0,0,0,4.049-2.914l.108-.1a20.856,20.856,0,0,0,1.907-1.969l.069-.082c.056-.062.108-.125.161-.19.144-.171.282-.348.42-.525a22.315,22.315,0,1,0-39.944-13.688Z" transform="translate(-202.816 -96.392)" fill="#c0bccf"/>
    <path id="Path_2225" data-name="Path 2225" d="M297.666,171.5s4.84-.41,7.059-3.488c2.163-3,3.633-3.032,3.7-3.032h0c.056-.4.1-.781.121-1.135v-.049a.657.657,0,0,1-.305.135c-.433.066-.814-.345-1.03-.781a6.094,6.094,0,0,0-.656-1.293c-.535-.617-1.411-.62-2.048-1.089a2.815,2.815,0,0,1-.984-1.877,5.158,5.158,0,0,1-.039-.82,9.088,9.088,0,0,1,.138-1.749,7.2,7.2,0,0,1,1.03-3.055c.607-.857,1.8-1.04,2.386-1.851,2.766-3.794,4.739-2.589,7.118-3.862a3.813,3.813,0,0,1,1.523-.555,3.981,3.981,0,0,1,2.576,1.277,7.356,7.356,0,0,1,1.313,1.313,7.122,7.122,0,0,1,1.037,3.984,5.966,5.966,0,0,1-.151,1.559c-.19.755-.706.706-1.27.535a6.819,6.819,0,0,1-2.317,8.558v.345a.577.577,0,0,0,0,.075,15.527,15.527,0,0,0,.052,1.569c.056.03,5.362,3.039,5.963,4.466s2.825,2.461,2.825,2.461,2.445,1.313,3.61,5.434l-.069.082a21.048,21.048,0,0,1-1.907,2.008l-.108.105a22.272,22.272,0,0,1-4.049,2.953c-.105.062-.213.125-.328.184l-.062.033a21.454,21.454,0,0,1-3.085,1.388l-.279.1H319.4c-.305.108-.614.2-.925.3h-.033a21.73,21.73,0,0,1-5.175.86c-.328.016-.656.023-1.007.023a21.872,21.872,0,0,1-5.835-.758c-.1-.023-.194-.053-.289-.079l-.076-.023c-.187-.053-.377-.112-.561-.174l-.3-.1a22.125,22.125,0,0,1-6.619-3.613l-.059-.043a22.03,22.03,0,0,1-2.382-2.2q-.141-.144-.276-.3c-.18-.2-.358-.4-.528-.6-.328-.377-.624-.761-.916-1.158C296.176,170.821,297.666,171.5,297.666,171.5Z" transform="translate(-211.98 -106.588)" fill="url(#linear-gradient-6)"/>
    <path id="Path_2226" data-name="Path 2226" d="M338.36,199.232l7.059-5.444s-4.729,1.014-4.594-6.544a.588.588,0,0,1,0-.075,19.336,19.336,0,0,1,.164-2.254c1.211-10.084-8.47-1.211-8.47-1.211a14.436,14.436,0,0,1,0,2.684v.072a18.751,18.751,0,0,1-2.015,7.124C327.876,198.625,338.36,199.232,338.36,199.232Z" transform="translate(-235.938 -128.829)" fill="#fdc2cc"/>
    <path id="Path_2227" data-name="Path 2227" d="M338.4,184.986c1.2,1.165,1.93,3.282,3.731,3.282a6.613,6.613,0,0,0,3.666-1.1,19.342,19.342,0,0,1,.164-2.254c1.211-10.084-8.47-1.211-8.47-1.211S338.527,183.346,338.4,184.986Z" transform="translate(-240.916 -128.829)" opacity="0.1"/>
    <circle id="Ellipse_137" data-name="Ellipse 137" cx="6.655" cy="6.655" r="6.655" transform="translate(94.559 45.801)" fill="#fdc2cc"/>
    <path id="Path_2228" data-name="Path 2228" d="M338.146,152.543a7.3,7.3,0,0,0-1.313-1.286A3.98,3.98,0,0,0,334.257,150a3.856,3.856,0,0,0-1.523.545c-2.379,1.254-4.351.069-7.118,3.8-.591.8-1.775.984-2.386,1.821a6.981,6.981,0,0,0-1.03,3.006,7.372,7.372,0,0,0-.1,2.2,2.753,2.753,0,0,0,.984,1.844c.637.463,1.513.466,2.048,1.073a5.955,5.955,0,0,1,.656,1.27c.217.427.6.83,1.03.768a1.062,1.062,0,0,0,.755-.984,6.053,6.053,0,0,0-.082-1.4,3.352,3.352,0,0,1,.512-2.363c.328-.43.82-.686,1.145-1.122.781-1.053.427-2.822,1.283-3.8a2.031,2.031,0,0,1,1.969-.548,8.391,8.391,0,0,1,1.969.847,14.608,14.608,0,0,0,2.694,1.04c.781.213,1.687.725,1.953-.328A6.936,6.936,0,0,0,338.146,152.543Z" transform="translate(-230.549 -108.609)" opacity="0.1"/>
    <path id="Path_2229" data-name="Path 2229" d="M338.146,151.543a7.3,7.3,0,0,0-1.313-1.286A3.98,3.98,0,0,0,334.257,149a3.856,3.856,0,0,0-1.523.545c-2.379,1.254-4.351.069-7.118,3.8-.591.8-1.775.984-2.386,1.821a6.981,6.981,0,0,0-1.03,3.006,7.372,7.372,0,0,0-.1,2.2,2.753,2.753,0,0,0,.984,1.844c.637.463,1.513.466,2.048,1.073a5.955,5.955,0,0,1,.656,1.27c.217.427.6.83,1.03.768a1.062,1.062,0,0,0,.755-.984,6.053,6.053,0,0,0-.082-1.4,3.352,3.352,0,0,1,.512-2.363c.328-.43.82-.686,1.145-1.122.781-1.053.427-2.822,1.283-3.8a2.031,2.031,0,0,1,1.969-.548,8.391,8.391,0,0,1,1.969.847,14.61,14.61,0,0,0,2.694,1.04c.781.213,1.687.725,1.953-.328A6.936,6.936,0,0,0,338.146,151.543Z" transform="translate(-230.549 -107.937)" fill="#865a61"/>
    <path id="Path_2230" data-name="Path 2230" d="M327.655,222.663l-.131,5.037a22.219,22.219,0,0,0,5.851.778c.328,0,.673,0,1.007-.023a22.067,22.067,0,0,0,5.175-.847h.033c.312-.092.62-.187.925-.292h.033l.279-.1a21.629,21.629,0,0,0,3.085-1.365l.062-.033.328-.18-.509-6.79.81-4.657-4.437-3.022a7.816,7.816,0,0,1-.834,1.011,5.578,5.578,0,0,1-1.516,1.122c-3.183,1.569-6.806-.925-8.608-2.468l-.41-.364c-.466-.423-.732-.712-.732-.712l-2.218,3.426Z" transform="translate(-233.096 -148.759)" opacity="0.1"/>
    <path id="Path_2231" data-name="Path 2231" d="M327.655,223.663l-.131,5.037a22.219,22.219,0,0,0,5.851.778c.328,0,.673,0,1.007-.023a22.066,22.066,0,0,0,5.175-.847h.033c.312-.092.62-.187.925-.292h.033l.279-.1a21.632,21.632,0,0,0,3.085-1.365l.062-.033.328-.18-.509-6.79.81-4.657-4.437-3.022a7.816,7.816,0,0,1-.834,1.011,5.578,5.578,0,0,1-1.516,1.122c-3.183,1.569-6.806-.925-8.608-2.468l-.41-.364c-.466-.423-.732-.712-.732-.712l-2.218,3.426Z" transform="translate(-233.096 -149.431)" fill="#53526b"/>
    <path id="Path_2232" data-name="Path 2232" d="M294.36,215.245c.292.391.6.768.916,1.139.171.2.348.4.528.591q.135.151.276.3a21.9,21.9,0,0,0,2.382,2.163l.059.043a22.22,22.22,0,0,0,6.609,3.551l.3.1c.184.062.374.118.561.171l.075.023c.1.026.19.056.289.079a22.22,22.22,0,0,0,5.851.778c.328,0,.673,0,1.007-.023.256-4.187.328-7.548-.072-8.411a13.531,13.531,0,0,0-.811-1.451c-1.621-2.606-4.594-6.524-4.433-7.019a5.137,5.137,0,0,0,.135-.738c.174-1.293.348-3.659.348-3.659h0c-.072,0-1.542.036-3.7,2.983-2.218,3.026-7.059,3.429-7.059,3.429S296.135,208.626,294.36,215.245Z" transform="translate(-211.939 -144.13)" fill="#555388"/>
    <path id="Path_2233" data-name="Path 2233" d="M363.415,221.292s.243,1.933.561,4.243h.033l.279-.1a21.631,21.631,0,0,0,3.085-1.365l.062-.033c.108-.059.217-.118.328-.181a22.259,22.259,0,0,0,4.049-2.914l.108-.1a20.856,20.856,0,0,0,1.907-1.969l.069-.082c-1.172-4.066-3.61-5.346-3.61-5.346s-2.218-1.011-2.825-2.422-5.966-4.394-5.966-4.394v.023c0,.253-.085,2.566-.213,4.893-.082,1.513-.184,3.032-.3,4a4.67,4.67,0,0,1-.171.925C360.392,217.463,363.415,221.292,363.415,221.292Z" transform="translate(-256.556 -146.656)" fill="#555388"/>
  </g>
</svg>
