<svg xmlns="http://www.w3.org/2000/svg" xmlns:xlink="http://www.w3.org/1999/xlink" width="358.989" height="272.833" viewBox="0 0 358.989 272.833">
  <defs>
    <linearGradient id="linear-gradient" x1="0.5" y1="1" x2="0.5" gradientUnits="objectBoundingBox">
      <stop offset="0" stop-color="gray" stop-opacity="0.251"/>
      <stop offset="0.54" stop-color="gray" stop-opacity="0.122"/>
      <stop offset="1" stop-color="gray" stop-opacity="0.102"/>
    </linearGradient>
  </defs>
  <g id="undraw_business_deal_cpi9" transform="translate(0 0.527)">
    <path id="Path_2250" data-name="Path 2250" d="M454.824,118.885c-.062.293-.122.585-.191.875a94.06,94.06,0,0,1-10.923,28.334c-.174.293-.349.585-.526.878a81.422,81.422,0,0,1-12.314,15.543,37.33,37.33,0,0,1-8.845,6.793c-4.745,2.479-10.292,3.485-15.743,4.307-5.662.858-11.4,1.575-17.128,2.348q-3.051.4-6.067.858c-5.531.819-11.022,1.766-16.381,3.022a96.038,96.038,0,0,0-19.114,6.432q-.727.329-1.437.7c-.473.237-.95.477-1.417.72s-.927.487-1.384.737c-.237.128-.474.256-.707.391s-.464.253-.691.385c-.684.381-1.355.773-2.025,1.167l-.026.016c-.444.26-.881.526-1.315.792-2.479,1.506-4.906,3.078-7.332,4.659l-1.526.986-2.364,1.529c-.46.3-.931.6-1.394.894-.329.217-.658.434-1.016.658-1.723,1.085-3.469,2.15-5.261,3.166-.424.243-.852.487-1.282.723a72.878,72.878,0,0,1-11.318,5.1l-.053.02a51.623,51.623,0,0,1-6.011,1.7c-1.174.256-2.351.467-3.541.628a37.966,37.966,0,0,1-9.6.135c-6.27-.727-12.146-3.134-18.413-3.946-12.9-1.644-25.434,3.653-37.567,7.8q-4.475,1.529-9.016,2.864c-2.012.6-4.031,1.157-6.067,1.7a228.275,228.275,0,0,1-38.043,6.672,107.147,107.147,0,0,1-16.161.358,59.342,59.342,0,0,1-6.063-.658c-6.806-1.052-13.152-3.259-18.275-7.3a35.69,35.69,0,0,1-9.483-12.166,53.09,53.09,0,0,1-4.9-14.645c-.125-.694-.237-1.391-.329-2.088q-.247-1.789-.368-3.6a51.489,51.489,0,0,1,2.262-19.022c2.17-6.879,5.787-13.481,7.379-20.413q.1-.441.187-.878a30.4,30.4,0,0,0,.483-3.186c.812-8.516-2.3-16.819-4.745-25.147-.085-.289-.171-.582-.253-.875q-.395-1.388-.756-2.772c-2.262-8.806-2.89-18.233-.875-27.022.062-.293.138-.585.21-.875a39.563,39.563,0,0,1,7.438-15.234,58.977,58.977,0,0,1,14.024-12.14q3.87-2.532,8-4.732,2.959-1.578,6.063-2.989a119.409,119.409,0,0,1,54.224-10.44c.986.043,1.973.1,2.959.168s2.065.158,3.1.253c12.054,1.171,23.783,4,35.429,7.083,3.9,1.036,7.8,2.1,11.693,3.14,1.733.46,3.462.921,5.2,1.368,8.487,2.193,17.1,4.179,25.818,5.662q3.028.523,6.063.954a173.683,173.683,0,0,0,21.2,1.8q4.14.082,8.283-.072,2.091-.076,4.186-.227c14.418-1.016,28.353-4.416,42.311-7.592q3.028-.691,6.067-1.361c2.657-.585,5.314-1.151,7.984-1.674,16.615-3.265,31.424-1.388,46.872,5.35,3.512,1.529,7.02,3.377,9.171,6.247s2.69,6.4,3.091,9.8c.569,4.847.94,9.756,1.082,14.691,0,.289,0,.582.02.875A131.867,131.867,0,0,1,454.824,118.885Z" transform="translate(-100.402 -40.436)" fill="#c2f1c1" opacity="0.1"/>
    <path id="Path_2251" data-name="Path 2251" d="M352.379,148.38h-1.085v.878h1.23Zm-12.307,0a.057.057,0,0,0,0,.023c-.03.24-.062.48-.1.723v.132h9.4v-.053l.658-.825Zm-25.2,0V120.047h10.818c-.115-.076-.233-.155-.355-.227l-.158-.1-.2-.125c-.118-.069-.237-.138-.362-.2s-.2-.112-.306-.168l-.072-.039h-9.361V117.62l-.253.1-.266.125h-.02l-.056.03-.168.089-.168.089c-.164.089-.329.187-.493.289l-.158.105-.329.21c-.424.283-.842.579-1.273.855-.108.069-.217.138-.329.2-.233.138-.474.27-.72.388a2.744,2.744,0,0,1-.329.141l-.178.069-.164.056h0a7.7,7.7,0,0,1-1.184.309v27.7h-16.22c0,.033.023.059.033.092.089.263.178.523.263.786H308.8V179.62h.247l.286.016.516.03.825.1.378.036.411.043h.062l.727.089.155.02.352.049.5.072h0l1.207-.053h0l.164.03a1.143,1.143,0,0,1,.2.033V149.258h25.1v-.132c.033-.243.066-.483.1-.723a.056.056,0,0,1,0-.023Zm37.511,0h-1.085v.878h1.23Zm-12.985,0c-.039.293-.076.585-.115.878h10.486l.714-.878Zm-24.526,0V120.047h10.818c-.115-.076-.233-.155-.355-.227l-.158-.1-.2-.125c-.118-.069-.237-.138-.362-.2s-.2-.112-.306-.168l-.072-.039h-9.361V117.62l-.253.1-.266.125h-.02l-.056.03-.168.089-.168.089c-.164.089-.329.187-.493.289l-.158.105-.329.21c-.424.283-.842.579-1.273.855-.108.069-.217.138-.329.2-.233.138-.473.27-.72.388a2.743,2.743,0,0,1-.329.141l-.178.069-.164.056h0a7.7,7.7,0,0,1-1.184.309v27.7h-16.22c0,.033.023.059.033.092.089.26.181.523.266.786H308.8v30.366h.247l.286.016.516.03.825.1.378.036.411.043h.062l.727.089.155.02.352.049.5.072h0l1.207-.053h0l.164.03a1.143,1.143,0,0,1,.2.033V149.258h24.444c.039-.293.076-.585.115-.878Zm82.051-59h68.218c0-.293,0-.585-.02-.875h-68.2V54.1q-3.038.658-6.067,1.361V88.5H316.66l-.187-.168.283-.25h0l27.6-24.8q-4.143.158-8.283.072L314.865,82.411V61.568q-3.038-.431-6.063-.954V81.451l-31-27.867c-3.893-1.042-7.79-2.1-11.693-3.14l42.163,37.892-.187.168h-77.4V43.391q-1.549-.145-3.1-.253c-.986-.072-1.973-.125-2.959-.168V88.5H170.388V53.41q-3.071,1.407-6.063,2.989V88.5H134.86c-.072.289-.148.582-.21.875h29.675v29.794H136.281c.082.293.168.585.253.875h27.791V148.38H140.8q-.089.437-.187.878h23.717v79.22c1.973.306,4.015.52,6.063.658V149.258h54.224V222.1c2.035-.543,4.054-1.1,6.067-1.7V149.258H308.8V212.9a51.628,51.628,0,0,0,6.011-1.7l.053-.02V149.258h75.985v29.849q3.025-.444,6.067-.852v-29h54.03c.178-.293.352-.585.526-.878H396.919V120.047H462.4c.069-.289.128-.582.191-.875h-65.67Zm-226.531,0h54.224v29.794H170.388Zm0,59V120.047h54.224V148.38Zm60.291-59H308.8v29.794H230.679Zm0,59V120.047H308.8V148.38Zm160.174,0H314.868V120.047h75.985Zm0-29.208H314.868V90.177l1.065-.8h74.92ZM340.071,148.38a.057.057,0,0,0,0,.023c-.03.24-.062.48-.1.723v.132h9.4v-.053l.658-.825Zm12.307,0h-1.085v.878h1.23Zm-37.511,0V120.047h10.818c-.115-.076-.233-.155-.355-.227l-.158-.1-.2-.125c-.118-.069-.237-.138-.362-.2s-.2-.112-.306-.168l-.072-.039h-9.361V117.62l-.253.1-.266.125h-.02l-.056.03-.168.089-.168.089c-.164.089-.329.187-.493.289l-.158.105-.329.21c-.424.283-.842.579-1.273.855-.108.069-.217.138-.329.2-.233.138-.474.27-.72.388a2.744,2.744,0,0,1-.329.141l-.178.069-.164.056h0a7.7,7.7,0,0,1-1.184.309v27.7h-16.22c0,.033.023.059.033.092.089.263.178.523.263.786H308.8V179.62h.247l.286.016.516.03.825.1.378.036.411.043h.062l.727.089.155.02.352.049.5.072h0l1.207-.053h0l.164.03a1.143,1.143,0,0,1,.2.033V149.258h25.1v-.132c.033-.243.066-.483.1-.723a.056.056,0,0,1,0-.023Z" transform="translate(-108.168 -40.723)" fill="#c2f1c1" opacity="0.1"/>
    <path id="Path_2252" data-name="Path 2252" d="M318.536,117.924h.47a.953.953,0,0,1-.575-.766h0c0-.605.9-1.1,2.009-1.1H334.5c1.1,0,2.006.493,2.006,1.1h0c0,.6-.9,1.1-2.006,1.1h-.47a.944.944,0,0,1,.575.763c0,.516-.658.95-1.536,1.065h4.048c1.1,0,2.006.493,2.006,1.1s-.9,1.1-2.006,1.1H323.054c-1.1,0-2.006-.5-2.006-1.1,0-.516.658-.947,1.536-1.065h-4.048c-1.1,0-2.006-.493-2.006-1.1S317.431,117.924,318.536,117.924Z" transform="translate(-230.243 -89.78)" fill="#c2f1c1" opacity="0.1"/>
    <path id="Path_2253" data-name="Path 2253" d="M781.976,149.694h.47a.954.954,0,0,1-.572-.766h0c0-.605.9-1.1,2.006-1.1h14.06c1.1,0,2.009.493,2.009,1.1h0c0,.6-.9,1.095-2.009,1.095h-.467a.953.953,0,0,1,.572.766c0,.516-.658.95-1.536,1.065h4.048c1.1,0,2.006.493,2.006,1.1s-.9,1.1-2.006,1.1H786.5c-1.1,0-2.009-.5-2.009-1.1,0-.516.658-.95,1.536-1.065h-4.048c-1.1,0-2.006-.493-2.006-1.1S780.874,149.694,781.976,149.694Z" transform="translate(-541.299 -111.104)" fill="#c2f1c1" opacity="0.1"/>
    <path id="Path_2254" data-name="Path 2254" d="M252.9,285.654h.467a.95.95,0,0,1-.572-.766h0c0-.6.9-1.1,2.006-1.1h14.063c1.1,0,2.006.5,2.006,1.1h0c0,.605-.9,1.1-2.006,1.1h-.47a.94.94,0,0,1,.572.763c0,.516-.658.95-1.536,1.065h4.048c1.1,0,2.009.5,2.009,1.1s-.9,1.1-2.009,1.1H257.43c-1.1,0-2.006-.493-2.006-1.1,0-.513.658-.947,1.536-1.065H252.9c-1.1,0-2.009-.493-2.009-1.1S251.807,285.654,252.9,285.654Z" transform="translate(-186.187 -202.359)" fill="#c2f1c1" opacity="0.1"/>
    <ellipse id="Ellipse_144" data-name="Ellipse 144" cx="21.36" cy="70.29" rx="21.36" ry="70.29" transform="translate(189.444 193.248) rotate(-78.45)" fill="#c2f1c1" opacity="0.1"/>
    <path id="Path_2255" data-name="Path 2255" d="M828.56,386.374s3.739-18.351,18.012-16.651c0,0,9.864.677,11.893,7.135v14.274Z" transform="translate(-573.912 -259.961)" fill="#3a3768"/>
    <path id="Path_2256" data-name="Path 2256" d="M719.421,384.048,592.312,373.51,576,376.91l1.019,22.77,1.111.135,1.266,34.193,124.728,22.428,13.258-11.216V408.154l1.7-1Z" transform="translate(-386.605 -250.836)" fill="#d48a9b"/>
    <path id="Path_2257" data-name="Path 2257" d="M983.557,405.56l-.342,23.109-13.764,6.458L969.28,411Z" transform="translate(-650.57 -272.347)" opacity="0.05"/>
    <path id="Path_2258" data-name="Path 2258" d="M979.267,478.94l.168,36.366L966.18,526.522l.852-42.144Z" transform="translate(-648.49 -321.599)" opacity="0.05"/>
    <path id="Path_2259" data-name="Path 2259" d="M582.805,455.287l126.947,15.49.066-2.94L582.71,454.13Z" transform="translate(-391.109 -304.947)" opacity="0.05"/>
    <path id="Path_2260" data-name="Path 2260" d="M980.307,480.275V478.94l-12.577,5.55v2.946Z" transform="translate(-649.53 -321.599)" opacity="0.05"/>
    <path id="Path_2261" data-name="Path 2261" d="M575.48,376.91l16.312-3.4L718.9,384.048l-14.274,5.435Z" transform="translate(-386.256 -250.836)" fill="#efc6cd"/>
    <path id="Path_2262" data-name="Path 2262" d="M951.365,407.55l6.238.408-10.338,3.094L942,410.674Z" transform="translate(-632.26 -273.683)" opacity="0.1"/>
    <path id="Path_2263" data-name="Path 2263" d="M951.365,406.72l6.238.408-10.338,3.1L942,409.844Z" transform="translate(-632.26 -273.126)" fill="#fff"/>
    <path id="Path_2264" data-name="Path 2264" d="M1022.32,444.5c.247-.105.506.1.769.145.151.03.306,0,.457.03.306.039.608.243.9.141" transform="translate(-703.962 -310.204)" fill="#d3dae1"/>
    <path id="Path_2265" data-name="Path 2265" d="M1021.34,445.068c.243-.105.506.092.769.145.151.026.306,0,.457.026.306.043.608.247.9.145" transform="translate(-703.304 -310.586)" fill="#d3dae1"/>
    <path id="Path_2266" data-name="Path 2266" d="M1019.08,446.208c.247-.105.51.092.773.141.148.03.306,0,.454.03.309.043.612.247.9.141" transform="translate(-701.787 -311.351)" fill="#d3dae1"/>
    <path id="Path_2267" data-name="Path 2267" d="M869.365,398.21l6.238.411-10.338,3.094L860,401.334Z" transform="translate(-577.223 -267.414)" opacity="0.1"/>
    <path id="Path_2268" data-name="Path 2268" d="M869.365,397.39l6.238.408-10.338,3.094L860,400.514Z" transform="translate(-577.223 -266.864)" fill="#fff"/>
    <path id="Path_2269" data-name="Path 2269" d="M940.32,435.168c.247-.105.506.092.769.145.151.026.306,0,.457.026.306.043.608.247.9.145" transform="translate(-648.925 -303.941)" fill="#d3dae1"/>
    <path id="Path_2270" data-name="Path 2270" d="M939.34,435.738c.243-.105.506.092.769.141.151.03.306,0,.457.03.306.043.608.247.9.141" transform="translate(-648.267 -304.324)" fill="#d3dae1"/>
    <path id="Path_2271" data-name="Path 2271" d="M937.08,436.869c.247-.105.51.1.773.145.148.03.306,0,.454.03.309.039.612.247.9.141" transform="translate(-646.75 -305.083)" fill="#d3dae1"/>
    <path id="Path_2272" data-name="Path 2272" d="M908.695,402.88l6.241.408-10.338,3.1L899.33,406Z" transform="translate(-603.621 -270.549)" opacity="0.1"/>
    <path id="Path_2273" data-name="Path 2273" d="M908.695,402.06l6.241.408L904.6,405.562l-5.268-.381Z" transform="translate(-603.621 -269.998)" fill="#fff"/>
    <path id="Path_2274" data-name="Path 2274" d="M979.65,439.838c.247-.105.51.092.773.141.148.03.3,0,.454.03.306.039.612.247.9.141" transform="translate(-675.323 -307.076)" fill="#d3dae1"/>
    <path id="Path_2275" data-name="Path 2275" d="M978.67,440.4c.247-.105.51.1.773.145.148.03.3,0,.454.03.306.039.612.247.9.141" transform="translate(-674.665 -307.452)" fill="#d3dae1"/>
    <path id="Path_2276" data-name="Path 2276" d="M976.42,441.538c.243-.105.506.092.769.145.151.026.306,0,.457.026.306.043.608.247.9.145" transform="translate(-673.155 -308.217)" fill="#d3dae1"/>
    <ellipse id="Ellipse_145" data-name="Ellipse 145" cx="66.578" cy="13.705" rx="66.578" ry="13.705" transform="translate(97.275 232.665)" fill="#c2f1c1" opacity="0.1"/>
    <path id="Path_2277" data-name="Path 2277" d="M514.752,297.763a44.605,44.605,0,0,0-3.521-12.2l.214-2.1s.046-1.052-.023-2.631a11.97,11.97,0,0,1,.385-2.92c.575-1.825-.72-4.067-.865-4.275s.072-4.209-1.223-6.172-9.923-5.613-9.923-5.613-.464-.97-1.118-2.1l.059-.115a12.367,12.367,0,0,0-1.973-2.66c-.529-.566-1.039-.888-1.45-.73a11.829,11.829,0,0,1-.381-1.667c.085.023.174.046.26.062a2.683,2.683,0,0,0,1.085.026,3.224,3.224,0,0,0,1.782-1.578c2.229-3.387,4.15-7.1,4.541-11.111a7.062,7.062,0,0,0-.115-2.453,8.277,8.277,0,0,0-.769-1.792,14.4,14.4,0,0,0-2.17-3.2,12.363,12.363,0,0,0-5.83-3.193,20.183,20.183,0,0,0-7.53-.562c-.658.076-1.315.184-1.973.227a20.485,20.485,0,0,1-2.5-.043l-4.3-.25-.02-.066-.717-.043a1.814,1.814,0,0,0,.352,1.756,3,3,0,0,1,.727,1.7,3.468,3.468,0,0,1-.832,1.644,1.582,1.582,0,0,0-.266,1.72.987.987,0,0,0,.174.191,2.167,2.167,0,0,0,1.582.421h.1a10.71,10.71,0,0,0-2.18,6.484,10.9,10.9,0,0,0,5.948,9.66c.063.214.125.434.184.658a20.143,20.143,0,0,1,.69,7.109l-.076.164-.046-.174s-5.07,3.439-6.576,4.35-3.018,4-3.091,4.84-2.446,13.537-2.446,13.537a31.1,31.1,0,0,0-1.19,3.919l-3.028,2.66s-6.247.562-8.056.141l.053.349a27.323,27.323,0,0,0-4.853-.658,5.146,5.146,0,0,0-2.63.352l-.062.03-.049.023a10.422,10.422,0,0,0-2.762.776c-.105.043-.2.085-.293.128l.02-.431-6.76-.349-3.453-.7s-1.223-.986-1.943-.842-2.229-.842-2.229-.842a6.027,6.027,0,0,0-1.111-.69c-.115-.8-.187-1.279-.187-1.279s-2.686-10.66-4.7-16.927c-1.348-4.186-3.288-6.247-4.432-7.145-.51-.888-.845-1.46-.845-1.46a6.53,6.53,0,0,0-1.739-2.545c-.049-.079-.086-.118-.105-.118a.385.385,0,0,0-.194.03,20.917,20.917,0,0,1-.03-9.417,10.394,10.394,0,0,0,3.794-8.01q0-.069,0-.138v-.141a10.348,10.348,0,0,0-2.443-6.675l-.112-.125a.866.866,0,0,0,.085-.069,1.762,1.762,0,0,0,.621-1.7,11.628,11.628,0,0,0-.894-1.726,11.174,11.174,0,0,1-.365-1.407,4.34,4.34,0,0,0-1.036-1.805l.049.132a6.248,6.248,0,0,0-5.5-1.848c-1.483.237-2.864.927-4.353,1.141-1.069.151-2.157.053-3.232.161a8.388,8.388,0,0,0-2.867.829,1.645,1.645,0,0,0-.608.447,2.406,2.406,0,0,0-.3.845c-.365,1.332-1.522,2.282-2.361,3.393a7.941,7.941,0,0,0-1.591,4.386,3.432,3.432,0,0,0,.115,1.2c.072.233.184.454.237.691a4.739,4.739,0,0,1-.4,2.16,4.205,4.205,0,0,0,.233,2.742c1.3,2.907,5.563,3.877,6.451,6.928a8.487,8.487,0,0,0,2.134.658c.059.3.112.608.155.917a.247.247,0,0,0-.056.033,6.539,6.539,0,0,0-1.437,3.288l-.138.112c-.47.388-2.078,1.69-3.531,2.693-1.726,1.194-4.6,5.192-6.616,6.386s-3.67,8.549-3.236,11.222,2.229,10.17,1.509,12.906,1.079,15.221,1.079,15.221a18.381,18.381,0,0,1,3.525,1.046l-.036.546-.109,1.644s-3.258,11.785-2.012,20.856-.575,10.006-.575,10.006.381,4.021-.575,5.425-1.151,4.488-1.151,4.488-.1,6.921.1,8.878.286,5.521-.385,6.363-1.917,6.356-1.822,8.039-2.4,5.521-1.055,10.476-3.946,5.051-3.946,5.051.674,7.563,2.111,9.726l.21.309c-.036.125-.072.257-.112.4-.543,1.973-1.286,5.087-.769,5.84.766,1.125,1.151.934,1.151.934l.286,5.051s5.754,4.863,10.167,4.679,3.548-4.679,3.548-4.679l-3.758-9.746-.128-.329,4.176-7.891s1.151-3.459,1.437-4.676,1.848-5.527,1.848-5.527,3.946-9.351,4.028-10.476.385-7.2,1.151-8.418,2.877-8.22,2.877-8.22l.053.046a2.772,2.772,0,0,1,.717,2.759,22.04,22.04,0,0,0-.194,5.422,36.883,36.883,0,0,1-.575,4.679c-.385,1.591-.477,14.589.194,17.674a50.039,50.039,0,0,1,.493,8.842c-.45,1.858-.845,4.166-.112,4.439,1.249.47,7.579.375,7.579.375s2.683-.937,6.33,2.338,14.862-.934,14.862-.934,3.453-.937-3.357-3.647c-4.751-1.891-7.819-3.15-9.825-4.5.046-.089.1-.178.138-.273,0,0-2.782-2.63-.48-7.293a20.309,20.309,0,0,0,2.206-8.6l.385-15.714-1.151-20.86-.891-21.892.158-.053c.151,4.025.937,13.606,5.051,11.748,5.179-2.338.766-8.418.766-8.418l-2.325-4.531.694-.237-2.6-8.4a18.956,18.956,0,0,1-.1-4.955,19.63,19.63,0,0,0-.059-2.894c3.406-.6,6.668-1.226,7.254-1.082.69.168,4.554.2,6.073.207-.5.388-.894.773-.894.773l6.185,4.163s2.1-1.148,2.535-2.364a2.729,2.729,0,0,0,1.157-.618c.066,1.437.447,2.992,1.776,3.028a2.3,2.3,0,0,0,.967-.191l10.114-2-.868,5.422.605,1.075c-.306,4.574-.658,9.43-.967,13.7l-.141.934.072.016c-.48,6.576-.865,11.558-.865,11.558a6.06,6.06,0,0,1,2.522-2.535l.066,9.759s.506,15.431.506,17.535.069,6.8.069,6.8,1.082,5.751,1.726,7.645,1.151,10.522,1.151,10.522,1.513,2.384.865,3.288,2.519,2.874,2.519,2.874-2.016,2.736-2.16,4.561c-.016.21.191.434.566.658-.118.1-.24.191-.375.283a6.569,6.569,0,0,1-4.36.881c-5.613-.493-9.568,4.7-6.116,5.751s13.81,1.263,13.81,1.263,3.137-1.956,5.59-1.075c-.036,2.058.066,3.946.082,4.2l-.03.023a22.807,22.807,0,0,1-7.017,4.5c-3.946,1.332-4.82,6.734.286,7.434s12.587-.842,12.587-.842,3.883-2.874,6.833-3.505,5.468-2.035,4.965-3.719c-.329-1.075-1.174-3.893-1.746-5.787q-.049-.171-.1-.329c.089-.2.178-.4.26-.612,0,0-1.509-7.855-.286-9.818s.575-21.606.575-21.606-2.088-4.978-1.006-7.993-1.726-7.3-1.726-7.3a133.294,133.294,0,0,1,1.128-13.36l.109-.592a26.942,26.942,0,0,0,4.012-1.549s.72-10.8,1.151-13.258c.043-.23.1-.6.174-1.085l.329-1.733h0l.388-1.973h0l1.315-6.724,2.374-3.071L514,307.309S515.472,304.008,514.752,297.763Zm-94.316-38.579-.046.033a.569.569,0,0,1-.016-.072.3.3,0,0,0,.062.039Zm60.426,7.658-.237.516.865-.861-1.174,1.315.395-.829Zm-5.84,12.067c-.227.6-.47,1.253-.723,1.93l.464-1.384Z" transform="translate(-277.992 -163.624)" fill="url(#linear-gradient)"/>
    <path id="Path_2278" data-name="Path 2278" d="M595.677,442.358s-.806,5.363,1.611,5.432,4.031-4.136,4.031-4.136l-.986-3.364Z" transform="translate(-417.517 -307.4)" fill="#585b8a"/>
    <path id="Path_2279" data-name="Path 2279" d="M595.677,442.358s-.806,5.363,1.611,5.432,4.031-4.136,4.031-4.136l-.986-3.364Z" transform="translate(-417.517 -307.4)" opacity="0.2"/>
    <path id="Path_2280" data-name="Path 2280" d="M407.874,762.6c-4.3.187-9.91-4.672-9.91-4.672l-.28-5.047s-.372.187-1.121-.934c-.5-.753.22-3.873.75-5.836.256-.96.467-1.644.467-1.644L407.217,747l.45,1.194,3.663,9.739S412.172,762.416,407.874,762.6Z" transform="translate(-283.847 -511.562)" fill="#636992"/>
    <path id="Path_2281" data-name="Path 2281" d="M505.171,734.234s-10.933,4.206-14.468.934-6.169-2.338-6.169-2.338-6.168.1-7.385-.375c-.717-.273-.329-2.611.118-4.472.3-1.286.631-2.348.631-2.348s10.746-3.647,12.429-1.4a8.06,8.06,0,0,0,1.792,1.71c1.947,1.407,4.988,2.683,9.8,4.646C508.535,733.3,505.171,734.234,505.171,734.234Z" transform="translate(-337.784 -497.489)" fill="#636992"/>
    <path id="Path_2282" data-name="Path 2282" d="M527.809,496.35l2.989,5.981s4.3,6.076-.746,8.411-4.952-13.455-4.952-13.455Z" transform="translate(-370.233 -345.027)" fill="#ffd6d6"/>
    <path id="Path_2283" data-name="Path 2283" d="M495.25,338.61s3.272,1.5,5.235,7.757,4.58,16.917,4.58,16.917,1.776,12.054,1.493,15.046a19.4,19.4,0,0,0,.1,4.952l2.522,8.411-5.047,1.776-7.757-29.718Z" transform="translate(-350.198 -239.153)" fill="#dce6f2"/>
    <path id="Path_2284" data-name="Path 2284" d="M495.25,338.61s3.272,1.5,5.235,7.757,4.58,16.917,4.58,16.917,1.776,12.054,1.493,15.046a19.4,19.4,0,0,0,.1,4.952l2.522,8.411-5.047,1.776-7.757-29.718Z" transform="translate(-350.198 -239.153)" opacity="0.05"/>
    <path id="Path_2285" data-name="Path 2285" d="M409.074,747.012l.45,1.193-.552,1.056c-2.15.934-7.477.187-7.477.187s-.986-1.253-2.335-3.314c.257-.96.467-1.644.467-1.644Z" transform="translate(-285.704 -511.575)" opacity="0.1"/>
    <path id="Path_2286" data-name="Path 2286" d="M493.454,726.382c-2.726,6.175-11.992,3.883-14.566,3.111-.424-.128-.658-.214-.658-.214s.016-.5.023-1.3c.3-1.286.631-2.348.631-2.348s10.746-3.647,12.429-1.4a8.059,8.059,0,0,0,1.792,1.71,3.175,3.175,0,0,0,.349.441Z" transform="translate(-338.775 -497.489)" opacity="0.1"/>
    <path id="Path_2287" data-name="Path 2287" d="M435.523,542.221c-2.242,4.669.47,7.29.47,7.29-2.726,6.172-11.992,3.883-14.566,3.107-.424-.125-.658-.21-.658-.21s.187-6.451-.467-9.536-.562-16.072-.187-17.66a37.6,37.6,0,0,0,.559-4.676,22.78,22.78,0,0,1,.187-5.419,2.8,2.8,0,0,0-.7-2.755l-.049-.049s-2.055,7.01-2.8,8.22-1.026,7.29-1.121,8.411-3.926,10.469-3.926,10.469-1.493,4.3-1.772,5.511-1.4,4.676-1.4,4.676l-4.5,8.694c-2.15.934-7.477.187-7.477.187s-1.026-1.315-2.43-3.459-2.055-9.716-2.055-9.716,5.139-.1,3.831-5.047,1.121-8.786,1.029-10.469,1.121-7.194,1.776-8.036.559-4.393.372-6.356-.092-8.878-.092-8.878.187-3.084,1.121-4.485.562-5.422.562-5.422,1.772-.934.559-10,1.973-20.84,1.973-20.84l.109-1.644.171-2.663s26.729-1.684,28.879.372a7.089,7.089,0,0,1,1.365,1.956,19.463,19.463,0,0,1,1.545,4.975l1.121,28.317,1.121,20.84-.375,15.7A20.873,20.873,0,0,1,435.523,542.221Z" transform="translate(-281.314 -321.176)" fill="#565988"/>
    <path id="Path_2288" data-name="Path 2288" d="M483.125,538.42l-2.8,60.745-3.367,5.537c-.424-.125-.658-.21-.658-.21s.187-6.451-.467-9.536-.562-16.072-.187-17.66a37.6,37.6,0,0,0,.559-4.676,22.783,22.783,0,0,1,.187-5.419,2.8,2.8,0,0,0-.7-2.756l.046-.329Z" transform="translate(-336.841 -373.263)" opacity="0.1"/>
    <path id="Path_2289" data-name="Path 2289" d="M406.764,732.412s7.29-2.9,8.411-1.973-8.6,2.335-8.6,2.335Z" transform="translate(-290.684 -502.022)" opacity="0.1"/>
    <path id="Path_2290" data-name="Path 2290" d="M502.751,713.5c-.279.1-7.382,2.63-6.727,5.327S502.751,713.5,502.751,713.5Z" transform="translate(-350.689 -490.775)" opacity="0.1"/>
    <path id="Path_2291" data-name="Path 2291" d="M449.07,285.971s2.381,5.748,1.121,8.694,13.6,7.99,13.6,7.99-4.344-11.216-.138-17.526S449.07,285.971,449.07,285.971Z" transform="translate(-319.203 -201.511)" fill="#ffd6d6"/>
    <path id="Path_2292" data-name="Path 2292" d="M667.924,775.84c-2.874.631-6.658,3.505-6.658,3.505s-7.29,1.542-12.268.842-4.133-6.1-.28-7.431a22.377,22.377,0,0,0,6.843-4.495c.631-.582,1.006-.986,1.006-.986l13.951-2.8s.227.779.543,1.854c.559,1.9,1.384,4.712,1.7,5.784C673.25,773.808,670.8,775.209,667.924,775.84Z" transform="translate(-451.073 -524.986)" fill="#505484"/>
    <path id="Path_2293" data-name="Path 2293" d="M643.509,744.594s-5.889.631-8.342-.769-5.958.842-5.958.842-10.094-.211-13.458-1.263.49-6.247,5.958-5.748a6.281,6.281,0,0,0,4.252-.881A4.478,4.478,0,0,0,627.812,734l11.837.7,1.644,4.2Z" transform="translate(-430.233 -504.535)" fill="#505484"/>
    <path id="Path_2294" data-name="Path 2294" d="M664.883,740.81s-13.757-2.249-15.513-4.034A4.479,4.479,0,0,0,651.221,734l11.837.7,1.644,4.2Z" transform="translate(-453.642 -504.535)" opacity="0.1"/>
    <path id="Path_2295" data-name="Path 2295" d="M634.52,513.471l.141,20.534s.49,15.421.49,17.526.069,6.8.069,6.8,1.052,5.748,1.684,7.642,1.121,10.522,1.121,10.522,1.473,2.384.842,3.288,2.453,2.874,2.453,2.874-1.973,2.736-2.1,4.557,15.7,4.409,15.7,4.409l-6.165-63.22-4.909-15.839Z" transform="translate(-443.675 -355.907)" fill="#575988"/>
    <path id="Path_2296" data-name="Path 2296" d="M634.52,513.471l.141,20.534s.49,15.421.49,17.526.069,6.8.069,6.8,1.052,5.748,1.684,7.642,1.121,10.522,1.121,10.522,1.473,2.384.842,3.288,2.453,2.874,2.453,2.874-1.973,2.736-2.1,4.557,15.7,4.409,15.7,4.409l-6.165-63.22-4.909-15.839Z" transform="translate(-443.675 -355.907)" opacity="0.1"/>
    <path id="Path_2297" data-name="Path 2297" d="M691.51,766.341c-4.58,10.92-15.474,2.492-15.474,2.492s0-.21-.026-.572c.631-.582,1.006-.986,1.006-.986l13.951-2.8S691.194,765.266,691.51,766.341Z" transform="translate(-471.523 -524.986)" opacity="0.1"/>
    <path id="Path_2298" data-name="Path 2298" d="M669.673,591.62c-4.488,11.508-15.632,2.874-15.632,2.874s-.352-5.958.352-8.69-.773-10.936-.773-10.936-.842-7.29-1.611-8.97-.7-5.047-.7-5.327a10.171,10.171,0,0,0-.352-4.067,27.378,27.378,0,0,1-.987-5.327,56.209,56.209,0,0,0-.631-8.48l-2.173-10.851-3.926-22.221,1.226-.21,21.974-3.854s4.136,21.044,2.732,23.2a9.049,9.049,0,0,0-.789,2.844c-.8,4.774-1.1,13.346-1.1,13.346s2.732,4.275,1.684,7.29.986,7.99.986,7.99.631,19.627-.562,21.59S669.673,591.62,669.673,591.62Z" transform="translate(-449.528 -351.208)" fill="#575988"/>
    <path id="Path_2299" data-name="Path 2299" d="M683.818,302.378S663.912,316.4,668.4,309.385c2.417-3.775,1.973-8.582,1.026-12.212a28.815,28.815,0,0,0-1.973-5.356s16.914-7.194,14.672-.746a12.081,12.081,0,0,0-.658,4.682A12.5,12.5,0,0,0,683.818,302.378Z" transform="translate(-465.777 -205.444)" fill="#d28690"/>
    <path id="Path_2300" data-name="Path 2300" d="M587.209,426.337s-8.411-2.43-9.812-.046.421,7.615,2.959,8.457,8.365-2.851,8.365-2.851Z" transform="translate(-405.008 -297.301)" fill="#d28690"/>
    <path id="Path_2301" data-name="Path 2301" d="M612.9,416l-3.505,3.226s-6.1.559-7.852.138c0,0,1.614,10.795-.7,12.127L615,428.616Z" transform="translate(-421.069 -291.096)" fill="#585b8a"/>
    <path id="Path_2302" data-name="Path 2302" d="M612.9,416l-3.505,3.226s-6.1.559-7.852.138c0,0,1.614,10.795-.7,12.127L615,428.616Z" transform="translate(-421.069 -291.096)" opacity="0.1"/>
    <path id="Path_2303" data-name="Path 2303" d="M457.677,252.763a10.522,10.522,0,0,1-10.522,10.522c-5.4-2.594-10.522-4.705-10.522-10.522a10.522,10.522,0,1,1,21.027,0Z" transform="translate(-310.85 -174.192)" opacity="0.1"/>
    <path id="Path_2304" data-name="Path 2304" d="M457.772,252.8a10.5,10.5,0,1,1-2.381-6.652A10.5,10.5,0,0,1,457.772,252.8Z" transform="translate(-310.944 -174.517)" fill="#ffd6d6"/>
    <path id="Path_2305" data-name="Path 2305" d="M457.228,463.823a23.779,23.779,0,0,1-3.259,1.69s-5.327-.773-6.1.138-7.563,1.263-7.563,1.263-10.374-.49-11.916-1.822a6.314,6.314,0,0,0-1.575-.934l.171-2.663s26.729-1.684,28.879.372a7.087,7.087,0,0,1,1.358,1.956Z" transform="translate(-304.269 -321.196)" opacity="0.1"/>
    <path id="Path_2306" data-name="Path 2306" d="M446.295,359.5c-.21,1.19-4.557,3.012-4.557,3.012s-5.327-.769-6.1.141-7.563,1.263-7.563,1.263-10.374-.493-11.916-1.825-4.978-1.973-4.978-1.973-1.753-12.475-1.049-15.208-1.052-10.236-1.473-12.9,1.19-10.022,3.153-11.212,4.768-5.189,6.448-6.379c1.417-1,2.982-2.3,3.439-2.693l.135-.112a6.636,6.636,0,0,1,1.4-3.288c1.121-1.115,11.423,7.079,11.423,7.079s.072.631.773-.559c.158-.266,1.516,1.693,1.753,2.522,0,0,5.606,9.815,5.958,11.837s1.822,8.621,2.1,10.233c.072.414.191,1.868.329,3.814.026.381.049.786.079,1.207.207,3.229.431,7.352.566,10.469,0,.355.03.7.039,1.026A34.917,34.917,0,0,1,446.295,359.5Z" transform="translate(-292.037 -218.758)" fill="#dce6f2"/>
    <path id="Path_2307" data-name="Path 2307" d="M415,387.21s3.854,4.7,5.116,4.7S415,387.21,415,387.21Z" transform="translate(-296.335 -271.773)" opacity="0.1"/>
    <path id="Path_2308" data-name="Path 2308" d="M428.37,417.91s-6.31,6.869-5.468,8.132S428.37,417.91,428.37,417.91Z" transform="translate(-301.587 -292.378)" opacity="0.1"/>
    <path id="Path_2309" data-name="Path 2309" d="M425.62,437.734s7.234-7.921,7.563-10.654Z" transform="translate(-303.464 -298.533)" opacity="0.1"/>
    <path id="Path_2310" data-name="Path 2310" d="M453.33,443.647s8.342-4.416,9.042-7.921S453.33,443.647,453.33,443.647Z" transform="translate(-322.062 -303.888)" opacity="0.1"/>
    <path id="Path_2311" data-name="Path 2311" d="M483.157,329.714l-1.157,2.8,1.927.911,1.894,5.294s5.221,10.443,5.011,15.875a96.224,96.224,0,0,0,.947,13.6l3.012-.559-1.42-15.977a23.047,23.047,0,0,0-1.835-7.171c-2.407-5.511-6.885-15.684-7.168-15.684-.385,0-.115.141-.115.141Z" transform="translate(-341.305 -232.569)" opacity="0.1"/>
    <path id="Path_2312" data-name="Path 2312" d="M484.007,328.861l-1.157,2.8,1.93.911,1.891,5.294s5.222,10.443,5.011,15.875a96.234,96.234,0,0,0,.947,13.6l3.015-.559-1.424-15.977a22.956,22.956,0,0,0-1.831-7.171c-2.407-5.514-6.885-15.684-7.165-15.684-.388,0-.118.141-.118.141Z" transform="translate(-341.876 -231.998)" fill="#575989"/>
    <path id="Path_2313" data-name="Path 2313" d="M575.944,436.081c-1.466-.112-4.985-1.891-6.382-2.63l-.592-.329.072-5.429a9.537,9.537,0,0,1,1.072-.543c1.868-.815,5.7-1.924,7.619,1.644C580.324,433.578,577.8,436.205,575.944,436.081Z" transform="translate(-399.678 -298.025)" fill="#ffd6d6"/>
    <path id="Path_2314" data-name="Path 2314" d="M455.275,246.08a1.556,1.556,0,0,1-.49.2c-1.22.266-2.607-.783-3.653-.109a2.647,2.647,0,0,0-.871,2.029q-.224,1.973-.447,3.919a4.838,4.838,0,0,1-.289,1.351,3.39,3.39,0,0,1-3.226,1.716,1.923,1.923,0,0,1-1.391-.46c-.227-.23-.349-.552-.6-.763-1.644-1.378-2.144,2-1.71,2.959.7,1.568,3.173,3.081,2.134,5.074a1.9,1.9,0,0,1-.763.766,10.522,10.522,0,1,1,11.3-16.684Z" transform="translate(-310.829 -174.444)" opacity="0.1"/>
    <path id="Path_2315" data-name="Path 2315" d="M437.122,244.248c.247.207.372.529.6.76a1.927,1.927,0,0,0,1.391.46,3.373,3.373,0,0,0,3.222-1.72,4.684,4.684,0,0,0,.293-1.348l.447-3.919a2.636,2.636,0,0,1,.871-2.029c1.046-.658,2.433.375,3.653.108a1.785,1.785,0,0,0,1.315-2.058,11.587,11.587,0,0,0-.868-1.723,11.269,11.269,0,0,1-.358-1.4c-.681-2.552-3.676-3.985-6.28-3.558-1.447.24-2.792.931-4.242,1.141-1.039.151-2.1.053-3.15.164a7.951,7.951,0,0,0-2.795.825,1.625,1.625,0,0,0-.592.447,2.47,2.47,0,0,0-.3.842c-.352,1.315-1.483,2.285-2.3,3.393a8.085,8.085,0,0,0-1.559,4.376,3.509,3.509,0,0,0,.112,1.2c.069.23.178.454.23.691a4.81,4.81,0,0,1-.388,2.157,4.314,4.314,0,0,0,.23,2.742c1.263,2.9,5.422,3.873,6.287,6.921a6.9,6.9,0,0,0,2.446.658,2.36,2.36,0,0,0,2.157-1.1c1.036-1.973-1.437-3.505-2.134-5.07C434.975,246.241,435.465,242.867,437.122,244.248Z" transform="translate(-303.921 -164.74)" fill="#353045"/>
    <path id="Path_2316" data-name="Path 2316" d="M682.165,291.071a12.081,12.081,0,0,0-.658,4.682c-.506.431-1.059-.858-1.644-.526-1.6.927-3.459,3.134-5.445,3.134a10.906,10.906,0,0,1-4.955-1.187,28.815,28.815,0,0,0-1.973-5.356S684.407,284.623,682.165,291.071Z" transform="translate(-465.804 -205.444)" opacity="0.1"/>
    <path id="Path_2317" data-name="Path 2317" d="M677.133,261.436A10.936,10.936,0,1,1,666.2,250.5,10.936,10.936,0,0,1,677.133,261.436Z" transform="translate(-457.595 -180.015)" fill="#d28690"/>
    <path id="Path_2318" data-name="Path 2318" d="M665.222,325.738s-2.058,2.242-2.338,2.427-6.247,25.318-6.353,25.611-7.106,22.987-7.106,22.987l-11.216,5.514.937-27.758,8.22-22.892s2.713-3.084,3.551-4.205,11.308-7.852,11.308-7.852l1.789,3.686Z" transform="translate(-446.152 -226.374)" fill="#f0f3f7"/>
    <path id="Path_2319" data-name="Path 2319" d="M689.1,324.966l-12.9,9.233-.207-5.07c.842-1.121,11.308-7.849,11.308-7.849Z" transform="translate(-471.516 -227.521)" opacity="0.1"/>
    <path id="Path_2320" data-name="Path 2320" d="M689.967,323.256l-12.9,9.233-.2-5.067c.842-1.125,11.308-7.852,11.308-7.852Z" transform="translate(-472.1 -226.374)" fill="#f0f3f7"/>
    <path id="Path_2321" data-name="Path 2321" d="M643.135,336.59l.431,2.256-2.884,2.93,2.3-5.152s-4.932,3.436-6.412,4.347-2.959,4-3.015,4.837-2.384,13.527-2.384,13.527-1.753,4.7-1.259,6.027-2.663,43.318-2.663,43.318a6.247,6.247,0,0,1,4.215-3.232l-1.125-24.812s1.368-16.506,1.437-16.717,3.189-9.779,3.189-9.779Z" transform="translate(-438.795 -237.797)" fill="#585b8a"/>
    <path id="Path_2322" data-name="Path 2322" d="M647.036,344.3l-.224,4.6s-3.12,9.848-4.169,11.459-4.242,11.216-4.242,11.216l-1.8,16.684-3.084,1.4-1.519-2.8,2.525-16.112s4.764-13.6,5.468-15l3.515-7.4Z" transform="translate(-441.984 -242.972)" opacity="0.1"/>
    <path id="Path_2323" data-name="Path 2323" d="M646.156,343.45l-.22,4.6s-3.12,9.848-4.173,11.459-4.238,11.216-4.238,11.216l-1.789,16.681-3.084,1.4-1.542-2.8,2.525-16.112s4.764-13.6,5.465-15l3.541-7.395Z" transform="translate(-441.386 -242.402)" fill="#663d5c"/>
    <path id="Path_2324" data-name="Path 2324" d="M566.31,447.189l6.027,4.173s4.252-2.384,1.776-3.926a10.978,10.978,0,0,0-5.468-1.776C567.849,445.66,566.31,447.189,566.31,447.189Z" transform="translate(-397.893 -311.004)" fill="#d28690"/>
    <path id="Path_2325" data-name="Path 2325" d="M579.107,425.718a.928.928,0,0,0-.437.792c0,1.279.145,4.666,1.217,3.137,1.315-1.871,1.075-3.551,3.084-2.338a11.837,11.837,0,0,1,3.222,2.959l-.559-4.018S581.5,424.212,579.107,425.718Z" transform="translate(-406.189 -297.247)" fill="#d28690"/>
    <path id="Path_2326" data-name="Path 2326" d="M671.342,528.721a9.048,9.048,0,0,0-.789,2.844,23.759,23.759,0,0,1-21.284-4.107,107.265,107.265,0,0,1-2.663-11.212,36.542,36.542,0,0,1,.033-6.872l21.974-3.854S672.746,526.547,671.342,528.721Z" transform="translate(-451.69 -351.181)" opacity="0.1"/>
    <path id="Path_2327" data-name="Path 2327" d="M683.921,340.992a21.782,21.782,0,0,0-.349,5.537l-5.047,23.832s-2.453,18.364-2.874,20.817-1.121,13.248-1.121,13.248a23.741,23.741,0,0,1-25.318-2.522,107.49,107.49,0,0,1-2.663-11.216c-.7-4.163,1.368-20.84,2.348-28.248.293-2.193.49-3.574.49-3.574l3.679-13.669s4.521-11.531,6.2-14.9,8.444-10.92,8.444-10.92c.838-.533,2.18,1.348,3.176,3.061.753,1.3,1.315,2.5,1.315,2.5s8.411,3.643,9.67,5.59,1.052,5.958,1.194,6.169S684.483,339.17,683.921,340.992Z" transform="translate(-451.652 -226.186)" fill="#585b8a"/>
    <path id="Path_2328" data-name="Path 2328" d="M669.768,333.082s.631,3.716-.986,4.837c-1.562,1.085-13.189,23.947-13.912,25.374.293-2.2.49-3.577.49-3.577l3.679-13.665s4.524-11.531,6.2-14.9,8.447-10.92,8.447-10.92c.839-.533,2.177,1.348,3.173,3.061C675.361,326.414,672.228,332.313,669.768,333.082Z" transform="translate(-457.334 -226.756)" opacity="0.1"/>
    <path id="Path_2329" data-name="Path 2329" d="M668.9,332.232s.628,3.716-.986,4.837S654.733,361.013,654,362.44c.293-2.193.49-3.574.49-3.574l3.679-13.669s4.521-11.531,6.2-14.9,8.444-10.92,8.444-10.92c.839-.533,2.18,1.348,3.176,3.061C674.5,325.561,671.361,331.463,668.9,332.232Z" transform="translate(-456.75 -226.186)" fill="#585b8a"/>
    <path id="Path_2330" data-name="Path 2330" d="M615.112,412.029l-3.956,20.58v0l-.378,1.97v0l-.852,4.429-3.633-.769-1.693-.358-23.434-4.965-1.723-.365-3.932-.832.769-5.11.319-2.124,2.838-18.841Z" transform="translate(-386.276 -272.408)" fill="#c2f1c1"/>
    <path id="Path_2331" data-name="Path 2331" d="M668.078,511.92s-9.322,3.364-7.29,7.359,15.069-3.084,15.069-3.084Z" transform="translate(-461.112 -355.477)" fill="#d28690"/>
    <path id="Path_2332" data-name="Path 2332" d="M703.8,599.1c0,.279.352,3.857,1.753,5.116S703.8,599.1,703.8,599.1Z" transform="translate(-490.175 -413.991)" opacity="0.1"/>
    <path id="Path_2333" data-name="Path 2333" d="M675.24,637.68s1.68,4.626,8.339,6.52S675.24,637.68,675.24,637.68Z" transform="translate(-471.006 -439.886)" opacity="0.1"/>
    <path id="Path_2334" data-name="Path 2334" d="M681.475,261.494a10.933,10.933,0,0,1-5.481,9.48,5.819,5.819,0,0,1-1.644-1.371,2.125,2.125,0,0,1-.562-2.058c.23-.556.839-.908.986-1.483a2.183,2.183,0,0,0-.053-1.059c-.122-.543-.237-1.085-.355-1.624-.1-.46-.283-1-.74-1.115s-.838.27-1.2.552a3.752,3.752,0,0,1-3.617.6c-1.055-.569-.76-2.473-.93-3.5a.611.611,0,0,0-.23-.464.96.96,0,0,0-.477-.033,1.373,1.373,0,0,1-1.19-1.055,9.077,9.077,0,0,1-.191-1.693,1.889,1.889,0,0,0-.756-1.463,2.338,2.338,0,0,0-1.246-.2l-2.062.023a10.936,10.936,0,0,1,19.729,6.484Z" transform="translate(-461.938 -180.073)" opacity="0.1"/>
    <path id="Path_2335" data-name="Path 2335" d="M668.824,256.8c.358-.283.753-.658,1.2-.549s.635.658.737,1.111l.355,1.621a2.2,2.2,0,0,1,.056,1.062c-.168.579-.773.927-1.006,1.483a2.125,2.125,0,0,0,.562,2.055,5.919,5.919,0,0,0,3.383,2.022,2.485,2.485,0,0,0,1.056.023,3.124,3.124,0,0,0,1.736-1.575c2.173-3.387,4.044-7.1,4.426-11.1a7.123,7.123,0,0,0-.112-2.45,8.22,8.22,0,0,0-.75-1.792,14.467,14.467,0,0,0-2.114-3.2,12.009,12.009,0,0,0-5.682-3.186,19.241,19.241,0,0,0-7.336-.575c-.658.076-1.289.184-1.937.227a19.493,19.493,0,0,1-2.44-.039l-4.84-.289a1.88,1.88,0,0,0,.329,1.756,3.152,3.152,0,0,1,.71,1.7,3.49,3.49,0,0,1-.812,1.644,1.619,1.619,0,0,0-.26,1.72,1.839,1.839,0,0,0,1.644.539l2.44-.026a2.331,2.331,0,0,1,1.24.214,1.894,1.894,0,0,1,.756,1.463,9.67,9.67,0,0,0,.191,1.693,1.368,1.368,0,0,0,1.19,1.055.888.888,0,0,1,.477.036.605.605,0,0,1,.23.46c.171,1.029-.145,2.93.93,3.5A3.787,3.787,0,0,0,668.824,256.8Z" transform="translate(-458.039 -174.054)" fill="#663d5c"/>
    <path id="Path_2336" data-name="Path 2336" d="M695.152,353.408a5.36,5.36,0,0,0-5.639,3.6c-1.315,3.745-3.508,10.5-2.959,13.172.773,3.785,1.683,10.094,1.683,10.094s4,2.3,1.973,4.623a13.094,13.094,0,0,0-2.594,5.61,5.83,5.83,0,0,0-3.153,3.505c-.559,2.384-4.347,5.675-4.347,5.675l-5.675,5.679s9.391,9.535,11.285,10.022l5.817-6.8,6.869-9.111,5.958-6.247s1.4-3.288.7-9.535a45.63,45.63,0,0,0-3.436-12.2l.21-2.1S702.488,354.319,695.152,353.408Z" transform="translate(-470.469 -249.065)" opacity="0.1"/>
    <path id="Path_2337" data-name="Path 2337" d="M696.859,353.41a5.36,5.36,0,0,0-5.633,3.6c-1.315,3.745-3.508,10.5-2.959,13.172.769,3.785,1.68,10.094,1.68,10.094s4,2.3,1.973,4.623a13.067,13.067,0,0,0-2.591,5.609,5.841,5.841,0,0,0-3.157,3.505c-.562,2.384-4.344,5.675-4.344,5.675l-5.679,5.679s9.391,9.535,11.285,10.022l5.817-6.8,6.852-9.111,5.958-6.247s1.4-3.288.7-9.536a45.836,45.836,0,0,0-3.433-12.2l.21-2.1S704.194,354.321,696.859,353.41Z" transform="translate(-471.617 -249.067)" fill="#585b8a"/>
    <path id="Path_2338" data-name="Path 2338" d="M721.28,418.34s5.958,7.286,8.483,5.675S721.28,418.34,721.28,418.34Z" transform="translate(-501.907 -292.667)" opacity="0.1"/>
    <path id="Path_2339" data-name="Path 2339" d="M728.1,401.28c.631.21,5.82,7.431,8.483,6.576S728.1,401.28,728.1,401.28Z" transform="translate(-506.485 -281.217)" opacity="0.1"/>
    <path id="Path_2340" data-name="Path 2340" d="M732.58,439a3.9,3.9,0,0,0,4.626,3.574C741.481,442.012,732.58,439,732.58,439Z" transform="translate(-509.492 -306.534)" opacity="0.1"/>
    <path id="Path_2341" data-name="Path 2341" d="M616.3,301.83l-2.312,5.152,2.887-2.93Z" transform="translate(-412.103 -202.725)" opacity="0.1"/>
    <path id="Path_2342" data-name="Path 2342" d="M616.3,300.98l-2.312,5.152,2.887-2.93Z" transform="translate(-412.103 -202.154)" fill="#f0f3f7"/>
    <path id="Path_2343" data-name="Path 2343" d="M582.736,471.381l-1.723-.365-3.163-5.942.319-2.124Z" transform="translate(-387.847 -310.867)" opacity="0.3"/>
    <path id="Path_2344" data-name="Path 2344" d="M670.536,487.65l-.378,1.97v0l-4.485,3.66-1.693-.358Z" transform="translate(-445.656 -327.445)" opacity="0.3"/>
    <path id="Path_2345" data-name="Path 2345" d="M454.057,380.062c-.868.145-1.71.276-2.479.375-4.275.562-14.441-4.485-14.441-4.485s-12.406-10.374-15.98-20.186,4.275-11.285,4.275-11.285c2.959-1.684,9.394,3.012,10.3,3.785a5.853,5.853,0,0,1,1.611,4c-.072,1.263,2.1,2.874,2.1,2.874s3.716,6.448,4.626,7.148a3.658,3.658,0,0,1,1.4,2.525c.279,1.194,2.732,2.173,3.785,2.1s2.3.352,2.3.911c0,.451,1.029.674,1.874.746C453.688,372.161,453.935,376.869,454.057,380.062Z" transform="translate(-299.841 -242.851)" opacity="0.1"/>
    <path id="Path_2346" data-name="Path 2346" d="M455.165,376.747c-.658.105-1.289.2-1.881.28-4.275.562-14.438-4.485-14.438-4.485s-12.406-10.374-15.98-20.186,4.275-11.285,4.275-11.285c2.959-1.684,9.391,3.012,10.3,3.785a5.871,5.871,0,0,1,1.614,4c-.069,1.263,2.1,2.874,2.1,2.874s3.716,6.448,4.626,7.148a3.673,3.673,0,0,1,1.4,2.525c.283,1.194,2.732,2.17,3.785,2.1s2.3.352,2.3.911c0,.329.585.549,1.236.658.026.381.049.786.079,1.207C454.806,369.507,455.03,373.63,455.165,376.747Z" transform="translate(-300.989 -240.563)" opacity="0.1"/>
    <path id="Path_2347" data-name="Path 2347" d="M570.114,428.84l-.266,6.3h-.286l-.592-.329.072-5.429A9.547,9.547,0,0,1,570.114,428.84Z" transform="translate(-399.678 -299.715)" opacity="0.1"/>
    <path id="Path_2348" data-name="Path 2348" d="M425.43,342.774s-7.849,1.473-4.275,11.285,15.98,20.189,15.98,20.189,10.164,5.044,14.441,4.485,10.792-2.032,11.633-1.822,6.52.21,6.52.21l.28-6.576-6.576-.352-3.364-.7s-1.194-.986-1.894-.842-2.17-.842-2.17-.842a4.19,4.19,0,0,0-1.973-.911c-.848,0-2.453-.21-2.453-.769s-1.263-.986-2.3-.911-3.522-.911-3.811-2.118a3.659,3.659,0,0,0-1.4-2.522c-.911-.7-4.626-7.152-4.626-7.152s-2.173-1.611-2.1-2.87a5.882,5.882,0,0,0-1.611-4C434.815,345.786,428.37,341.093,425.43,342.774Z" transform="translate(-299.841 -241.706)" fill="#dce6f2"/>
    <path id="Path_2349" data-name="Path 2349" d="M492.619,412.15s-3.015,3.015-2.246,3.574Z" transform="translate(-346.841 -288.512)" opacity="0.1"/>
    <path id="Path_2350" data-name="Path 2350" d="M501.028,419.4s-3.926,3.015-2.874,3.226S501.028,419.4,501.028,419.4Z" transform="translate(-352.027 -293.379)" opacity="0.1"/>
    <path id="Path_2351" data-name="Path 2351" d="M487,433c.562.283,8.9,5.261,12.057,5.189Z" transform="translate(-344.661 -302.507)" opacity="0.1"/>
    <path id="Path_2352" data-name="Path 2352" d="M462.262,317.14s-1.473,4.837-2.035,4.837c-.441,0-7.839-5.991-10.926-8.51l.135-.112a6.618,6.618,0,0,1,1.4-3.288C451.957,308.952,462.262,317.14,462.262,317.14Z" transform="translate(-319.357 -219.925)" opacity="0.1"/>
    <path id="Path_2353" data-name="Path 2353" d="M461.4,315.43s-1.47,4.837-2.032,4.837c-.444,0-7.842-5.991-10.93-8.51l.135-.112a6.636,6.636,0,0,1,1.4-3.288C451.1,307.242,461.4,315.43,461.4,315.43Z" transform="translate(-318.78 -218.778)" fill="#dce6f2"/>
    <g id="Group_6" data-name="Group 6" transform="translate(122.771 64.794)" opacity="0.15">
      <path id="Path_2354" data-name="Path 2354" d="M427.49,282.54h0c.986,2.252,3.7,3.344,5.277,5.139C431.83,285.473,429.091,284.391,427.49,282.54Z" transform="translate(-427.49 -266.313)"/>
      <path id="Path_2355" data-name="Path 2355" d="M449.241,294.441a2.363,2.363,0,0,1-2.157,1.1,6.293,6.293,0,0,1-2.164-.552,4.207,4.207,0,0,1,.559,1.19,6.872,6.872,0,0,0,2.446.658,2.34,2.34,0,0,0,2.157-1.1c.628-1.2-.026-2.226-.792-3.2A2.088,2.088,0,0,1,449.241,294.441Z" transform="translate(-439.189 -273.025)"/>
      <path id="Path_2356" data-name="Path 2356" d="M465.609,238.125a11.276,11.276,0,0,0-.868-1.723,10.755,10.755,0,0,1-.358-1.407,4.36,4.36,0,0,0-1.009-1.805,4.191,4.191,0,0,1,.168.5,11.316,11.316,0,0,0,.368,1.414,11.279,11.279,0,0,1,.868,1.723,1.785,1.785,0,0,1-1.315,2.058c-1.217.266-2.6-.786-3.65-.109a2.627,2.627,0,0,0-.875,2.025q-.22,1.973-.447,3.923a4.7,4.7,0,0,1-.289,1.348,3.387,3.387,0,0,1-3.226,1.72,1.937,1.937,0,0,1-1.388-.46,9.183,9.183,0,0,0-.6-.763c-1.644-1.381-2.144,2-1.71,2.959a5.958,5.958,0,0,0,.8,1.207c-.362-1.085.145-4.209,1.749-2.871a8.488,8.488,0,0,1,.6.763,1.95,1.95,0,0,0,1.391.46,3.387,3.387,0,0,0,3.226-1.72,4.7,4.7,0,0,0,.289-1.351q.224-1.973.447-3.919a2.635,2.635,0,0,1,.871-2.025c1.049-.677,2.436.375,3.653.105A1.782,1.782,0,0,0,465.609,238.125Z" transform="translate(-443.355 -233.19)"/>
    </g>
    <path id="Path_2357" data-name="Path 2357" d="M675.706,264.687a2.542,2.542,0,0,1-1.056-.026,5.919,5.919,0,0,1-3.38-2.019,2.117,2.117,0,0,1-.562-2.058c.23-.556.835-.9.986-1.483a2.2,2.2,0,0,0-.056-1.062l-.355-1.621c-.1-.46-.279-1-.736-1.111s-.839.266-1.2.549a3.745,3.745,0,0,1-3.617.6c-1.052-.572-.76-2.473-.931-3.5a.615.615,0,0,0-.23-.46.937.937,0,0,0-.48-.036,1.376,1.376,0,0,1-1.19-1.055,9.331,9.331,0,0,1-.187-1.693,1.9,1.9,0,0,0-.76-1.463,2.364,2.364,0,0,0-1.24-.214l-2.44.026c-.6,0-1.315-.039-1.644-.539a1.638,1.638,0,0,1,.26-1.72,3.4,3.4,0,0,0,.812-1.644,3.091,3.091,0,0,0-.71-1.7,3.047,3.047,0,0,1-.414-.94l-.7-.043a1.892,1.892,0,0,0,.329,1.756,3.136,3.136,0,0,1,.71,1.693,3.49,3.49,0,0,1-.812,1.644,1.61,1.61,0,0,0-.257,1.72,1.838,1.838,0,0,0,1.644.543l2.44-.03a2.36,2.36,0,0,1,1.24.217,1.887,1.887,0,0,1,.76,1.463,9.087,9.087,0,0,0,.191,1.693,1.361,1.361,0,0,0,1.19,1.052.963.963,0,0,1,.477.036.618.618,0,0,1,.23.464c.171,1.026-.145,2.93.931,3.5a3.73,3.73,0,0,0,3.617-.6c.358-.283.756-.658,1.2-.552s.635.658.733,1.111l.358,1.624a2.2,2.2,0,0,1,.053,1.062c-.164.575-.773.927-1,1.48a2.122,2.122,0,0,0,.562,2.058,5.918,5.918,0,0,0,3.4,2.019,2.542,2.542,0,0,0,1.055.026,2.479,2.479,0,0,0,1.368-1.039A1.828,1.828,0,0,1,675.706,264.687Z" transform="translate(-457.882 -173.954)" opacity="0.1"/>
    <ellipse id="Ellipse_146" data-name="Ellipse 146" cx="7.947" cy="1.22" rx="7.947" ry="1.22" transform="translate(59.028 233.51)" fill="#c2f1c1" opacity="0.1"/>
    <ellipse id="Ellipse_147" data-name="Ellipse 147" cx="7.947" cy="1.22" rx="7.947" ry="1.22" transform="translate(336.518 201.793)" fill="#c2f1c1" opacity="0.1"/>
    <ellipse id="Ellipse_148" data-name="Ellipse 148" cx="23.017" cy="3.531" rx="23.017" ry="3.531" transform="translate(240.426 248.638)" fill="#c2f1c1" opacity="0.1"/>
    <ellipse id="Ellipse_149" data-name="Ellipse 149" cx="17.953" cy="2.755" rx="17.953" ry="2.755" transform="translate(310.92 234.453)" fill="#c2f1c1" opacity="0.1"/>
    <ellipse id="Ellipse_150" data-name="Ellipse 150" cx="30.445" cy="4.672" rx="30.445" ry="4.672" transform="translate(295.473 259.992)" fill="#c2f1c1" opacity="0.1"/>
    <ellipse id="Ellipse_151" data-name="Ellipse 151" cx="23.017" cy="3.531" rx="23.017" ry="3.531" transform="translate(9.943 265.243)" fill="#c2f1c1" opacity="0.1"/>
    <path id="Path_2358" data-name="Path 2358" d="M253.834,631.85s.9,1.177-.414,2.959-2.4,3.288-1.973,4.386c0,0,1.973-3.288,3.617-3.347S255.613,633.836,253.834,631.85Z" transform="translate(-186.497 -435.973)" fill="#c2f1c1"/>
    <path id="Path_2359" data-name="Path 2359" d="M253.953,631.85a1.315,1.315,0,0,1,.184.368c1.578,1.854,2.417,3.581.9,3.617-1.411.039-3.1,2.565-3.508,3.2a1.227,1.227,0,0,0,.046.145s1.973-3.288,3.617-3.347S255.732,633.836,253.953,631.85Z" transform="translate(-186.616 -435.973)" opacity="0.1"/>
    <path id="Path_2360" data-name="Path 2360" d="M263.57,635.866c0,.414-.049.75-.105.75s-.105-.329-.105-.75.059-.217.115-.217S263.57,635.452,263.57,635.866Z" transform="translate(-194.556 -438.49)" fill="#ffd037"/>
    <path id="Path_2361" data-name="Path 2361" d="M264.293,637.336c-.362.2-.681.329-.707.266s.243-.25.608-.45.22-.053.247,0S264.658,637.135,264.293,637.336Z" transform="translate(-194.707 -439.463)" fill="#ffd037"/>
    <path id="Path_2362" data-name="Path 2362" d="M240.315,631.85s-.9,1.177.414,2.959,2.4,3.288,1.973,4.386c0,0-1.973-3.288-3.6-3.347S238.526,633.836,240.315,631.85Z" transform="translate(-177.732 -435.973)" fill="#c2f1c1"/>
    <path id="Path_2363" data-name="Path 2363" d="M240.3,631.85a1.452,1.452,0,0,0-.184.368c-1.578,1.854-2.417,3.581-.9,3.617,1.411.039,3.1,2.565,3.512,3.2a1.248,1.248,0,0,1-.049.145s-1.973-3.288-3.6-3.347S238.512,633.836,240.3,631.85Z" transform="translate(-177.718 -435.973)" opacity="0.1"/>
    <path id="Path_2364" data-name="Path 2364" d="M239.35,635.866c0,.414.046.75.1.75s.105-.329.105-.75-.059-.217-.115-.217S239.35,635.452,239.35,635.866Z" transform="translate(-178.441 -438.49)" fill="#ffd037"/>
    <path id="Path_2365" data-name="Path 2365" d="M237.149,637.336c.365.2.681.329.71.266s-.247-.25-.612-.45-.22-.053-.247,0S236.784,637.135,237.149,637.336Z" transform="translate(-176.815 -439.463)" fill="#ffd037"/>
    <ellipse id="Ellipse_152" data-name="Ellipse 152" cx="9.414" cy="1.443" rx="9.414" ry="1.443" transform="translate(55.546 209.339)" fill="#c2f1c1" opacity="0.1"/>
    <path id="Path_2366" data-name="Path 2366" d="M246.619,648.229l-.046.368-.062.52-.026.217-.062.519-.03.217-.062.52-.72,5.919c-.062.526-.924.937-1.973.937h-3.729c-1.039,0-1.9-.411-1.973-.937l-.72-5.919-.062-.52-.026-.217-.066-.519-.026-.217-.062-.52-.046-.368c-.036-.3.431-.549,1.019-.549H245.6C246.189,647.68,246.655,647.93,246.619,648.229Z" transform="translate(-176.813 -446.598)" fill="#65617d"/>
    <path id="Path_2367" data-name="Path 2367" d="M192.561,614.76l-.062.52h-9.476l-.062-.52Z" transform="translate(-122.801 -412.76)" fill="#9d9cb5"/>
    <path id="Path_2368" data-name="Path 2368" d="M192.654,617l-.062.52h-9.3l-.066-.52Z" transform="translate(-122.982 -414.264)" fill="#9d9cb5"/>
    <path id="Path_2369" data-name="Path 2369" d="M192.753,619.24l-.066.52h-9.115l-.062-.52Z" transform="translate(-123.17 -415.767)" fill="#9d9cb5"/>
    <path id="Path_2370" data-name="Path 2370" d="M1082.449,618s-1.125,5.235,3.877,5.853l.309-.582S1082.758,619.624,1082.449,618Z" transform="translate(-744.247 -426.677)" fill="#c2f1c1"/>
    <path id="Path_2371" data-name="Path 2371" d="M1091.373,617.839l-1.164.247-.115.026s-3.1-2.519-3.064-8.141a13.9,13.9,0,0,0,1.483,2.344C1089.742,613.942,1091.14,616.112,1091.373,617.839Z" transform="translate(-747.394 -421.287)" fill="#c2f1c1"/>
    <path id="Path_2372" data-name="Path 2372" d="M1095.79,614.424a.73.73,0,0,1-.625.082c-2.986-.7-1.973-10.427-1.973-10.427.164.076.329,1.315,1.033,2.913C1095.425,609.8,1096.75,613.721,1095.79,614.424Z" transform="translate(-751.42 -417.334)" fill="#c2f1c1"/>
    <path id="Path_2373" data-name="Path 2373" d="M1111.12,618s.194,5.235-4.807,5.853l-.312-.592S1110.81,619.624,1111.12,618Z" transform="translate(-760.127 -426.677)" fill="#c2f1c1"/>
    <path id="Path_2374" data-name="Path 2374" d="M1106.451,610a9.682,9.682,0,0,1-3.992,8.141l-.118-.026-1.161-.247c.23-1.726,1.644-3.9,2.857-5.524A12.651,12.651,0,0,1,1106.451,610Z" transform="translate(-756.892 -421.307)" fill="#c2f1c1"/>
    <path id="Path_2375" data-name="Path 2375" d="M1100.873,613.925a1.816,1.816,0,0,1-.658.51h0a1.277,1.277,0,0,1-.247.082c-.733.171-.986-.358-.947-1.259a23.3,23.3,0,0,1,1.973-6.461,8.076,8.076,0,0,1,1.874-2.706S1102.823,611.663,1100.873,613.925Z" transform="translate(-755.441 -417.34)" fill="#c2f1c1"/>
    <path id="Path_2376" data-name="Path 2376" d="M1098.794,593.7s-3.334,11.837-.464,13.606S1099.531,594.746,1098.794,593.7Z" transform="translate(-754.197 -410.367)" fill="#c2f1c1"/>
    <path id="Path_2377" data-name="Path 2377" d="M1082.449,618s-1.125,5.235,3.877,5.853l.309-.582S1082.758,619.624,1082.449,618Z" transform="translate(-744.247 -426.677)" opacity="0.1"/>
    <path id="Path_2378" data-name="Path 2378" d="M1091.373,617.839l-1.164.247-.115.026s-3.1-2.519-3.064-8.141a13.9,13.9,0,0,0,1.483,2.344C1089.742,613.942,1091.14,616.112,1091.373,617.839Z" transform="translate(-747.394 -421.287)" opacity="0.1"/>
    <path id="Path_2379" data-name="Path 2379" d="M1095.79,614.424a.73.73,0,0,1-.625.082c-2.986-.7-1.973-10.427-1.973-10.427.164.076.329,1.315,1.033,2.913C1095.425,609.8,1096.75,613.721,1095.79,614.424Z" transform="translate(-751.42 -417.334)" opacity="0.1"/>
    <path id="Path_2380" data-name="Path 2380" d="M1111.12,618s.194,5.235-4.807,5.853l-.312-.592S1110.81,619.624,1111.12,618Z" transform="translate(-760.127 -426.677)" opacity="0.1"/>
    <path id="Path_2381" data-name="Path 2381" d="M1106.451,610a9.682,9.682,0,0,1-3.992,8.141l-.118-.026-1.161-.247c.23-1.726,1.644-3.9,2.857-5.524A12.651,12.651,0,0,1,1106.451,610Z" transform="translate(-756.892 -421.307)" opacity="0.1"/>
    <path id="Path_2382" data-name="Path 2382" d="M1100.873,613.925a1.816,1.816,0,0,1-.658.51h0a1.277,1.277,0,0,1-.247.082c-.733.171-.986-.358-.947-1.259a23.3,23.3,0,0,1,1.973-6.461,8.076,8.076,0,0,1,1.874-2.706S1102.823,611.663,1100.873,613.925Z" transform="translate(-755.441 -417.34)" opacity="0.1"/>
    <path id="Path_2383" data-name="Path 2383" d="M1098.794,593.7s-3.334,11.837-.464,13.606S1099.531,594.746,1098.794,593.7Z" transform="translate(-754.197 -410.367)" opacity="0.1"/>
    <path id="Path_2384" data-name="Path 2384" d="M1082.612,618s-.658,5.235,4.34,5.853l.309-.582S1082.921,619.624,1082.612,618Z" transform="translate(-744.41 -426.677)" fill="#c2f1c1"/>
    <path id="Path_2385" data-name="Path 2385" d="M1091.817,617.859l-1.164.247-.115.026A10,10,0,0,1,1087,610s.914.986,1.946,2.344C1090.186,613.962,1091.583,616.132,1091.817,617.859Z" transform="translate(-747.374 -421.307)" fill="#c2f1c1"/>
    <path id="Path_2386" data-name="Path 2386" d="M1095.811,622.624l-1.164.247c-1.1-.967-1.539-3.492-1.7-5.771C1094.18,618.728,1095.577,620.9,1095.811,622.624Z" transform="translate(-751.368 -426.073)" opacity="0.1"/>
    <path id="Path_2387" data-name="Path 2387" d="M1096.508,614.424a.737.737,0,0,1-.628.082c-2.986-.7-2.44-10.427-2.44-10.427a13.5,13.5,0,0,1,1.5,2.913C1096.143,609.8,1097.465,613.721,1096.508,614.424Z" transform="translate(-751.671 -417.334)" fill="#c2f1c1"/>
    <path id="Path_2388" data-name="Path 2388" d="M1112.079,618s.658,5.235-4.34,5.853l-.309-.582S1111.77,619.624,1112.079,618Z" transform="translate(-761.087 -426.677)" fill="#c2f1c1"/>
    <path id="Path_2389" data-name="Path 2389" d="M1107.4,610a9.982,9.982,0,0,1-3.528,8.141l-.115-.026-1.164-.247c.23-1.726,1.644-3.9,2.861-5.524C1106.483,610.986,1107.4,610,1107.4,610Z" transform="translate(-757.838 -421.307)" fill="#c2f1c1"/>
    <path id="Path_2390" data-name="Path 2390" d="M1105.451,617.1c-.151,2.124-.539,4.462-1.483,5.554a1.662,1.662,0,0,1-.214.217l-1.164-.247C1102.82,620.9,1104.221,618.728,1105.451,617.1Z" transform="translate(-757.838 -426.073)" opacity="0.1"/>
    <path id="Path_2391" data-name="Path 2391" d="M1102.284,613.925a1.779,1.779,0,0,1-.658.51h0a1.315,1.315,0,0,1-.243.082c-.737.171-.986-.358-.95-1.259a23.531,23.531,0,0,1,1.973-6.461,12.644,12.644,0,0,1,1.411-2.706S1104.234,611.663,1102.284,613.925Z" transform="translate(-756.388 -417.34)" fill="#c2f1c1"/>
    <path id="Path_2392" data-name="Path 2392" d="M1099.281,620.371a.79.79,0,0,1-.474-.151c-1.4-.875-1.433-4.156-1.1-7.28C1098.916,615.745,1100.238,619.667,1099.281,620.371Z" transform="translate(-754.444 -423.28)" opacity="0.1"/>
    <path id="Path_2393" data-name="Path 2393" d="M1102.291,619.449c-.161.352-.378.536-.658.51h0a.886.886,0,0,1-.4-.151,2.125,2.125,0,0,1-.8-1.026,23.53,23.53,0,0,1,1.973-6.461C1102.735,615.2,1102.844,618.262,1102.291,619.449Z" transform="translate(-756.395 -422.864)" opacity="0.1"/>
    <path id="Path_2394" data-name="Path 2394" d="M1099.519,593.7s-2.867,11.837,0,13.606S1100.255,594.746,1099.519,593.7Z" transform="translate(-754.922 -410.367)" fill="#c2f1c1"/>
    <path id="Path_2395" data-name="Path 2395" d="M1040.379,597.61H1028.44v1.976h1.822l.046.234.73,3.837h6.941l.73-3.837.043-.234h1.628Z" transform="translate(-690.278 -401.249)" fill="#4b4770"/>
    <path id="Path_2396" data-name="Path 2396" d="M1040.379,597.61H1028.44v1.976h1.822l.046.234.73,3.837h6.941l.73-3.837.043-.234h1.628Z" transform="translate(-690.278 -401.249)" opacity="0.1"/>
    <path id="Path_2397" data-name="Path 2397" d="M1043.722,601.14l-.2,1.049-.73,3.837h-6.941l-.73-3.837-.2-1.049Z" transform="translate(-694.627 -403.619)" fill="#4b4770"/>
    <path id="Path_2398" data-name="Path 2398" d="M1043.722,601.14l-.2,1.049h-8.4l-.2-1.049Z" transform="translate(-694.627 -403.619)" opacity="0.1"/>
    <rect id="Rectangle_797" data-name="Rectangle 797" width="11.939" height="1.976" transform="translate(338.626 196.361)" fill="#4b4770"/>
    <path id="Path_2399" data-name="Path 2399" d="M151.619,731.166a5.735,5.735,0,0,0-.75,1.414c-.046.122-.092.263-.138.4a1.435,1.435,0,0,0-.26-.092,3.617,3.617,0,0,0-1.174-.1c0-.155.02-.329.023-.483.049-1.733-.155-4.146-1.808-3.124-1.585.986-.454,2.63.569,3.683.089.092.178.178.263.26-.934.658-1.111,2.213-1.266,3.827s-1.526,3.38-2.436,4.383c-.092.1-.174.194-.256.279a3.337,3.337,0,0,0-2.647-.681c-.036-.141-.079-.289-.122-.444-.737-2.66-2.266-7.267-4.215-8.276l.256-.329c.829-1.082,1.762-2.693.385-3.1s-1.5,1.394-1.427,2.749q.02.256.039.483a2.016,2.016,0,0,0-1.44.7l-.214-.253c-1.118-1.315-3.166-3.41-3.788-1.828-.579,1.473,1.226,3.387,2.5,4.495l.079.069c-.852,3.456,2.867,6.274,4.87,7.507l.26.158c-2.762,3.255-4.469,9.358-4.469,9.358l7.734,1.381s5.129-4.426,4.472-8.582h.053c5.126-1.026,6.29-6.491,5.491-9.736l.092-.036a5.8,5.8,0,0,0,2.374-1.8A1.9,1.9,0,0,0,151.619,731.166Z" transform="translate(-105.786 -500.99)" fill="#c2f1c1"/>
    <path id="Path_2400" data-name="Path 2400" d="M151.619,731.166a5.735,5.735,0,0,0-.75,1.414c-.046.122-.092.263-.138.4a1.435,1.435,0,0,0-.26-.092,3.617,3.617,0,0,0-1.174-.1c0-.155.02-.329.023-.483.049-1.733-.155-4.146-1.808-3.124-1.585.986-.454,2.63.569,3.683.089.092.178.178.263.26-.934.658-1.111,2.213-1.266,3.827s-1.526,3.38-2.436,4.383c-.092.1-.174.194-.256.279a3.337,3.337,0,0,0-2.647-.681c-.036-.141-.079-.289-.122-.444-.737-2.66-2.266-7.267-4.215-8.276l.256-.329c.829-1.082,1.762-2.693.385-3.1s-1.5,1.394-1.427,2.749q.02.256.039.483a2.016,2.016,0,0,0-1.44.7l-.214-.253c-1.118-1.315-3.166-3.41-3.788-1.828-.579,1.473,1.226,3.387,2.5,4.495l.079.069c-.852,3.456,2.867,6.274,4.87,7.507l.26.158c-2.762,3.255-4.469,9.358-4.469,9.358l7.734,1.381s5.129-4.426,4.472-8.582h.053c5.126-1.026,6.29-6.491,5.491-9.736l.092-.036a5.8,5.8,0,0,0,2.374-1.8A1.9,1.9,0,0,0,151.619,731.166Z" transform="translate(-105.786 -500.99)" opacity="0.1"/>
    <path id="Path_2401" data-name="Path 2401" d="M137.19,736.17l-.9,2.63s-.5-.355-1.138-.914c-1.269-1.108-3.074-3.022-2.5-4.495.621-1.582,2.67.506,3.788,1.828C136.891,735.746,137.19,736.17,137.19,736.17Z" transform="translate(-106.752 -503.745)" fill="#c2f1c1"/>
    <path id="Path_2402" data-name="Path 2402" d="M150.319,731.9a12.535,12.535,0,0,1-.881,1.039,13.878,13.878,0,0,1-.161-1.394c-.076-1.355.069-3.153,1.427-2.749S151.148,730.814,150.319,731.9Z" transform="translate(-117.974 -501)" fill="#c2f1c1"/>
    <path id="Path_2403" data-name="Path 2403" d="M182.7,732.743c-.026.871-.112,1.568-.112,1.568a11.473,11.473,0,0,1-1.128-1.009c-1.023-1.062-2.154-2.7-.569-3.683C182.53,728.594,182.734,731.01,182.7,732.743Z" transform="translate(-138.677 -501.43)" fill="#c2f1c1"/>
    <path id="Path_2404" data-name="Path 2404" d="M195.555,736.906a5.8,5.8,0,0,1-2.374,1.8,7.1,7.1,0,0,1-.8.289l-1.065-1.5a10.58,10.58,0,0,1,.441-1.453,5.733,5.733,0,0,1,.75-1.414A1.9,1.9,0,0,1,195.555,736.906Z" transform="translate(-146.204 -504.451)" fill="#c2f1c1"/>
    <path id="Path_2405" data-name="Path 2405" d="M141.762,740.11c.45.526.75.934.75.934l-.9,2.63s-.5-.355-1.138-.914a5.162,5.162,0,0,1,1.019-2.325C141.578,740.327,141.673,740.215,141.762,740.11Z" transform="translate(-112.074 -508.636)" opacity="0.1"/>
    <path id="Path_2406" data-name="Path 2406" d="M150.352,737.625a12.533,12.533,0,0,1-.881,1.039,13.878,13.878,0,0,1-.161-1.394A1.818,1.818,0,0,1,150.352,737.625Z" transform="translate(-118.007 -506.729)" opacity="0.1"/>
    <path id="Path_2407" data-name="Path 2407" d="M148.756,749.1l-2.249.986s-.49-.237-1.2-.677c-2.364-1.453-7.115-5.113-3.946-9.427s5.843,3.423,6.905,7.208C148.588,748.342,148.756,749.1,148.756,749.1Z" transform="translate(-111.965 -507.697)" fill="#c2f1c1"/>
    <path id="Path_2408" data-name="Path 2408" d="M184.18,740.179a1.849,1.849,0,0,1,1.24-.559c-.026.871-.112,1.568-.112,1.568A11.491,11.491,0,0,1,184.18,740.179Z" transform="translate(-141.412 -508.307)" opacity="0.1"/>
    <path id="Path_2409" data-name="Path 2409" d="M193.2,743.12a7.1,7.1,0,0,1-.8.289l-1.065-1.5a10.576,10.576,0,0,1,.441-1.453A3.88,3.88,0,0,1,193.2,743.12Z" transform="translate(-146.217 -508.871)" opacity="0.1"/>
    <path id="Path_2410" data-name="Path 2410" d="M170.77,753.275c-.122.026-.25.049-.378.069-7.54,1.144-2.486-2.923-2.486-2.923s.329-.329.8-.825c.911-1,2.279-2.759,2.437-4.383.237-2.443.51-4.735,3.393-4.064C177.366,741.813,177.908,751.845,170.77,753.275Z" transform="translate(-129.376 -509.253)" fill="#c2f1c1"/>
    <rect id="Rectangle_798" data-name="Rectangle 798" width="14.405" height="3.788" transform="translate(26.847 262.794)" fill="#d4dfec"/>
    <rect id="Rectangle_799" data-name="Rectangle 799" width="18.821" height="13.218" transform="translate(24.559 250.483)" fill="#d4dfec"/>
    <rect id="Rectangle_800" data-name="Rectangle 800" width="14.405" height="3.788" transform="translate(26.847 262.794)" opacity="0.1"/>
    <rect id="Rectangle_801" data-name="Rectangle 801" width="18.821" height="13.218" transform="translate(24.559 250.483)" opacity="0.1"/>
    <rect id="Rectangle_802" data-name="Rectangle 802" width="14.405" height="3.788" transform="translate(27.794 262.794)" fill="#d4dfec"/>
    <path id="Path_2411" data-name="Path 2411" d="M158.479,764.51c.329,1.131.487,1.907.487,1.907l-2.249.986s-.49-.237-1.2-.677A5.774,5.774,0,0,1,158.479,764.51Z" transform="translate(-122.175 -525.013)" opacity="0.1"/>
    <path id="Path_2412" data-name="Path 2412" d="M170.77,770.759c-.122.026-.25.049-.378.069-7.54,1.144-2.486-2.923-2.486-2.923s.329-.329.8-.825A4.993,4.993,0,0,1,170.77,770.759Z" transform="translate(-129.376 -526.738)" opacity="0.1"/>
    <path id="Path_2413" data-name="Path 2413" d="M142.72,777.025s4.222-15.125,10.144-10.459-2.41,11.837-2.41,11.837Z" transform="translate(-113.584 -525.793)" fill="#c2f1c1"/>
    <circle id="Ellipse_153" data-name="Ellipse 153" cx="0.473" cy="0.473" r="0.473" transform="translate(30.793 234.184)" opacity="0.1"/>
    <circle id="Ellipse_154" data-name="Ellipse 154" cx="0.473" cy="0.473" r="0.473" transform="translate(30.754 236.393)" opacity="0.1"/>
    <circle id="Ellipse_155" data-name="Ellipse 155" cx="0.473" cy="0.473" r="0.473" transform="translate(44.488 234.618)" opacity="0.1"/>
    <circle id="Ellipse_156" data-name="Ellipse 156" cx="0.473" cy="0.473" r="0.473" transform="translate(33.44 245.945)" opacity="0.1"/>
    <circle id="Ellipse_157" data-name="Ellipse 157" cx="0.473" cy="0.473" r="0.473" transform="translate(43.502 238.287)" opacity="0.1"/>
    <circle id="Ellipse_158" data-name="Ellipse 158" cx="0.473" cy="0.473" r="0.473" transform="translate(38.609 243.183)" opacity="0.1"/>
    <circle id="Ellipse_159" data-name="Ellipse 159" cx="0.473" cy="0.473" r="0.473" transform="translate(32.411 235.131)" opacity="0.1"/>
    <circle id="Ellipse_160" data-name="Ellipse 160" cx="0.473" cy="0.473" r="0.473" transform="translate(43.186 236.038)" opacity="0.1"/>
    <circle id="Ellipse_161" data-name="Ellipse 161" cx="0.473" cy="0.473" r="0.473" transform="translate(41.568 239.708)" opacity="0.1"/>
    <circle id="Ellipse_162" data-name="Ellipse 162" cx="0.473" cy="0.473" r="0.473" transform="translate(36.597 245.59)" opacity="0.1"/>
    <circle id="Ellipse_163" data-name="Ellipse 163" cx="0.473" cy="0.473" r="0.473" transform="translate(35.571 243.262)" opacity="0.1"/>
    <circle id="Ellipse_164" data-name="Ellipse 164" cx="0.473" cy="0.473" r="0.473" transform="translate(33.121 238.011)" opacity="0.1"/>
    <rect id="Rectangle_803" data-name="Rectangle 803" width="14.405" height="1.384" transform="translate(27.794 262.794)" opacity="0.1"/>
    <rect id="Rectangle_804" data-name="Rectangle 804" width="18.821" height="13.218" transform="translate(25.506 250.483)" fill="#d4dfec"/>
    <circle id="Ellipse_165" data-name="Ellipse 165" cx="0.473" cy="0.473" r="0.473" transform="translate(37.228 247.721)" opacity="0.1"/>
    <circle id="Ellipse_166" data-name="Ellipse 166" cx="0.473" cy="0.473" r="0.473" transform="translate(34.387 248.313)" opacity="0.1"/>
    <circle id="Ellipse_167" data-name="Ellipse 167" cx="3.439" cy="3.439" r="3.439" transform="translate(13.001 13.519)" fill="#c2f1c1" opacity="0.1"/>
    <circle id="Ellipse_168" data-name="Ellipse 168" cx="4.603" cy="4.603" r="4.603" transform="translate(342.151 120.563)" fill="#c2f1c1" opacity="0.1"/>
    <circle id="Ellipse_169" data-name="Ellipse 169" cx="3.36" cy="3.36" r="3.36" transform="translate(352.268 111.942)" fill="#c2f1c1" opacity="0.1"/>
    <ellipse id="Ellipse_170" data-name="Ellipse 170" cx="4.5" cy="5" rx="4.5" ry="5" transform="translate(18 -0.527)" fill="#c2f1c1" opacity="0.1"/>
    <circle id="Ellipse_171" data-name="Ellipse 171" cx="5" cy="5" r="5" transform="translate(0 20.473)" fill="#c2f1c1" opacity="0.1"/>
  </g>
</svg>
