<svg xmlns="http://www.w3.org/2000/svg" width="286.263" height="230.634" viewBox="0 0 286.263 230.634">
  <g id="undraw_business_shop_qw5t" transform="translate(0 0)">
    <ellipse id="Ellipse_138" data-name="Ellipse 138" cx="141.432" cy="11.049" rx="141.432" ry="11.049" transform="translate(3.4 208.536)" fill="#3f3d56"/>
    <path id="Path_2234" data-name="Path 2234" d="M763.928,582.927l1.326,9.721-9.279.883L757.3,581.6Z" transform="translate(-498.959 -383.868)" fill="#a0616a"/>
    <path id="Path_2235" data-name="Path 2235" d="M811.783,303.812s.884,11.93.884,12.372-6.186,30.93-6.186,30.93-8.837,16.791,0,16.349,6.186-15.907,6.186-15.907l9.279-25.628-3.977-18.116Z" transform="translate(-590.558 -238.196)" fill="#a0616a"/>
    <path id="Path_2236" data-name="Path 2236" d="M691.018,582.927l-1.326,9.721,9.279.883-1.326-11.93Z" transform="translate(-455.21 -383.868)" fill="#a0616a"/>
    <path id="Path_2237" data-name="Path 2237" d="M837.265,424.292l-2.209,3.093s-1.326,13.256,0,17.674,3.977,24.744,3.977,26.07.442,2.209,0,2.651-1.767.442-.884,1.326.884,3.535.884,3.535v2.209l5.744,32.7s-3.535,3.977-.884,3.977,12.372,0,11.93-4.419l-.884-.442s-1.326-29.163-.884-30.488a11.279,11.279,0,0,0,0-3.977s-.884-1.326,0-1.767.884-3.977.884-3.977l3.977-26.954s3.535,18.116,5.744,19.884,1.767,6.186,1.767,6.186l1.768,38.884s-1.768,4.419,0,5.3,9.279,3.977,9.721-.442,2.651-42.861,2.651-44.628-.442-2.651,0-3.977-.442-1.326,0-1.326-.884-1.326-.884-2.209V441.525a32.632,32.632,0,0,1,.884-5.3c.442-.884-.442-1.767,0-3.093s-.884-5.744-.884-5.744l-19.884-5.3Z" transform="translate(-611.621 -316.257)" fill="#2f2e41"/>
    <path id="Path_2238" data-name="Path 2238" d="M863.814,715.417s2.209-2.209-.884-2.209a14.382,14.382,0,0,0-5.744,1.326l-2.209,7.954s-9.058,7.291,1.1,6.407,8.616-.221,8.616-.221,3.093-.884,3.535-1.767-.884-13.7-.884-13.7S866.023,716.743,863.814,715.417Z" transform="translate(-622.704 -508.405)" fill="#2f2e41"/>
    <path id="Path_2239" data-name="Path 2239" d="M932.824,715.417s-2.209-2.209.884-2.209a14.382,14.382,0,0,1,5.744,1.326l2.209,7.954s9.058,7.291-1.1,6.407-9.942-.221-9.942-.221-3.093-.884-3.535-1.768,2.209-13.7,2.209-13.7S930.615,716.743,932.824,715.417Z" transform="translate(-672.715 -508.405)" fill="#2f2e41"/>
    <circle id="Ellipse_139" data-name="Ellipse 139" cx="11.488" cy="11.488" r="11.488" transform="translate(219.9 7.733)" fill="#a0616a"/>
    <path id="Path_2240" data-name="Path 2240" d="M847.9,183.463s1.767,8.837,1.767,10.163,7.512,5.3,7.512,5.3l8.4-10.6s-5.3-7.512-5.3-9.279Z" transform="translate(-620.485 -155.846)" fill="#a0616a"/>
    <path id="Path_2241" data-name="Path 2241" d="M833.938,207.873s-3.851-1.025-5.019-2.722c0,0-12.214,12-12.214,14.21l9.721,17.233s0,6.186.884,6.628,0,0,0,1.767-2.651,13.256-1.768,15.023,1.768.442.884,3.093-3.093,16.791-3.093,16.791,7.953-2.651,19.442,1.767,25.186-1.767,25.186-1.767-3.535-7.953-2.651-10.6-2.209-7.512-2.209-7.512l-2.209-40.651s3.093-18.116.884-19l-4.419-1.767-14.15-1.739S839.682,207.432,833.938,207.873Z" transform="translate(-599.898 -168.769)" fill="#d0cde1"/>
    <path id="Path_2242" data-name="Path 2242" d="M819.218,250.526l-4.419,3.093s-2.209,6.628,0,9.721a22.661,22.661,0,0,1,3.093,7.512l8.837-.884Z" transform="translate(-597.992 -203.026)" fill="#d0cde1"/>
    <path id="Path_2243" data-name="Path 2243" d="M826.3,117.892l-1.993-.8s4.167-4.587,9.964-4.188l-1.63-1.8s3.986-1.6,7.609,2.593a35.361,35.361,0,0,1,5.482,7.705h2.134l-.891,1.961,3.117,1.961-3.2-.352a10.851,10.851,0,0,1-.3,5.079l.086,1.55s-3.709-5.739-3.709-6.536v1.995s-1.993-1.8-1.993-2.992l-1.087,1.4-.544-2.194-6.7,2.194,1.087-1.8-4.167.6,1.63-2.194s-4.71,2.593-4.891,4.787-2.536,4.986-2.536,4.986l-1.087-1.995S821.042,120.883,826.3,117.892Z" transform="translate(-603.679 -110.812)" fill="#2f2e41"/>
    <rect id="Rectangle_759" data-name="Rectangle 759" width="175.587" height="123.344" transform="translate(49.695 96.157)" fill="#f2f2f2"/>
    <rect id="Rectangle_760" data-name="Rectangle 760" width="44.088" height="76.963" transform="translate(64.476 143.219)" fill="#3f3d56"/>
    <rect id="Rectangle_761" data-name="Rectangle 761" width="11.876" height="11.071" transform="translate(72.631 147.836)" fill="#f2f2f2"/>
    <rect id="Rectangle_762" data-name="Rectangle 762" width="11.876" height="11.071" transform="translate(88.532 147.836)" fill="#f2f2f2"/>
    <rect id="Rectangle_763" data-name="Rectangle 763" width="11.876" height="11.473" transform="translate(72.631 162.933)" fill="#f2f2f2"/>
    <rect id="Rectangle_764" data-name="Rectangle 764" width="11.876" height="11.473" transform="translate(88.532 162.933)" fill="#f2f2f2"/>
    <circle id="Ellipse_140" data-name="Ellipse 140" cx="2.803" cy="2.803" r="2.803" transform="translate(100.154 184.079)" fill="#c2f1c1"/>
    <rect id="Rectangle_765" data-name="Rectangle 765" width="87.156" height="73.14" transform="translate(123.344 135.913)" fill="#3f3d56"/>
    <path id="Path_2244" data-name="Path 2244" d="M304.484,236.236H92.2l14.154-29.593,3.168-6.626,4.144-8.665,3.168-6.626,3.672-7.676H287.758l2.169,7.676,1.873,6.626,2.449,8.665,1.873,6.626Z" transform="translate(-60.853 -116.857)" fill="#3f3d56"/>
    <rect id="Rectangle_766" data-name="Rectangle 766" width="3.058" height="18.858" transform="translate(126.403 166.239)" fill="#c2f1c1"/>
    <rect id="Rectangle_767" data-name="Rectangle 767" width="3.058" height="2.294" transform="translate(126.403 169.043)" fill="#f2f2f2"/>
    <rect id="Rectangle_768" data-name="Rectangle 768" width="3.058" height="2.294" transform="translate(126.403 180.001)" fill="#f2f2f2"/>
    <rect id="Rectangle_769" data-name="Rectangle 769" width="7.39" height="18.858" transform="translate(130.99 166.239)" fill="#c2f1c1"/>
    <rect id="Rectangle_770" data-name="Rectangle 770" width="7.39" height="2.294" transform="translate(130.99 169.043)" fill="#f2f2f2"/>
    <rect id="Rectangle_771" data-name="Rectangle 771" width="7.39" height="2.294" transform="translate(130.99 180.001)" fill="#f2f2f2"/>
    <rect id="Rectangle_772" data-name="Rectangle 772" width="3.058" height="18.858" transform="translate(140.164 166.239)" fill="#c2f1c1"/>
    <rect id="Rectangle_773" data-name="Rectangle 773" width="3.058" height="2.294" transform="translate(140.164 169.043)" fill="#f2f2f2"/>
    <rect id="Rectangle_774" data-name="Rectangle 774" width="3.058" height="2.294" transform="translate(140.164 180.001)" fill="#f2f2f2"/>
    <rect id="Rectangle_775" data-name="Rectangle 775" width="3.058" height="18.858" transform="translate(144.751 166.239)" fill="#c2f1c1"/>
    <rect id="Rectangle_776" data-name="Rectangle 776" width="3.058" height="2.294" transform="translate(144.751 169.043)" fill="#f2f2f2"/>
    <rect id="Rectangle_777" data-name="Rectangle 777" width="3.058" height="2.294" transform="translate(144.751 180.001)" fill="#f2f2f2"/>
    <rect id="Rectangle_778" data-name="Rectangle 778" width="3.058" height="18.858" transform="translate(147.896 167.384) rotate(-20.654)" fill="#c2f1c1"/>
    <rect id="Rectangle_779" data-name="Rectangle 779" width="3.058" height="2.294" transform="translate(148.885 170.007) rotate(-20.654)" fill="#f2f2f2"/>
    <rect id="Rectangle_780" data-name="Rectangle 780" width="3.058" height="2.294" transform="translate(152.75 180.262) rotate(-20.654)" fill="#f2f2f2"/>
    <rect id="Rectangle_781" data-name="Rectangle 781" width="7.39" height="18.858" transform="translate(200.307 166.239)" fill="#c2f1c1"/>
    <rect id="Rectangle_782" data-name="Rectangle 782" width="7.39" height="2.294" transform="translate(200.307 169.043)" fill="#f2f2f2"/>
    <rect id="Rectangle_783" data-name="Rectangle 783" width="7.39" height="2.294" transform="translate(200.307 180.001)" fill="#f2f2f2"/>
    <rect id="Rectangle_784" data-name="Rectangle 784" width="3.058" height="18.858" transform="translate(195.465 166.239)" fill="#c2f1c1"/>
    <rect id="Rectangle_785" data-name="Rectangle 785" width="3.058" height="2.294" transform="translate(195.465 169.043)" fill="#f2f2f2"/>
    <rect id="Rectangle_786" data-name="Rectangle 786" width="3.058" height="2.294" transform="translate(195.465 180.001)" fill="#f2f2f2"/>
    <rect id="Rectangle_787" data-name="Rectangle 787" width="3.058" height="18.858" transform="translate(190.878 166.239)" fill="#c2f1c1"/>
    <rect id="Rectangle_788" data-name="Rectangle 788" width="3.058" height="2.294" transform="translate(190.878 169.043)" fill="#f2f2f2"/>
    <rect id="Rectangle_789" data-name="Rectangle 789" width="3.058" height="2.294" transform="translate(190.878 180.001)" fill="#f2f2f2"/>
    <rect id="Rectangle_790" data-name="Rectangle 790" width="18.858" height="3.058" transform="translate(181.281 183.952) rotate(-69.346)" fill="#c2f1c1"/>
    <rect id="Rectangle_791" data-name="Rectangle 791" width="2.294" height="3.058" transform="translate(186.135 171.075) rotate(-69.346)" fill="#f2f2f2"/>
    <rect id="Rectangle_792" data-name="Rectangle 792" width="2.294" height="3.058" transform="translate(182.269 181.33) rotate(-69.346)" fill="#f2f2f2"/>
    <rect id="Rectangle_793" data-name="Rectangle 793" width="87.156" height="1.784" transform="translate(123.344 185.098)" fill="#f2f2f2"/>
    <rect id="Rectangle_794" data-name="Rectangle 794" width="16.055" height="18.858" transform="translate(161.316 166.239)" fill="#c2f1c1"/>
    <rect id="Rectangle_795" data-name="Rectangle 795" width="8.155" height="3.568" transform="translate(165.266 170.317)" fill="#f2f2f2"/>
    <rect id="Rectangle_796" data-name="Rectangle 796" width="1.529" height="16.31" transform="translate(166.158 135.913)" fill="#f2f2f2"/>
    <circle id="Ellipse_141" data-name="Ellipse 141" cx="2.548" cy="2.548" r="2.548" transform="translate(164.374 149.674)" fill="#f2f2f2"/>
    <path id="Path_2245" data-name="Path 2245" d="M333.472,206.254H155.337l3.168-6.626H331.6Z" transform="translate(-102.526 -131.758)" fill="#c2f1c1"/>
    <path id="Path_2246" data-name="Path 2246" d="M323.6,251.229H133.831L137,244.6H321.727Z" transform="translate(-88.331 -161.443)" fill="#c2f1c1"/>
    <path id="Path_2247" data-name="Path 2247" d="M841.57,262.223a33.8,33.8,0,0,0-2.024,13.09,6.9,6.9,0,0,0,1.141,3.259h0l-31.348,14.882s-14.164,1.466-10.629,7.653,16.349-3.093,16.349-3.093,33.581-4.86,36.233-9.721,4.419-25.186,4.419-25.186Z" transform="translate(-587.647 -210.746)" fill="#a0616a"/>
    <path id="Path_2248" data-name="Path 2248" d="M923.771,208.937H930.4s4.86.884,6.186,9.721,2.651,11.047,1.326,11.047-17.233-.442-17.233-.884S923.771,208.937,923.771,208.937Z" transform="translate(-668.523 -175.576)" fill="#d0cde1"/>
    <circle id="Ellipse_142" data-name="Ellipse 142" cx="33.998" cy="33.998" r="33.998" transform="translate(0 97.362)" fill="#c2f1c1"/>
    <circle id="Ellipse_143" data-name="Ellipse 143" cx="29.238" cy="29.238" r="29.238" transform="translate(4.76 102.122)" opacity="0.1"/>
    <path id="Path_2249" data-name="Path 2249" d="M263.863,480.78v-4.255a9.881,9.881,0,0,1-5.675-1.854l.89-2.823a9.072,9.072,0,0,0,5.341,1.812,4.091,4.091,0,0,0,4.414-4.129c0-2.317-1.447-3.75-4.191-5.014-3.783-1.685-6.12-3.624-6.12-7.289a6.625,6.625,0,0,1,5.6-6.784v-4.256h2.3v4.087a9.024,9.024,0,0,1,4.822,1.475l-.927,2.781a8.2,8.2,0,0,0-4.673-1.433,3.561,3.561,0,0,0-3.931,3.623c0,2.191,1.372,3.286,4.6,4.8,3.82,1.77,5.749,3.961,5.749,7.71a7.051,7.051,0,0,1-5.86,7.163v4.382Z" transform="translate(-231.266 -332.167)" fill="#f2f2f2"/>
  </g>
</svg>
