<svg xmlns="http://www.w3.org/2000/svg" xmlns:xlink="http://www.w3.org/1999/xlink" width="309.486" height="206.541" viewBox="0 0 309.486 206.541">
  <defs>
    <linearGradient id="linear-gradient" x1="0.5" y1="1" x2="0.5" gradientUnits="objectBoundingBox">
      <stop offset="0" stop-color="gray" stop-opacity="0.251"/>
      <stop offset="0.54" stop-color="gray" stop-opacity="0.122"/>
      <stop offset="1" stop-color="gray" stop-opacity="0.102"/>
    </linearGradient>
    <linearGradient id="linear-gradient-2" x1="-20.992" y1="170.272" x2="-20.992" y2="169.272" xlink:href="#linear-gradient"/>
    <linearGradient id="linear-gradient-3" y1="1" y2="0" xlink:href="#linear-gradient"/>
    <radialGradient id="radial-gradient" cx="504.858" cy="397.604" r="3.175" gradientTransform="translate(-8.749 -7.635) scale(0.905 0.905)" gradientUnits="userSpaceOnUse">
      <stop offset="0" stop-color="#fff"/>
      <stop offset="1"/>
    </radialGradient>
    <radialGradient id="radial-gradient-2" cx="-1450.633" cy="397.261" r="3.176" gradientTransform="matrix(-0.905, 0, 0, 0.905, -3481.551, -7.699)" xlink:href="#radial-gradient"/>
    <linearGradient id="linear-gradient-4" x1="0" y1="0.5" x2="1" y2="0.5" xlink:href="#linear-gradient"/>
  </defs>
  <g id="undraw_image_post_24iy" transform="translate(-0.102 -0.095)">
    <ellipse id="Ellipse_172" data-name="Ellipse 172" cx="32.498" cy="8.217" rx="32.498" ry="8.217" transform="translate(26.835 190.201)" fill="#c2f1c1" opacity="0.1"/>
    <g id="Group_7" data-name="Group 7" transform="translate(262.04 126.845)" opacity="0.2">
      <path id="Path_2414" data-name="Path 2414" d="M1009.318,773.408a4.693,4.693,0,0,1-.459.708q-2.291-1.615-4.659-3.163c.032-.066.066-.135.1-.2a4.465,4.465,0,0,1,1.591-1.729,2.659,2.659,0,0,1,2.652-.228,2.7,2.7,0,0,1,1.31,2.328A4.465,4.465,0,0,1,1009.318,773.408Z" transform="translate(-1004.2 -707.568)" fill="#3f3d56"/>
      <ellipse id="Ellipse_173" data-name="Ellipse 173" cx="3.715" cy="2.837" rx="3.715" ry="2.837" transform="translate(0.497 62.474) rotate(-62.09)" fill="#3f3d56"/>
      <ellipse id="Ellipse_174" data-name="Ellipse 174" cx="3.715" cy="2.837" rx="3.715" ry="2.837" transform="translate(2.621 58.461) rotate(-62.09)" fill="#3f3d56"/>
      <ellipse id="Ellipse_175" data-name="Ellipse 175" cx="3.715" cy="2.837" rx="3.715" ry="2.837" transform="translate(4.748 54.446) rotate(-62.09)" fill="#3f3d56"/>
      <ellipse id="Ellipse_176" data-name="Ellipse 176" cx="3.715" cy="2.837" rx="3.715" ry="2.837" transform="translate(6.876 50.431) rotate(-62.09)" fill="#3f3d56"/>
      <path id="Path_2415" data-name="Path 2415" d="M1021.375,554.617a13.744,13.744,0,0,1-.207-1.856l7.159,2.408-7.159-3.712a13.629,13.629,0,0,1,4.834-9.662l6.936,10.028-5.385-11.155a13.6,13.6,0,1,1,12.728,23.957,13.581,13.581,0,0,1,.212,2.917l-10.911-.085,10.744,1.769a13.611,13.611,0,0,1-7.912,10.256,13.6,13.6,0,1,1-18.887-10,13.6,13.6,0,0,1,7.867-14.849Z" transform="translate(-1005.108 -538.603)" fill="#c2f1c1"/>
      <path id="Path_2416" data-name="Path 2416" d="M1038.848,656.676a13.522,13.522,0,0,1-6.5,6.067,13.6,13.6,0,1,1-18.887-10C1012.929,649.843,1039.564,655.329,1038.848,656.676Z" transform="translate(-1005.056 -621.864)" opacity="0.1"/>
    </g>
    <g id="Group_8" data-name="Group 8" transform="translate(246.259 1.682)" opacity="0.2">
      <path id="Path_2417" data-name="Path 2417" d="M967.223,463.677a8.4,8.4,0,0,1-.6,1.23q-4.009-2.143-8.117-4.152c.037-.114.08-.233.125-.347a7.212,7.212,0,0,1,2.2-3.092,4,4,0,0,1,6.807,2.58,7.216,7.216,0,0,1-.419,3.781Z" transform="translate(-954.844 -352.876)" fill="#3f3d56"/>
      <ellipse id="Ellipse_177" data-name="Ellipse 177" cx="6.016" cy="4.595" rx="6.016" ry="4.595" transform="matrix(0.356, -0.935, 0.935, 0.356, 4.272, 106.291)" fill="#3f3d56"/>
      <ellipse id="Ellipse_178" data-name="Ellipse 178" cx="6.016" cy="4.595" rx="6.016" ry="4.595" transform="matrix(0.356, -0.935, 0.935, 0.356, 6.89, 99.42)" fill="#3f3d56"/>
      <ellipse id="Ellipse_179" data-name="Ellipse 179" cx="6.016" cy="4.595" rx="6.016" ry="4.595" transform="matrix(0.356, -0.935, 0.935, 0.356, 9.503, 92.546)" fill="#3f3d56"/>
      <ellipse id="Ellipse_180" data-name="Ellipse 180" cx="6.016" cy="4.595" rx="6.016" ry="4.595" transform="matrix(0.356, -0.935, 0.935, 0.356, 12.121, 85.677)" fill="#3f3d56"/>
      <path id="Path_2418" data-name="Path 2418" d="M965.056,95.106a22.086,22.086,0,0,1-.7-2.964l11.99,2.442L964.1,90.018a22.037,22.037,0,0,1,5.81-16.44L983.055,88.3,972.184,71.457A22.008,22.008,0,1,1,997.4,107.412a22.123,22.123,0,0,1,.917,4.643l-17.545,2.036,17.614.7a22.026,22.026,0,0,1-10.67,18.055,22.008,22.008,0,1,1-32.349-12.309A22.008,22.008,0,0,1,965.048,95.1Z" transform="translate(-944.69 -66.57)" fill="#c2f1c1"/>
      <path id="Path_2419" data-name="Path 2419" d="M996.947,265.263a21.9,21.9,0,0,1-9.243,11.044A22.008,22.008,0,1,1,955.355,264C953.941,259.459,997.828,262.956,996.947,265.263Z" transform="translate(-944.683 -210.026)" opacity="0.1"/>
    </g>
    <g id="Group_9" data-name="Group 9" transform="translate(0.102 0.095)" opacity="0.2">
      <path id="Path_2420" data-name="Path 2420" d="M193.882,547.416a9.887,9.887,0,0,0,.53,1.538q5.038-1.93,10.19-3.712c-.029-.141-.058-.286-.1-.43a8.593,8.593,0,0,0-2.14-3.977,4.753,4.753,0,0,0-8.4,2.031A8.615,8.615,0,0,0,193.882,547.416Z" transform="translate(-146.611 -412.168)" fill="#3f3d56"/>
      <ellipse id="Ellipse_181" data-name="Ellipse 181" cx="5.465" cy="7.154" rx="5.465" ry="7.154" transform="translate(43.513 119.798) rotate(-13.72)" fill="#3f3d56"/>
      <ellipse id="Ellipse_182" data-name="Ellipse 182" cx="5.465" cy="7.154" rx="5.465" ry="7.154" transform="translate(41.439 111.305) rotate(-13.72)" fill="#3f3d56"/>
      <ellipse id="Ellipse_183" data-name="Ellipse 183" cx="5.465" cy="7.154" rx="5.465" ry="7.154" transform="translate(39.369 102.811) rotate(-13.72)" fill="#3f3d56"/>
      <ellipse id="Ellipse_184" data-name="Ellipse 184" cx="5.465" cy="7.154" rx="5.465" ry="7.154" transform="translate(37.294 94.315) rotate(-13.72)" fill="#3f3d56"/>
      <path id="Path_2421" data-name="Path 2421" d="M66.318,97.584a25.948,25.948,0,0,0,1.267-3.394L53.079,95.3l15.114-3.569a26.2,26.2,0,0,0-4.431-20.266L46.082,86.906,61.4,68.631a26.176,26.176,0,1,0-35.054,38.713,26.336,26.336,0,0,0-1.769,5.346l20.4,4.988-20.889-1.769a26.2,26.2,0,0,0,9.925,22.875,26.174,26.174,0,1,0,39.975-9.758A26.174,26.174,0,0,0,66.3,97.584Z" transform="translate(-16.342 -60.585)" fill="#c2f1c1"/>
      <path id="Path_2422" data-name="Path 2422" d="M47.981,297.8a26.062,26.062,0,0,0,9.281,14.4,26.174,26.174,0,1,0,39.975-9.758C99.591,297.277,47.289,294.944,47.981,297.8Z" transform="translate(-39.587 -233.993)" opacity="0.1"/>
    </g>
    <path id="Path_2423" data-name="Path 2423" d="M354.327,174.2H97.458a2.291,2.291,0,0,0-2.288,2.3V333.7a4.622,4.622,0,0,0,4.614,4.63H352a4.622,4.622,0,0,0,4.614-4.63V176.5A2.294,2.294,0,0,0,354.327,174.2Z" transform="translate(-74.166 -143.979)" fill="url(#linear-gradient)"/>
    <path id="Path_2424" data-name="Path 2424" d="M358.574,211V359.82A4.577,4.577,0,0,1,354,364.4H103.827a4.577,4.577,0,0,1-4.577-4.577V211Z" transform="translate(-77.164 -171.022)" fill="#fff"/>
    <path id="Path_2425" data-name="Path 2425" d="M133.434,204.2V359.4H103.827a4.577,4.577,0,0,1-4.577-4.577V204.213Z" transform="translate(-77.164 -166.025)" fill="#d7d9e1"/>
    <path id="Path_2426" data-name="Path 2426" d="M358.574,179.78v6.61H99.25v-6.61a2.27,2.27,0,0,1,2.27-2.27H356.3A2.27,2.27,0,0,1,358.574,179.78Z" transform="translate(-77.164 -146.412)" fill="#ededf4"/>
    <circle id="Ellipse_185" data-name="Ellipse 185" cx="1.061" cy="1.061" r="1.061" transform="translate(25.135 34.413)" fill="#fa5959" opacity="0.8"/>
    <circle id="Ellipse_186" data-name="Ellipse 186" cx="1.061" cy="1.061" r="1.061" transform="translate(28.052 34.413)" fill="#fed253" opacity="0.8"/>
    <circle id="Ellipse_187" data-name="Ellipse 187" cx="1.061" cy="1.061" r="1.061" transform="translate(30.969 34.413)" fill="#8ccf4d" opacity="0.8"/>
    <rect id="Rectangle_805" data-name="Rectangle 805" width="24.925" height="2.652" transform="translate(25.512 53.024)" fill="#ededf4"/>
    <rect id="Rectangle_806" data-name="Rectangle 806" width="24.925" height="2.652" transform="translate(25.512 60.714)" fill="#ededf4"/>
    <rect id="Rectangle_807" data-name="Rectangle 807" width="24.925" height="2.652" transform="translate(25.512 68.403)" fill="#ededf4"/>
    <rect id="Rectangle_808" data-name="Rectangle 808" width="24.925" height="2.652" transform="translate(25.512 76.093)" fill="#ededf4"/>
    <rect id="Rectangle_809" data-name="Rectangle 809" width="24.925" height="2.652" transform="translate(25.512 83.782)" fill="#ededf4"/>
    <rect id="Rectangle_810" data-name="Rectangle 810" width="1.061" height="1.591" transform="translate(166.841 26.246) rotate(90)" fill="url(#linear-gradient-2)"/>
    <rect id="Rectangle_811" data-name="Rectangle 811" width="146.367" height="91.214" transform="translate(95.203 57.617)" fill="#c2f1c1" opacity="0.1"/>
    <rect id="Rectangle_812" data-name="Rectangle 812" width="20.152" height="6.364" transform="translate(221.418 159.172)" fill="#c2f1c1"/>
    <rect id="Rectangle_813" data-name="Rectangle 813" width="147.693" height="93.198" transform="translate(83.801 64.58)" fill="#d7d9e1"/>
    <rect id="Rectangle_814" data-name="Rectangle 814" width="146.367" height="91.214" transform="translate(84.597 65.571)" fill="#fff"/>
    <path id="Path_2427" data-name="Path 2427" d="M597.561,353.51H583.773c-.583,0-1.061.345-1.061.764v.761a.692.692,0,0,0,.369.573h-3.02c-.583,0-1.061.342-1.061.764v.761c0,.419.477.764,1.061.764h.3a.584.584,0,0,0-.037.188v.764c0,.419.477.761,1.061.761h13.788c.583,0,1.061-.342,1.061-.761v-.764c0-.419-.477-.761-1.061-.761h-.3a.582.582,0,0,0,.037-.191v-.761a.692.692,0,0,0-.369-.573h3.02c.583,0,1.061-.342,1.061-.764v-.761C598.622,353.855,598.144,353.51,597.561,353.51Z" transform="translate(-429.705 -275.744)" fill="#c2f1c1" opacity="0.1"/>
    <path id="Path_2428" data-name="Path 2428" d="M523.561,414.51H509.773c-.583,0-1.061.345-1.061.764v.761a.692.692,0,0,0,.369.573h-3.02c-.583,0-1.061.342-1.061.764v.761c0,.419.477.764,1.061.764h.3a.581.581,0,0,0-.037.188v.764c0,.419.477.761,1.061.761h13.788c.583,0,1.061-.342,1.061-.761v-.764c0-.419-.477-.761-1.061-.761h-.3a.577.577,0,0,0,.037-.191v-.761a.692.692,0,0,0-.369-.573h3.02c.583,0,1.061-.342,1.061-.764v-.761C524.622,414.855,524.144,414.51,523.561,414.51Z" transform="translate(-375.327 -320.569)" fill="#c2f1c1" opacity="0.1"/>
    <path id="Path_2429" data-name="Path 2429" d="M648.561,425.51H634.773c-.583,0-1.061.345-1.061.764v.761a.692.692,0,0,0,.369.573h-3.02c-.583,0-1.061.342-1.061.764v.761c0,.419.477.764,1.061.764h.3a.578.578,0,0,0-.037.188v.764c0,.419.477.761,1.061.761h13.788c.583,0,1.061-.342,1.061-.761v-.764c0-.419-.477-.761-1.061-.761h-.3a.582.582,0,0,0,.037-.191v-.761a.692.692,0,0,0-.369-.573h3.02c.583,0,1.061-.342,1.061-.764v-.761C649.622,425.855,649.144,425.51,648.561,425.51Z" transform="translate(-467.182 -328.653)" fill="#c2f1c1" opacity="0.1"/>
    <ellipse id="Ellipse_188" data-name="Ellipse 188" cx="1.315" cy="2.137" rx="1.315" ry="2.137" transform="translate(151.04 98.26) rotate(-53.72)" fill="#c2f1c1" opacity="0.1"/>
    <ellipse id="Ellipse_189" data-name="Ellipse 189" cx="1.315" cy="2.137" rx="1.315" ry="2.137" transform="translate(145.739 70.682) rotate(-53.72)" fill="#c2f1c1" opacity="0.1"/>
    <ellipse id="Ellipse_190" data-name="Ellipse 190" cx="1.315" cy="2.137" rx="1.315" ry="2.137" transform="translate(163.238 88.981) rotate(-53.72)" fill="#c2f1c1" opacity="0.1"/>
    <g id="Group_10" data-name="Group 10" transform="translate(87.311 65.569)" opacity="0.7">
      <path id="Path_2430" data-name="Path 2430" d="M450.2,650.441H446.49A4.659,4.659,0,0,1,450.2,650.441Z" transform="translate(-419.642 -559.227)" fill="#3f3d56"/>
      <path id="Path_2431" data-name="Path 2431" d="M442.933,621.876a9.868,9.868,0,0,1-.225,2.121H431.226a10.06,10.06,0,0,1,.339-5.438,8.484,8.484,0,0,1,.679-1.453,5.191,5.191,0,0,1,9.445,0,8.489,8.489,0,0,1,.663,1.408A9.839,9.839,0,0,1,442.933,621.876Z" transform="translate(-408.26 -532.783)" fill="#3f3d56"/>
      <ellipse id="Ellipse_191" data-name="Ellipse 191" cx="5.966" cy="7.809" rx="5.966" ry="7.809" transform="translate(22.741 71.741)" fill="#3f3d56"/>
      <ellipse id="Ellipse_192" data-name="Ellipse 192" cx="5.966" cy="7.809" rx="5.966" ry="7.809" transform="translate(22.741 62.195)" fill="#3f3d56"/>
      <path id="Path_2432" data-name="Path 2432" d="M396.278,347.525a28.584,28.584,0,0,1-16.949,45.713c-.687.135-1.381.247-2.084.326a28.531,28.531,0,0,1-6.56.034q-1.084-.114-2.142-.316a28.579,28.579,0,0,1-17.187-45.758,28.587,28.587,0,0,1-4.608-26.837l21.7,7.284L348.091,317.4a28.612,28.612,0,0,1,3.259-5.213,28.523,28.523,0,0,1-2.994-4.677h41.571l8.573,1.408a28.928,28.928,0,0,1-2.222,3.269,28.465,28.465,0,0,1,6.115,17.67v.217a27.939,27.939,0,0,1-.265,3.672q-.143,1.082-.371,2.135a28.415,28.415,0,0,1-2.055,6.1c-.056.122-.114.241-.172.361a28.548,28.548,0,0,1-2.055,3.55c-.366.53-.748,1.061-1.151,1.572Z" transform="translate(-345.237 -307.51)" fill="#c2f1c1"/>
      <path id="Path_2433" data-name="Path 2433" d="M345.24,390.622a28.451,28.451,0,0,0,6.117,17.67,28.576,28.576,0,1,0,44.923,0C400.109,403.43,345.24,387.414,345.24,390.622Z" transform="translate(-345.239 -368.275)" opacity="0.1"/>
      <path id="Path_2434" data-name="Path 2434" d="M756.2,640.157H745.7a8.232,8.232,0,0,1,.53-1.061,5.191,5.191,0,0,1,9.445,0A8.238,8.238,0,0,1,756.2,640.157Z" transform="translate(-639.514 -548.943)" fill="#3f3d56"/>
      <path id="Path_2435" data-name="Path 2435" d="M754.931,607.869a9.418,9.418,0,0,1-1.244,4.773,7.354,7.354,0,0,1-.756,1.061H745a7.364,7.364,0,0,1-.756-1.061A9.418,9.418,0,0,1,743,607.869c0-4.314,2.67-7.809,5.966-7.809S754.931,603.555,754.931,607.869Z" transform="translate(-637.529 -522.488)" fill="#3f3d56"/>
      <path id="Path_2436" data-name="Path 2436" d="M708.31,362.843l-.045.061a28.465,28.465,0,0,1,6.115,17.67c0,.453,0,.907-.032,1.355a2.287,2.287,0,0,1-.021.385l-.016.265a4.715,4.715,0,0,1-.04.472c-.016.156-.027.339-.048.506s-.042.411-.069.615v.066c-.019.151-.04.3-.064.451a2.108,2.108,0,0,1-.045.316c-.064.414-.138.825-.22,1.23-.021.117-.048.233-.074.35s-.048.239-.077.358-.064.265-.1.408a1.032,1.032,0,0,1-.032.13c-.035.146-.072.289-.109.432s-.058.22-.093.331c-.042.164-.09.329-.141.493s-.1.324-.149.485q-.265.88-.61,1.729c-.074.188-.148.374-.225.559h0c-.058.143-.119.284-.18.422-.034.08-.069.159-.106.239s-.085.194-.13.289-.114.265-.175.374c-.082.175-.167.35-.265.53-.05.1-.1.2-.154.3q-.565,1.1-1.228,2.145c-.1.164-.209.329-.318.491h0q-.164.252-.334.493l-.321.467q-.53.753-1.132,1.469H663.73c-.4-.48-.777-.973-1.14-1.48l-.21-.294c-.072-.1-.146-.207-.215-.313l-.109-.162c-.09-.133-.178-.265-.265-.4l-.1-.149c-.1-.154-.2-.31-.292-.469-.358-.583-.692-1.18-1.008-1.79-.053-.1-.106-.2-.154-.3-.087-.172-.172-.347-.265-.53q-.093-.183-.175-.374c-.045-.1-.09-.191-.13-.289s-.072-.159-.106-.239c-.061-.138-.122-.265-.18-.422h0c-.077-.186-.151-.371-.225-.559-.223-.567-.424-1.143-.61-1.729-.05-.162-.1-.324-.148-.485s-.1-.329-.141-.493c-.035-.111-.064-.22-.093-.331s-.074-.286-.109-.432a1.024,1.024,0,0,1-.032-.13c-.035-.135-.066-.265-.1-.408s-.053-.239-.077-.358-.053-.233-.074-.35c-.082-.406-.156-.817-.22-1.23-.016-.1-.032-.209-.045-.316-.024-.149-.045-.3-.064-.451v-.066c-.026-.2-.05-.411-.069-.615s-.037-.337-.048-.507-.029-.315-.04-.472l-.016-.265c0-.127-.016-.265-.021-.384-.021-.448-.032-.9-.032-1.355a28.452,28.452,0,0,1,6.117-17.67c-.154-.194-.3-.39-.451-.589l-.1-.133q-.172-.228-.334-.461l-.1-.146c-.127-.183-.265-.369-.377-.554a.869.869,0,0,1-.053-.082c-.13-.2-.265-.392-.382-.594l-.08-.125c-.117-.194-.236-.387-.35-.583l-.058-.1c-.119-.207-.236-.414-.35-.623l-.04-.074c-.1-.188-.2-.377-.3-.567-.244-.475-.477-.957-.692-1.448-.127-.286-.265-.573-.369-.864l-.042-.106c-.074-.183-.146-.366-.215-.552s-.135-.369-.2-.554-.13-.374-.191-.559c-.1-.308-.2-.615-.289-.928-.024-.08-.048-.162-.069-.241-.05-.18-.1-.361-.148-.544s-.1-.382-.141-.573-.082-.347-.122-.53l-.024-.111q-.064-.3-.119-.6c-.029-.151-.058-.3-.082-.456a1.247,1.247,0,0,1-.024-.13c-.029-.156-.053-.313-.077-.469q-.048-.3-.088-.6c-.029-.228-.058-.456-.082-.684v-.106c-.021-.209-.042-.422-.056-.631s-.032-.377-.042-.565c0-.141-.019-.284-.024-.427s0-.233-.013-.35a2.98,2.98,0,0,1,0-.345v-.734a28.515,28.515,0,0,1,1.509-9.095l21.7,7.284-20.385-10.58a28.615,28.615,0,0,1,3.259-5.213,28.406,28.406,0,0,1-3.248-5.181,27.913,27.913,0,0,1-1.517-3.781,28.544,28.544,0,0,1-1.352-8.705q0-1.193.1-2.386h37L689.564,311l6.738-3.495h17.978c.069.8.1,1.591.1,2.386a28.465,28.465,0,0,1-2.615,11.948l-16.951-.122L710.49,324.3a28.935,28.935,0,0,1-2.222,3.269,28.581,28.581,0,0,1,.045,35.266Z" transform="translate(-574.495 -307.51)" fill="#c2f1c1"/>
      <path id="Path_2437" data-name="Path 2437" d="M714.395,483.984c0,.453,0,.907-.032,1.355a2.294,2.294,0,0,1-.021.385l-.016.265a4.731,4.731,0,0,1-.04.472c-.016.156-.027.339-.048.506s-.042.411-.069.615v.066c-.019.151-.04.3-.064.451a2.1,2.1,0,0,1-.045.316c-.064.414-.138.825-.22,1.23-.021.117-.048.233-.074.35s-.048.239-.077.358-.064.265-.1.408a1.021,1.021,0,0,1-.032.13c-.034.146-.072.289-.109.432s-.058.22-.093.331c-.042.164-.09.329-.141.493s-.1.323-.148.485q-.265.88-.61,1.729c-.074.188-.148.374-.225.559h0c-.058.143-.119.284-.18.422-.034.08-.069.159-.106.239s-.085.194-.13.289-.114.265-.175.374c-.082.175-.167.35-.265.53-.05.1-.1.2-.154.3q-.565,1.1-1.228,2.145c-.1.164-.209.329-.318.491h0q-.164.252-.334.493l-.321.467q-.53.753-1.132,1.469H663.744c-.4-.48-.777-.973-1.14-1.48l-.209-.294c-.072-.1-.146-.207-.215-.313l-.109-.162c-.09-.133-.178-.265-.265-.4l-.1-.148c-.1-.154-.2-.31-.292-.469-.358-.583-.692-1.18-1.008-1.79-.053-.1-.106-.2-.154-.3-.087-.172-.172-.347-.265-.53q-.093-.183-.175-.374c-.045-.1-.09-.191-.13-.289s-.072-.159-.106-.239c-.061-.138-.122-.265-.18-.422h0c-.077-.186-.151-.371-.225-.559-.223-.567-.424-1.143-.61-1.729-.05-.162-.1-.324-.148-.485s-.1-.329-.141-.493c-.034-.111-.064-.22-.093-.331s-.074-.286-.109-.432a1.034,1.034,0,0,1-.032-.13c-.034-.135-.066-.265-.1-.408s-.053-.239-.077-.358-.053-.233-.074-.35c-.082-.406-.156-.817-.22-1.23-.016-.1-.032-.209-.045-.316-.024-.148-.045-.3-.064-.451v-.066c-.027-.2-.05-.411-.069-.615s-.037-.337-.048-.506-.029-.315-.04-.472l-.016-.265c0-.127-.016-.265-.021-.384-.021-.448-.032-.9-.032-1.355a28.451,28.451,0,0,1,6.117-17.67c-.154-.194-.3-.39-.451-.589l-.1-.133q-.172-.228-.334-.461l-.1-.146c-.127-.183-.265-.369-.377-.554a.881.881,0,0,1-.053-.082c-.13-.2-.265-.392-.382-.594l-.08-.125c-.117-.194-.236-.387-.35-.583l-.058-.1c-.119-.207-.236-.414-.35-.623l-.04-.074c-.1-.188-.2-.377-.3-.567-.244-.475-.477-.957-.692-1.448-.127-.286-.265-.573-.369-.864l-.042-.106c-.074-.183-.146-.366-.215-.552s-.135-.369-.2-.554-.13-.374-.191-.559c-.1-.308-.2-.615-.289-.928-.024-.08-.048-.162-.069-.241-.05-.18-.1-.361-.149-.544s-.1-.382-.141-.573-.082-.347-.122-.53l-.024-.111q-.064-.3-.119-.6c-.029-.151-.058-.3-.082-.456a1.216,1.216,0,0,1-.024-.13c-.029-.156-.053-.313-.077-.469q-.048-.3-.087-.6c-.029-.228-.058-.456-.082-.684v-.106c-.021-.209-.042-.422-.056-.631s-.032-.376-.042-.565c0-.141-.018-.284-.024-.427s0-.233-.013-.35a3.007,3.007,0,0,1,0-.345v-.66a.177.177,0,0,1,0-.074c.146-.485,1.811-.438,4.457,0,2.1.347,4.821.941,7.894,1.71h0c15.84,3.961,41.009,12.566,38.713,15.97l-.045.061A28.465,28.465,0,0,1,714.395,483.984Z" transform="translate(-574.51 -410.92)" opacity="0.1"/>
      <ellipse id="Ellipse_193" data-name="Ellipse 193" cx="3.447" cy="2.121" rx="3.447" ry="2.121" transform="translate(55.131 24.539) rotate(-45)" fill="#c2f1c1"/>
      <ellipse id="Ellipse_194" data-name="Ellipse 194" cx="3.447" cy="2.121" rx="3.447" ry="2.121" transform="translate(79.79 14.727) rotate(-45)" fill="#c2f1c1"/>
      <ellipse id="Ellipse_195" data-name="Ellipse 195" cx="3.447" cy="2.121" rx="3.447" ry="2.121" transform="translate(136.003 32.227) rotate(-45)" fill="#c2f1c1"/>
      <ellipse id="Ellipse_196" data-name="Ellipse 196" cx="2.121" cy="3.447" rx="2.121" ry="3.447" transform="translate(49.998 36.808) rotate(-53.72)" fill="#c2f1c1"/>
      <path id="Path_2438" data-name="Path 2438" d="M572.676,497.726a2.833,2.833,0,0,1-.159-.408,3.57,3.57,0,0,1,.024-.978v-.011a3.37,3.37,0,0,0-.077-.689c-.159-.87-.315-1.742-.472-2.612a12.162,12.162,0,0,1-.18-1.209c-.034-.414-.032-.835-.037-1.252-.021-1.352-.265-2.7-.313-4.046-.026-.7-.082-1.405-.138-2.105-.1-1.206-.2-2.41-.416-3.6a17.2,17.2,0,0,1-.65-2.784l-.016-1.493a2.85,2.85,0,0,0-.2-1.252,2.8,2.8,0,0,0-.737-.843l-.223-.188q-1.061-.912-2.2-1.742h0c-.069-.056-.138-.106-.207-.156a1.591,1.591,0,0,0,.825-.058.6.6,0,0,0,.35-.477.368.368,0,0,0-.034-.2.7.7,0,0,0-.419-.3,3.782,3.782,0,0,0-.947-.156H566.4a3.758,3.758,0,0,0,.074-.392,4.309,4.309,0,0,0-.021-1.153.628.628,0,0,0,0-.074c-.09-.61-.265-1.214-.374-1.824-.013-.077-.024-.154-.034-.231a5.275,5.275,0,0,1-.077-.864c0-1.44.732-2.763,1.153-4.139a9.942,9.942,0,0,0,.422-3.383,1.323,1.323,0,0,0-.019-.265,9.872,9.872,0,0,0-.7-3.012,18.124,18.124,0,0,1-1.342-3.36c-.016-.087-.029-.17-.042-.265v-.045c-.088-.684-.056-1.379-.117-2.066v-.058a2.335,2.335,0,0,0-.05-.4,6.492,6.492,0,0,0-4.842-4.829,12.09,12.09,0,0,0-5.425,0c-1.554.289-2.97-.345-4.508-.143a2.484,2.484,0,0,0-1.631.75,8.3,8.3,0,0,0-.544.912c-.692,1.082-2.066,1.442-3.2,2.034a6.194,6.194,0,0,0-3.37,4.508c-.241,1.79.464,3.566.57,5.369a9.723,9.723,0,0,1-.141,2.238,34.921,34.921,0,0,1-1.265,4.492,5.272,5.272,0,0,0-.353,1.888,5.035,5.035,0,0,0,.292,1.283c.223.679.475,1.35.764,2a6.651,6.651,0,0,1-1.673.438,4.244,4.244,0,0,0-1.721.342,2.082,2.082,0,0,0-.6.57,3.145,3.145,0,0,0-.543,2.365.729.729,0,0,0-.339.628c0,.249.042.5.053.748a4.713,4.713,0,0,1-.265,1.384,11.728,11.728,0,0,0-.3,4.693c.106.78.188,1.554.249,2.331h0c.141,1.731.2,3.46.265,5.21a41,41,0,0,0,.212,4.98,2.333,2.333,0,0,0,.695,1.474,2.7,2.7,0,0,1,.294.236,2.024,2.024,0,0,1,.331.984,2.121,2.121,0,0,0,2.185,1.556h0l-.445,1.286H567.5a3.251,3.251,0,0,1,0-.753v.016a1.326,1.326,0,0,1,.2.737h5.237A4.1,4.1,0,0,0,572.676,497.726Z" transform="translate(-485.503 -408.167)" fill="url(#linear-gradient-3)"/>
      <path id="Path_2439" data-name="Path 2439" d="M563.466,445.891a2.417,2.417,0,0,0-1.62.745,8.63,8.63,0,0,0-.53.907c-.684,1.074-2.047,1.432-3.182,2.018a6.167,6.167,0,0,0-3.346,4.479c-.236,1.779.461,3.543.567,5.335.138,2.286-.692,4.508-1.395,6.685a5.208,5.208,0,0,0-.35,1.875,4.963,4.963,0,0,0,.289,1.278,16.932,16.932,0,0,0,2.821,5.454,9.507,9.507,0,0,0,5.065,3.341,14.706,14.706,0,0,0,2.792.3q2.153.079,4.306.077a12.512,12.512,0,0,0,2.357-.156,13.1,13.1,0,0,0,4.495-2.161c1.615-1.061,3.389-2.336,3.633-4.242.175-1.379-.514-2.731-.514-4.121,0-1.429.727-2.744,1.146-4.113a9.941,9.941,0,0,0-.292-6.608,17.417,17.417,0,0,1-1.326-3.336c-.172-.925-.066-1.883-.22-2.808a6.445,6.445,0,0,0-4.807-4.8,12.028,12.028,0,0,0-5.385,0C566.412,446.331,565,445.689,563.466,445.891Z" transform="translate(-498.358 -409.079)" fill="#3f3d56"/>
      <path id="Path_2440" data-name="Path 2440" d="M577.784,509.4a5.833,5.833,0,0,1-.727,4.38,7.075,7.075,0,0,1-1.557,1.625,9.928,9.928,0,0,1-3.07,1.7,6.189,6.189,0,0,0,2.363,1.148,11.141,11.141,0,0,0,2.013.244,57.133,57.133,0,0,0,10.187-.369,6.7,6.7,0,0,0,3.219-1.018.448.448,0,0,0,.18-.212c.066-.225-.2-.4-.422-.469a12.152,12.152,0,0,1-3.2-1.249,6.066,6.066,0,0,1-2.174-4.627c-.13-1.758.125-3.529-.048-5.285q-3.492-.05-6.982.2c-.265.019-1.435-.048-1.572.178s.5.87.655,1.114a7.762,7.762,0,0,1,1.138,2.638Z" transform="translate(-512.188 -452.824)" fill="#fbbebe"/>
      <circle id="Ellipse_197" data-name="Ellipse 197" cx="7.955" cy="7.955" r="7.955" transform="translate(60.865 40.723)" opacity="0.1"/>
      <circle id="Ellipse_198" data-name="Ellipse 198" cx="7.955" cy="7.955" r="7.955" transform="translate(60.865 40.442)" fill="#fbbebe"/>
      <path id="Path_2441" data-name="Path 2441" d="M581.993,552.611a24.16,24.16,0,0,0-.782,8.148c.175,1.734.766,3.617.841,5.391H562.34c0-.923,0-1.875-.016-2.826v-.565h0v-.735h0v-2.193a36.853,36.853,0,0,0-.135-3.866,28.108,28.108,0,0,0-1.578-6.687c-.056-.159-.111-.318-.17-.475h0a.371.371,0,0,1-.019-.05c-.061-.159-.119-.318-.18-.48-.96-2.548-2.055-5.2-1.53-7.849a6.55,6.55,0,0,1,.53-1.551,6.857,6.857,0,0,1,1.856-2.36l.077-.064a6.692,6.692,0,0,1,.864-.573,5.25,5.25,0,0,1,.475-.236l.061-.027a3.152,3.152,0,0,1,1.161-.265,5.009,5.009,0,0,1,2.734,1.111l.066.045.111.072.127.085c.329.217.663.435,1,.642l.162.1a13.238,13.238,0,0,0,3,1.413,6.321,6.321,0,0,0,4.844-.3,5.255,5.255,0,0,0,.8-.554,5.9,5.9,0,0,0,.448-.406,10.436,10.436,0,0,0,.883-.992c.384.753,1.225,1.061,1.922,1.549a5.632,5.632,0,0,1,1.779,2.121c.117.228.22.461.313.7a15.294,15.294,0,0,1,.8,3.466,17.69,17.69,0,0,1,.231,3.508A27.766,27.766,0,0,1,581.993,552.611Z" transform="translate(-502.008 -474.936)" fill="#3f3d56"/>
      <rect id="Rectangle_815" data-name="Rectangle 815" width="4.489" height="13.613" rx="2.245" transform="translate(65.379 61.576) rotate(166.7)" fill="#c2f1c1"/>
      <rect id="Rectangle_816" data-name="Rectangle 816" width="4.155" height="13.613" rx="2.078" transform="translate(64.991 61.67) rotate(166.7)" fill="#ededf4"/>
      <ellipse id="Ellipse_199" data-name="Ellipse 199" cx="0.398" cy="0.965" rx="0.398" ry="0.965" transform="translate(59.629 50.936) rotate(-13.3)" fill="#c2f1c1"/>
      <path id="Path_2442" data-name="Path 2442" d="M554.26,563.855H540.814l.456-1.326h-.016a2.1,2.1,0,0,1-2.169-1.546,1.994,1.994,0,0,0-.329-.978,2.484,2.484,0,0,0-.31-.239,2.266,2.266,0,0,1-.687-1.466,42.131,42.131,0,0,1-.209-4.948c-.079-1.856-.138-3.678-.3-5.51-.058-.66-.13-1.326-.22-1.983a11.68,11.68,0,0,1,.3-4.664,4.65,4.65,0,0,0,.265-1.374c0-.249-.066-.5-.053-.742a.729.729,0,0,1,.337-.626,3.126,3.126,0,0,1,.53-2.349,2.053,2.053,0,0,1,.594-.568,4.372,4.372,0,0,1,1.708-.339,6.519,6.519,0,0,0,1.66-.435h0c.188-.074.371-.154.557-.239h0c.647-.3,1.278-.658,1.912-1l.133-.072a14.253,14.253,0,0,1,1.448-.705l.061-.024a6.421,6.421,0,0,1,1.816-.475,10.134,10.134,0,0,1,1.838.045,1.137,1.137,0,0,1,.488.154,1.647,1.647,0,0,1,.544.575h0c.018.032.037.061.056.1a6.348,6.348,0,0,1,.509,1.5c.032.13.061.265.088.387.064.313.119.626.164.941h0a21.978,21.978,0,0,1,.217,2.4c.05,1.159.037,2.328.032,3.489v.583a6.376,6.376,0,0,0,.233,1.689,21.447,21.447,0,0,1,.53,4.624,104.907,104.907,0,0,0,1.1,10.853c.1.676.212,1.35.249,2.031A12.077,12.077,0,0,1,554.26,563.855Z" transform="translate(-486.096 -472.641)" fill="#f86d70"/>
      <path id="Path_2443" data-name="Path 2443" d="M578.936,572.292a7.827,7.827,0,0,1,.8,1.061c.109.178.2.438.037.573a.472.472,0,0,1-.289.079l-1.9.08a2.122,2.122,0,0,1-.848-.077,2.171,2.171,0,0,1-.883-.8l-.841-1.1a2.511,2.511,0,0,1-.53-.947.848.848,0,0,1,.385-.933,1.254,1.254,0,0,1,.925.064,7.9,7.9,0,0,1,1.753.652A7.424,7.424,0,0,1,578.936,572.292Z" transform="translate(-513.675 -500.527)" fill="#f86d70"/>
      <path id="Path_2444" data-name="Path 2444" d="M578.936,572.292a7.827,7.827,0,0,1,.8,1.061c.109.178.2.438.037.573a.472.472,0,0,1-.289.079l-1.9.08a2.122,2.122,0,0,1-.848-.077,2.171,2.171,0,0,1-.883-.8l-.841-1.1a2.511,2.511,0,0,1-.53-.947.848.848,0,0,1,.385-.933,1.254,1.254,0,0,1,.925.064,7.9,7.9,0,0,1,1.753.652A7.424,7.424,0,0,1,578.936,572.292Z" transform="translate(-513.675 -500.527)" opacity="0.1"/>
      <path id="Path_2445" data-name="Path 2445" d="M572.569,531.193a26.93,26.93,0,0,1,.949-3.643,8.451,8.451,0,0,0,.477-1.771c.05-.475,0-.955.048-1.432.037-.411.138-.814.2-1.222a6.125,6.125,0,0,0-.148-2.482c-.172-.644,0-1.424-.419-1.946-.167-.212-.392-.377-.565-.583a.809.809,0,0,1-.215-.745,4.675,4.675,0,0,0,1.79.058,1.182,1.182,0,0,0,.5-.175.475.475,0,0,0,.212-.456.673.673,0,0,0-.342-.39,4.189,4.189,0,0,0-3.561-.4.21.21,0,0,1,.09-.265.765.765,0,0,1,.265-.09,1.856,1.856,0,0,0,1.326-1.148.366.366,0,0,0,.026-.265c-.066-.2-.347-.188-.551-.138l-1.1.265a2.451,2.451,0,0,0-.612.207,2.521,2.521,0,0,0-.628.546,7.036,7.036,0,0,0-1.48,2.047c-.141.355-.225.732-.374,1.085a1.652,1.652,0,0,1-.721.862.939.939,0,0,0-.469.989,2.739,2.739,0,0,0,.5,1.085,13.315,13.315,0,0,0,1.376,1.8,4.96,4.96,0,0,1,.944,1.153c.156.318.223.671.361,1a2.14,2.14,0,0,1,.172.472,1.228,1.228,0,0,1,0,.355c-.231,1.787-1.556,3.246-2.052,4.98a.587.587,0,0,0-.032.265.623.623,0,0,0,.289.385,10.592,10.592,0,0,0,3.293,1.466A12.27,12.27,0,0,0,572.569,531.193Z" transform="translate(-508.384 -459.301)" opacity="0.1"/>
      <path id="Path_2446" data-name="Path 2446" d="M571.952,530.883a27.035,27.035,0,0,1,.949-3.643,8.224,8.224,0,0,0,.477-1.769c.05-.475,0-.957.048-1.432.037-.411.138-.814.2-1.222a6.137,6.137,0,0,0-.146-2.484c-.175-.642,0-1.424-.422-1.946-.167-.212-.39-.374-.565-.581a.8.8,0,0,1-.212-.745,4.661,4.661,0,0,0,1.787.056,1.178,1.178,0,0,0,.5-.172.477.477,0,0,0,.212-.456.657.657,0,0,0-.342-.39,4.187,4.187,0,0,0-3.558-.4.2.2,0,0,1,.088-.265.8.8,0,0,1,.265-.09,1.856,1.856,0,0,0,1.326-1.151.377.377,0,0,0,.024-.265c-.066-.2-.347-.185-.551-.135l-1.1.265a2.733,2.733,0,0,0-.612.207,2.579,2.579,0,0,0-.628.546,7.013,7.013,0,0,0-1.477,2.047c-.143.355-.228.732-.376,1.085a1.633,1.633,0,0,1-.721.862.944.944,0,0,0-.469.992,2.734,2.734,0,0,0,.5,1.085,13.279,13.279,0,0,0,1.379,1.8,5.016,5.016,0,0,1,.941,1.153c.156.318.223.671.361.994a2.25,2.25,0,0,1,.175.472,1.243,1.243,0,0,1,0,.358c-.231,1.787-1.554,3.243-2.05,4.977a.6.6,0,0,0-.035.265.636.636,0,0,0,.289.384,10.654,10.654,0,0,0,3.293,1.466A12.289,12.289,0,0,0,571.952,530.883Z" transform="translate(-507.929 -459.073)" fill="#fbbebe"/>
      <path id="Path_2447" data-name="Path 2447" d="M577.907,574.419a.207.207,0,0,1,.093.085.222.222,0,0,1,0,.143,11.932,11.932,0,0,1-1.039,2.286q-1.281-.7-2.506-1.509a1.368,1.368,0,0,1-.5-.475C572.752,572.629,577.109,573.957,577.907,574.419Z" transform="translate(-513.155 -503.059)" fill="#3f3d56"/>
      <path id="Path_2448" data-name="Path 2448" d="M551.764,574.494c-.281.376-.607.716-.886,1.1a17.009,17.009,0,0,0-1.225,2.206,14.936,14.936,0,0,1-1.856,2.747,5.346,5.346,0,0,0-1.668,2.835.918.918,0,0,1-.1.459,1.829,1.829,0,0,1-.329.265c-.106.1-.167.281-.061.379-.416.042-.586.53-.666.952l-.183.941a3.235,3.235,0,0,0-.09.748,3.09,3.09,0,0,0,.244.992,16.1,16.1,0,0,0,1.692,3.291,3.132,3.132,0,0,0,1.257,1.217,3.479,3.479,0,0,0,1.591.151c.764-.048,1.655-.172,2.036-.838.241-.422.2-.968.469-1.379a5.207,5.207,0,0,1,.5-.554,3.586,3.586,0,0,0,.623-1.228,45.615,45.615,0,0,0,1.676-6.12,9.9,9.9,0,0,1,.554-2.052,11.412,11.412,0,0,1,1.021-1.684,14.773,14.773,0,0,0,1.254-3.065c-1.039-.241-1.519-.931-2.4-1.514a34.3,34.3,0,0,0-2.949-2.148C552,572.914,552.241,573.85,551.764,574.494Z" transform="translate(-491.811 -502.008)" opacity="0.1"/>
      <path id="Path_2449" data-name="Path 2449" d="M549.424,572.342c-.281.377-.607.718-.886,1.1a16.716,16.716,0,0,0-1.222,2.209,15.294,15.294,0,0,1-1.856,2.747,5.352,5.352,0,0,0-1.67,2.835.918.918,0,0,1-.1.459,1.5,1.5,0,0,1-.329.265c-.106.088-.167.281-.061.379-.414.042-.586.53-.666.949l-.183.941a3.45,3.45,0,0,0-.09.75,3.092,3.092,0,0,0,.244.992,16.1,16.1,0,0,0,1.7,3.28,3.15,3.15,0,0,0,1.257,1.217,3.516,3.516,0,0,0,1.591.151c.764-.05,1.657-.172,2.036-.838.244-.424.2-.968.469-1.379a4.988,4.988,0,0,1,.5-.557,3.571,3.571,0,0,0,.623-1.225,46.007,46.007,0,0,0,1.679-6.12,9.693,9.693,0,0,1,.552-2.052,11.414,11.414,0,0,1,1.021-1.686,12.7,12.7,0,0,0,1.114-2.784c-1.039-.239-1.376-1.209-2.262-1.8a34.256,34.256,0,0,0-2.948-2.145C549.644,570.765,549.888,571.7,549.424,572.342Z" transform="translate(-490.091 -500.421)" opacity="0.1"/>
      <path id="Path_2450" data-name="Path 2450" d="M550.7,573.432c-.281.377-.607.719-.886,1.1a17.07,17.07,0,0,0-1.225,2.209,14.931,14.931,0,0,1-1.856,2.747,5.346,5.346,0,0,0-1.668,2.834.918.918,0,0,1-.1.459,1.829,1.829,0,0,1-.329.265c-.106.1-.17.281-.064.379-.414.042-.586.53-.666.952l-.183.941a3.393,3.393,0,0,0-.087.748,3.091,3.091,0,0,0,.244.992,16.1,16.1,0,0,0,1.708,3.291,3.131,3.131,0,0,0,1.257,1.217,3.464,3.464,0,0,0,1.591.151c.766-.05,1.657-.172,2.039-.838.241-.424.2-.968.469-1.379a5.214,5.214,0,0,1,.5-.554,3.657,3.657,0,0,0,.623-1.228,45.613,45.613,0,0,0,1.676-6.12,9.9,9.9,0,0,1,.552-2.052,11.5,11.5,0,0,1,1.024-1.684,19.384,19.384,0,0,0,1.734-3.269,8.953,8.953,0,0,1-2.882-1.31,33.755,33.755,0,0,0-2.949-2.148C550.937,571.854,551.181,572.79,550.7,573.432Z" transform="translate(-491.032 -501.229)" fill="#f86d70"/>
      <circle id="Ellipse_200" data-name="Ellipse 200" cx="0.562" cy="0.562" r="0.562" transform="translate(61.782 72.473)" fill="#3f3d56"/>
      <circle id="Ellipse_201" data-name="Ellipse 201" cx="0.562" cy="0.562" r="0.562" transform="translate(60.022 75.217)" fill="#3f3d56"/>
      <circle id="Ellipse_202" data-name="Ellipse 202" cx="0.562" cy="0.562" r="0.562" transform="translate(58.192 78.033)" fill="#3f3d56"/>
      <path id="Path_2451" data-name="Path 2451" d="M637.44,569.088h-5.181a1.325,1.325,0,0,0-.223-.8v.048a2.98,2.98,0,0,0,.016.737h-6.5a11.218,11.218,0,0,1,.239-2.227,23.09,23.09,0,0,0,.363-3.574c.032-1.48-.077-2.959-.085-4.439a31.916,31.916,0,0,1,.281-4.386,13.776,13.776,0,0,0,.223-4.022c-.244-1.487-.453-2.994-.642-4.489a1.171,1.171,0,0,0-.021-.162,4.289,4.289,0,0,0-.167-.817c-.077-.225-.186-.437-.284-.655a9.188,9.188,0,0,1-.445-1.161,10.712,10.712,0,0,1-.427-2.262c-.037-.437-.639-.83-.658-1.27h0a.088.088,0,0,1,0-.026,7.4,7.4,0,0,1,3.222-.09c.835.3,1.445,1.032,2.278,1.307a5.919,5.919,0,0,0,1.533.188,3.8,3.8,0,0,1,.994.159.673.673,0,0,1,.416.3.185.185,0,0,1,.021.061.557.557,0,0,1-.334.615,1.3,1.3,0,0,1-.631.077h0l-.183-.019q1.212.886,2.36,1.856l.249.212a2.745,2.745,0,0,1,.727.838,2.867,2.867,0,0,1,.2,1.246v1.482a16.255,16.255,0,0,0,.647,2.766c.209,1.183.313,2.386.411,3.577.056.7.111,1.395.138,2.092.056,1.342.289,2.678.31,4.022,0,.414,0,.827.037,1.241s.106.8.178,1.2c.156.864.313,1.731.472,2.6a3.707,3.707,0,0,1,.077.684h0a3.714,3.714,0,0,0-.026.984,2.8,2.8,0,0,0,.159.406,4.136,4.136,0,0,1,.26,1.7Z" transform="translate(-550.03 -477.873)" fill="#f86d70"/>
      <ellipse id="Ellipse_203" data-name="Ellipse 203" cx="7.602" cy="2.957" rx="7.602" ry="2.957" transform="translate(61.536 39.209)" fill="#3f3d56"/>
      <path id="Path_2452" data-name="Path 2452" d="M613.746,478.4a2.256,2.256,0,0,0-.186-.777h0a1.761,1.761,0,0,0-.223-.371c-.955-1.23-3.211-.78-3.211-.78a3.98,3.98,0,0,0-.544-.172,2.535,2.535,0,0,0-1.949.249,2.758,2.758,0,0,0-1.016,1.092,4.32,4.32,0,0,0-.159.512,4.042,4.042,0,0,0-.085.443,3.9,3.9,0,0,0,2.19,3.8,2.715,2.715,0,0,0,2.386.178,4.41,4.41,0,0,0,2.76-3.4,3.667,3.667,0,0,0,.032-.437h0A2.188,2.188,0,0,0,613.746,478.4Zm-1,.819a3.675,3.675,0,0,1-2.241,2.832,2.172,2.172,0,0,1-1.951-.148,3.166,3.166,0,0,1-1.591-3.956,2.1,2.1,0,0,1,2.85-.976C609.827,476.975,613.115,476.3,612.749,479.223Z" transform="translate(-537.109 -431.479)" fill="#f86d70"/>
      <path id="Path_2453" data-name="Path 2453" d="M610.93,478.5s3.288-.676,2.917,2.246a3.675,3.675,0,0,1-2.241,2.832,2.143,2.143,0,0,1-.833.167h0a2.174,2.174,0,0,1-1.119-.313,3.169,3.169,0,0,1-1.591-3.959A2.134,2.134,0,0,1,610.93,478.5Z" transform="translate(-538.213 -433.005)" fill="#3f3d56"/>
      <path id="Path_2454" data-name="Path 2454" d="M610.93,478.5s3.288-.676,2.917,2.246a3.675,3.675,0,0,1-2.241,2.832,2.143,2.143,0,0,1-.833.167h0a2.174,2.174,0,0,1-1.119-.313,3.169,3.169,0,0,1-1.591-3.959A2.134,2.134,0,0,1,610.93,478.5Z" transform="translate(-538.213 -433.005)" opacity="0.1" fill="url(#radial-gradient)"/>
      <path id="Path_2455" data-name="Path 2455" d="M582.665,478.588a4.057,4.057,0,0,0-.085-.443,4.321,4.321,0,0,0-.159-.512,2.758,2.758,0,0,0-1.14-1.161,2.453,2.453,0,0,0-1.493-.241,3.654,3.654,0,0,0-.875.233s-2.256-.451-3.211.78a1.762,1.762,0,0,0-.223.371h0a2.262,2.262,0,0,0-.186.777,2.187,2.187,0,0,0,0,.326h0a3.533,3.533,0,0,0,.265,1.313v.019a4.361,4.361,0,0,0,.968,1.482,4.269,4.269,0,0,0,.514.451,4.725,4.725,0,0,0,1.034.581,2.71,2.71,0,0,0,2.386-.178A3.887,3.887,0,0,0,582.665,478.588ZM580.48,481.9a2.172,2.172,0,0,1-1.952.148,3.68,3.68,0,0,1-2.243-2.832c-.363-2.917,2.917-2.249,2.917-2.249a2.1,2.1,0,0,1,2.85.976A3.147,3.147,0,0,1,580.48,481.9Z" transform="translate(-514.288 -431.472)" fill="#f86d70"/>
      <path id="Path_2456" data-name="Path 2456" d="M581.916,478.5s-3.288-.676-2.917,2.246a3.68,3.68,0,0,0,2.243,2.832,2.143,2.143,0,0,0,.833.167h0a2.175,2.175,0,0,0,1.119-.313,3.169,3.169,0,0,0,1.591-3.959A2.14,2.14,0,0,0,581.916,478.5Z" transform="translate(-516.994 -433.005)" fill="#3f3d56"/>
      <path id="Path_2457" data-name="Path 2457" d="M581.916,478.5s-3.288-.676-2.917,2.246a3.68,3.68,0,0,0,2.243,2.832,2.143,2.143,0,0,0,.833.167h0a2.175,2.175,0,0,0,1.119-.313,3.169,3.169,0,0,0,1.591-3.959A2.14,2.14,0,0,0,581.916,478.5Z" transform="translate(-516.994 -433.005)" opacity="0.1" fill="url(#radial-gradient-2)"/>
      <rect id="Rectangle_817" data-name="Rectangle 817" width="1.543" height="0.44" transform="translate(68.053 46.676)" fill="#f86d70"/>
    </g>
    <path id="Path_2458" data-name="Path 2458" d="M241.262,531.781a5.608,5.608,0,0,0-3.288-2.28c-1.286-.472-2.652-.925-4-1.326a24.252,24.252,0,0,0,4.128-5.165,12.374,12.374,0,0,0,1.649-3.386,4.818,4.818,0,0,0-.35-3.662,5,5,0,0,0-3.768-2.193,14.368,14.368,0,0,0-4.492.392q-1.591.318-3.182.663a19.966,19.966,0,0,0,1.811-.994,34.026,34.026,0,0,0,5.926-4.9,3.071,3.071,0,0,0,1.169-2.055,1.975,1.975,0,0,0-1.3-1.684,3.911,3.911,0,0,0-2.23-.088,7.509,7.509,0,0,0-4.839,3.423,8.664,8.664,0,0,1-1.159,1.79,1.6,1.6,0,0,1-2.222.223,2.254,2.254,0,0,1-.493-.9l.034-.045a7.248,7.248,0,0,0,.549-6.714,17.1,17.1,0,0,0-2.972-4.439,14.157,14.157,0,0,1,3.354-1.745,3.286,3.286,0,0,0,.925-.432,2.4,2.4,0,0,0,.748-1.914,10.513,10.513,0,0,1,.048-2.087,7.362,7.362,0,0,0,2.2.337,7.239,7.239,0,0,0,6.629-4.3,7.49,7.49,0,0,0,3.54-1.856c1.167-1.18,1.885-3.471.639-4.852a7.072,7.072,0,0,0-1.538-.978,7.4,7.4,0,0,1-1.883-1.941c-2.463-3.317-5.993-3.93-9.967-3.487a17.708,17.708,0,0,0-5.224,1.257,21.322,21.322,0,0,0-3.569,2.148c-.18.127-.363.265-.53.39-.321-.986-.75-1.957-1-2.736a2.222,2.222,0,0,1-.162-1.01,2.342,2.342,0,0,1,1.061-1.368l6.738-5.282a16.439,16.439,0,0,1,2.262-1.578c2.323-1.257,5.261-1.408,7.207-3.182a5.441,5.441,0,0,0,1.755-4.06,2.658,2.658,0,0,0-1.591-2.625c-1.114-.318-2.2.5-3.06,1.267a82.225,82.225,0,0,1-8.774,7.159c-2.975,1.981-6.252,3.564-8.9,5.955a5.937,5.937,0,0,0-1.23,1.424,7.08,7.08,0,0,0-.666,2.052l-.549,2.583c-.443,2.079-.8,4.489.464,6.157a3.106,3.106,0,0,0-.2.491c-.191.644.159,1.326,0,1.888-.175.631-1.138,1.326-1.567,1.827-.594.689-1.167,1.4-1.713,2.121a52.388,52.388,0,0,0-5.407,9.156,141.048,141.048,0,0,0-5.69,14.989,9.052,9.052,0,0,0-.612,2.758,4.468,4.468,0,0,0,.721,2.418c-.456,2.686-1.607,5.253-1.647,8l-.416.188c-.18,2.553,1.061,5.1,2.121,7.424.613,1.326,1.35,2.755,2.713,3.3a5.889,5.889,0,0,0,2.219.265c.872,0,1.676.016,2.469.034h-.1a2.956,2.956,0,0,0-2.386,1.413,3.15,3.15,0,0,0-.109,1.485q.461,5.226.92,10.453a3.57,3.57,0,0,0,.689,2.177,3.2,3.2,0,0,0,1.936.822,13.986,13.986,0,0,0,4.007.034,3.262,3.262,0,0,0,1.567-.53,1.291,1.291,0,0,0,.5-1.458c-.308-.729-1.342-.833-1.856-1.435-.673-.777-.225-1.965.244-2.877.072-.141.156-.289.244-.44a9.708,9.708,0,0,0,1.655,1.893,1.726,1.726,0,0,0,1.856.456q2.2-1.148,4.433-2.254l.345.048a54.775,54.775,0,0,0,8.7.491,3.863,3.863,0,0,0,1.615-.286,1.348,1.348,0,0,0,.817-1.3c-.09-.655-.782-1.039-1.408-1.27a12.968,12.968,0,0,0-3.67-.761q2.437-1.161,4.887-2.312a27.7,27.7,0,0,1,5.038-1.983c2.256-.565,4.9-.7,6.364-2.5a6.869,6.869,0,0,0,1.185-3.935A5.341,5.341,0,0,0,241.262,531.781ZM218.35,517.134c-.8.209-1.694.43-2.6.7-.085-.695-.217-1.387-.3-2.079a1.079,1.079,0,0,1,.056-.636,1.159,1.159,0,0,1,.544-.424l3.033-1.485a2.034,2.034,0,0,0-.631-1.485,4.412,4.412,0,0,0,.909.233,9.875,9.875,0,0,0,1.7,3.678,1.7,1.7,0,0,0,.705.6l.048.013Q220.076,516.675,218.35,517.134Z" transform="translate(-147.242 -351.847)" fill="url(#linear-gradient-4)"/>
    <path id="Path_2459" data-name="Path 2459" d="M272.749,564.65a5.806,5.806,0,0,1-4.521-.724,2.7,2.7,0,0,0-.878-.408,1.783,1.783,0,0,0-1.49.607,4.8,4.8,0,0,0-.772,5.1,10.88,10.88,0,0,0,3.41,4.189,30.946,30.946,0,0,0,3.588,2.551,6.65,6.65,0,0,1,3.678-3.577c1.474-.57,2.553-2.1,3.4-3.447.626-.989,1.185-.944.62-1.97a14.954,14.954,0,0,0-2.235-2.7,8.488,8.488,0,0,1-1.2-1.607c-.379-.676-.294-1.116-.875-.581-.384.358-.552,1.124-.981,1.543A4.22,4.22,0,0,1,272.749,564.65Z" transform="translate(-198.743 -428.833)" fill="#fabdbd"/>
    <path id="Path_2460" data-name="Path 2460" d="M260.51,480.4a2.245,2.245,0,0,1-.156-1,2.334,2.334,0,0,1,1.023-1.35l6.581-5.216a16.337,16.337,0,0,1,2.209-1.556c2.27-1.241,5.139-1.389,7.04-3.145a5.388,5.388,0,0,0,1.713-4.007,2.651,2.651,0,0,0-1.556-2.593c-1.087-.313-2.148.5-2.988,1.254a79.214,79.214,0,0,1-8.57,7.056c-2.917,1.957-6.1,3.519-8.689,5.881a5.833,5.833,0,0,0-1.2,1.4,7.061,7.061,0,0,0-.65,2.028l-.53,2.548c-.453,2.148-.819,4.654.628,6.3a2.31,2.31,0,0,0,1.753.867,3.378,3.378,0,0,0,1.355-.461c1.077-.554,3.015-1.085,3.344-2.41C262.229,484.3,261.017,481.954,260.51,480.4Z" transform="translate(-191.126 -355.07)" fill="#fabdbd"/>
    <path id="Path_2461" data-name="Path 2461" d="M294.234,645.066a8.681,8.681,0,0,0,1.132-1.766,7.331,7.331,0,0,1,4.725-3.381,3.754,3.754,0,0,1,2.177.09,1.944,1.944,0,0,1,1.267,1.66,3.047,3.047,0,0,1-1.146,2.028,33.227,33.227,0,0,1-5.783,4.834,15.4,15.4,0,0,1-7.066,2.458,1.8,1.8,0,0,1-.753-.069,1.694,1.694,0,0,1-.689-.589,13.34,13.34,0,0,1-2.158-6.069c.13.772,4.463-1.026,4.953-.8.716.337.647,1.35,1.169,1.832A1.568,1.568,0,0,0,294.234,645.066Z" transform="translate(-214.352 -486.122)" fill="#fabdbd"/>
    <path id="Path_2462" data-name="Path 2462" d="M198.184,693.813a1.418,1.418,0,0,0,.154.779c.294.464.963.469,1.506.39a28.408,28.408,0,0,0,3.712-.894l11.044-3.182a1.06,1.06,0,0,0,.475-.228,1.026,1.026,0,0,0,.217-.485,13.017,13.017,0,0,0,.244-4.866,1.257,1.257,0,0,0-.223-.65,1.31,1.31,0,0,0-.915-.345,47.436,47.436,0,0,0-5.208-.239,26.192,26.192,0,0,1-3.383-.072c-1.453-.175-3.124-1.008-4.579-.88-1.265.109-1.214,1.1-1.344,2.14C199.521,688.163,198.214,690.881,198.184,693.813Z" transform="translate(-149.861 -517.963)" fill="#fabdbd"/>
    <path id="Path_2463" data-name="Path 2463" d="M270.72,672.761a13.784,13.784,0,0,1,4.388-.39,4.868,4.868,0,0,1,3.678,2.166,4.794,4.794,0,0,1,.342,3.614,12.471,12.471,0,0,1-1.61,3.344,22.182,22.182,0,0,1-4.717,5.68c-.939.748-1.978,1.365-2.882,2.156a19.848,19.848,0,0,0-4.266,6.324,26.047,26.047,0,0,0-2.614,6.714.69.69,0,0,1-.233.48.669.669,0,0,1-.477.032l-5.3-.978a.817.817,0,0,1-.742-1.246,37.077,37.077,0,0,1,6.319-13.672,12.144,12.144,0,0,1-10.665,3.089,4.242,4.242,0,0,1-2.023-.875c-1.183-1.061-1.127-2.917-.864-4.478a32.392,32.392,0,0,1,.981-4.126c1.013-3.243,5.293-4.121,8.2-4.916Q264.428,674.024,270.72,672.761Z" transform="translate(-187.129 -510.015)" fill="#3f3d56"/>
    <path id="Path_2464" data-name="Path 2464" d="M310.838,708.424a5.948,5.948,0,0,0-2.018,1.326c.955-1.1,3.675-1.609,5.012-2.121a18.219,18.219,0,0,0,4.858-2.339A57.986,57.986,0,0,0,310.838,708.424Z" transform="translate(-231.165 -534.247)" opacity="0.1"/>
    <path id="Path_2465" data-name="Path 2465" d="M229.93,774.589c-.461.9-.9,2.071-.239,2.84.509.594,1.519.695,1.822,1.416a1.288,1.288,0,0,1-.491,1.44,3.181,3.181,0,0,1-1.53.53,13.536,13.536,0,0,1-3.914-.035,3.139,3.139,0,0,1-1.891-.811,3.546,3.546,0,0,1-.674-2.148l-.9-10.317a3.119,3.119,0,0,1,.1-1.469,2.855,2.855,0,0,1,2.325-1.395,12.677,12.677,0,0,1,3.169-.127,3.313,3.313,0,0,1,1.994.684,3.778,3.778,0,0,1,.936,2.174c.241,1.225.917,2.917.774,4.168C231.3,772.542,230.381,773.684,229.93,774.589Z" transform="translate(-167.421 -577.732)" fill="#c2f1c1"/>
    <path id="Path_2466" data-name="Path 2466" d="M278.773,782.952a12.5,12.5,0,0,1,5.966.671c.612.228,1.286.6,1.376,1.252a1.331,1.331,0,0,1-.8,1.289,3.773,3.773,0,0,1-1.591.284,53.159,53.159,0,0,1-8.514-.453,4.491,4.491,0,0,1-2.074-.652,1.631,1.631,0,0,1-.65-1.914c.339-.705,1.267-.928,1.713-1.57.323-.464.4-1.143.909-1.387a1.544,1.544,0,0,1,1.156.088c.53.188,1.827.376,2.2.822A5.875,5.875,0,0,1,278.773,782.952Z" transform="translate(-204.384 -589.432)" fill="#c2f1c1"/>
    <circle id="Ellipse_204" data-name="Ellipse 204" cx="7.064" cy="7.064" r="7.064" transform="translate(74.94 127.332)" fill="#fabdbd"/>
    <path id="Path_2467" data-name="Path 2467" d="M217.638,551.268a9.583,9.583,0,0,1,3.954-1.376,1.539,1.539,0,0,1,2.1.912,7.69,7.69,0,0,1,.947,2.233,2.623,2.623,0,0,1-.554,2.273c-.419.435-1.021.65-1.45,1.061a2.67,2.67,0,0,0-.634,2.32,6.94,6.94,0,0,0,.939,2.3,39.575,39.575,0,0,0,3.537,5.2c1.371,1.708,2.917,3.346,3.712,5.38a7.221,7.221,0,0,1-.53,6.629,5.361,5.361,0,0,1-6.067,2.105,2.02,2.02,0,0,1,.618,1.464l-2.959,1.49a1.136,1.136,0,0,0-.53.419,1.077,1.077,0,0,0-.053.628,19.382,19.382,0,0,1,.361,3.617,3.525,3.525,0,0,1-1.731,3.012,5.216,5.216,0,0,1-3.3,0,41.349,41.349,0,0,0-7.793-.814,9.844,9.844,0,0,1-3.845-.472,4.574,4.574,0,0,1-2.728-4.142,8.746,8.746,0,0,1,.6-2.721,134.982,134.982,0,0,1,5.568-14.8,51.706,51.706,0,0,1,5.282-9.039q.8-1.077,1.673-2.1c.416-.491,1.358-1.18,1.527-1.8.154-.559-.188-1.228,0-1.856A3.763,3.763,0,0,1,217.638,551.268Z" transform="translate(-152.397 -419.988)" fill="#c2f1c1"/>
    <path id="Path_2468" data-name="Path 2468" d="M196.621,710.242c3.1-1.429,6.2-2.861,9.421-3.977,2.386-.819,5.019-1.456,7.35-.53.695.265,1.326.684,2,1.013,2.257,1.1,4.836,1.254,7.332,1.533a69.019,69.019,0,0,1,16.244,3.845,5.475,5.475,0,0,1,3.211,2.251,5.184,5.184,0,0,1,.347,2.71,6.853,6.853,0,0,1-1.159,3.885c-1.419,1.777-4,1.909-6.2,2.469a27.161,27.161,0,0,0-4.911,1.957c-5.157,2.458-10.315,4.916-15.379,7.584a1.674,1.674,0,0,1-1.822-.448,11.283,11.283,0,0,1-3.182-5.229,22.472,22.472,0,0,1-.809-6.122c-1.978,0-3.588-.09-5.568-.085a5.938,5.938,0,0,1-2.166-.265c-1.326-.53-2.052-1.952-2.652-3.256C197.65,715.264,196.444,712.75,196.621,710.242Z" transform="translate(-148.704 -534.237)" fill="#3f3d56"/>
    <path id="Path_2469" data-name="Path 2469" d="M271.528,749.813a10.135,10.135,0,0,0-4.566-.681,15.044,15.044,0,0,0-2.827.212A21.283,21.283,0,0,0,260,750.9a26.349,26.349,0,0,1-10.426,2.047" transform="translate(-187.626 -566.461)" opacity="0.1"/>
    <path id="Path_2470" data-name="Path 2470" d="M275.777,539.695a7.61,7.61,0,0,1-3.805,1.909c-1.4.318-2.845.448-4.242.758-1.732.382-3.63,1.3-4.02,3.031a10.2,10.2,0,0,0-.053,2.092,2.385,2.385,0,0,1-.729,1.891,3.21,3.21,0,0,1-.9.424,15.057,15.057,0,0,0-9.668,13.9,6.815,6.815,0,0,1-3.32-4.905c0,1.872-1.591,3.789-.7,5.436a8.575,8.575,0,0,1-2.071-12.5c.713-.907,1.591-1.657,2.36-2.524a11.72,11.72,0,0,0,2.776-8.936,12.805,12.805,0,0,1-.265-4.078c.416-1.856,2.047-3.15,3.6-4.243a20.614,20.614,0,0,1,3.484-2.121,16.8,16.8,0,0,1,5.1-1.244c3.882-.437,7.329.167,9.734,3.447a7.2,7.2,0,0,0,1.84,1.917,7.366,7.366,0,0,1,1.5.965C277.62,536.266,276.925,538.531,275.777,539.695Z" transform="translate(-183.843 -404.302)" fill="#3f3d56"/>
    <ellipse id="Ellipse_205" data-name="Ellipse 205" cx="6.915" cy="1.328" rx="6.915" ry="1.328" transform="translate(30.653 194.608)" fill="#c2f1c1"/>
    <ellipse id="Ellipse_206" data-name="Ellipse 206" cx="0.806" cy="1.053" rx="0.806" ry="1.053" transform="translate(36.648 194.319)" fill="#3f3d56"/>
    <ellipse id="Ellipse_207" data-name="Ellipse 207" cx="0.806" cy="1.053" rx="0.806" ry="1.053" transform="translate(36.648 193.03)" fill="#3f3d56"/>
    <ellipse id="Ellipse_208" data-name="Ellipse 208" cx="0.806" cy="1.053" rx="0.806" ry="1.053" transform="translate(36.648 191.741)" fill="#3f3d56"/>
    <ellipse id="Ellipse_209" data-name="Ellipse 209" cx="0.806" cy="1.053" rx="0.806" ry="1.053" transform="translate(36.648 190.455)" fill="#3f3d56"/>
    <ellipse id="Ellipse_210" data-name="Ellipse 210" cx="0.806" cy="1.053" rx="0.806" ry="1.053" transform="translate(36.648 189.167)" fill="#3f3d56"/>
    <ellipse id="Ellipse_211" data-name="Ellipse 211" cx="0.806" cy="1.053" rx="0.806" ry="1.053" transform="translate(36.648 187.878)" fill="#3f3d56"/>
    <ellipse id="Ellipse_212" data-name="Ellipse 212" cx="0.806" cy="1.053" rx="0.806" ry="1.053" transform="translate(36.648 186.589)" fill="#3f3d56"/>
    <path id="Path_2471" data-name="Path 2471" d="M149.44,717.309a3.58,3.58,0,0,0,.3-.435l-2.121-.347,2.286.016a3.869,3.869,0,0,0,.074-3.055l-3.068,1.591L149.739,713a3.855,3.855,0,1,0-6.364,4.314,3.931,3.931,0,0,0-.44.705l2.747,1.426-2.917-.984A49.351,49.351,0,0,1,143.8,727.3a7.809,7.809,0,0,0,5.647-9.988Z" transform="translate(-108.973 -538.484)" fill="#c2f1c1"/>
    <path id="Path_2472" data-name="Path 2472" d="M142.6,743.481a15.366,15.366,0,0,1,1.24,7.6,3.855,3.855,0,0,0,5.647-5.215C150,745.207,142.6,743.046,142.6,743.481Z" transform="translate(-109.02 -562.269)" opacity="0.1"/>
  </g>
</svg>
